  0
SECTION
  2
HEADER
  9
$ACADVER
  1
AC1006
  9
$EXTMIN
 10
0.000000
 20
0.000000
 30
0.000000
  9
$EXTMAX
 10
960.000000
 20
960.000000
 30
0.000000
  0
ENDSEC
  0
SECTION
  2
ENTITIES
  0
POLYLINE
  8
0
 66
1
 70
1
  0
VERTEX
  8
0
 10
450.000000
 20
959.355314
 42
0.018942
  0
VERTEX
  8
0
 10
403.580265
 20
953.848151
 42
0.022657
  0
VERTEX
  8
0
 10
360.439787
 20
945.045970
 42
0.023414
  0
VERTEX
  8
0
 10
319.527049
 20
932.685450
 42
0.023152
  0
VERTEX
  8
0
 10
279.791581
 20
916.513593
 42
0.021634
  0
VERTEX
  8
0
 10
241.619235
 20
896.830846
 42
0.022221
  0
VERTEX
  8
0
 10
205.640500
 20
874.084782
 42
0.022281
  0
VERTEX
  8
0
 10
171.913873
 20
848.298765
 42
0.022026
  0
VERTEX
  8
0
 10
140.480669
 20
819.519331
 42
0.022026
  0
VERTEX
  8
0
 10
111.701235
 20
788.086127
 42
0.022281
  0
VERTEX
  8
0
 10
85.915218
 20
754.359500
 42
0.022221
  0
VERTEX
  8
0
 10
63.169154
 20
718.380765
 42
0.021634
  0
VERTEX
  8
0
 10
43.486407
 20
680.208419
 42
0.020889
  0
VERTEX
  8
0
 10
28.863670
 20
644.739607
 42
0.020691
  0
VERTEX
  8
0
 10
17.200157
 20
608.062283
 42
0.020247
  0
VERTEX
  8
0
 10
8.396796
 20
569.779385
 42
0.018164
  0
VERTEX
  8
0
 10
2.341581
 20
529.500000
 42
0.020726
  0
VERTEX
  8
0
 10
0.997219
 20
510.714691
 42
0.006034
  0
VERTEX
  8
0
 10
0.477111
 20
481.707342
 42
0.005843
  0
VERTEX
  8
0
 10
0.645059
 20
452.883455
 42
0.024155
  0
VERTEX
  8
0
 10
1.790766
 20
435.500000
 42
0.004498
  0
VERTEX
  8
0
 10
3.644038
 20
420.522243
 42
0.005046
  0
VERTEX
  8
0
 10
5.702484
 20
406.144009
 42
0.005401
  0
VERTEX
  8
0
 10
7.876726
 20
392.931002
 42
0.008198
  0
VERTEX
  8
0
 10
10.078571
 20
381.500000
 42
0.078464
  0
VERTEX
  8
0
 10
63.026488
 20
242.224477
 42
0.078033
  0
VERTEX
  8
0
 10
156.386708
 20
125.741425
 42
0.078034
  0
VERTEX
  8
0
 10
280.953169
 20
43.479364
 42
0.078470
  0
VERTEX
  8
0
 10
424.500000
 20
3.555168
 42
0.009012
  0
VERTEX
  8
0
 10
437.142092
 20
2.329764
 42
0.004275
  0
VERTEX
  8
0
 10
453.468298
 20
1.184153
 42
0.004134
  0
VERTEX
  8
0
 10
469.349355
 20
0.337885
 42
0.013071
  0
VERTEX
  8
0
 10
480.000000
 20
0.137311
 42
0.014630
  0
VERTEX
  8
0
 10
506.047793
 20
1.090250
 42
0.011753
  0
VERTEX
  8
0
 10
533.979236
 20
3.592075
 42
0.011856
  0
VERTEX
  8
0
 10
561.419101
 20
7.362437
 42
0.016090
  0
VERTEX
  8
0
 10
585.964555
 20
12.145114
 42
0.050514
  0
VERTEX
  8
0
 10
678.494204
 20
43.380236
 42
0.051113
  0
VERTEX
  8
0
 10
762.488722
 20
92.440426
 42
0.051028
  0
VERTEX
  8
0
 10
834.905321
 20
157.606012
 42
0.050017
  0
VERTEX
  8
0
 10
893.172551
 20
236.500000
 42
0.046657
  0
VERTEX
  8
0
 10
930.352615
 20
314.877487
 42
0.045345
  0
VERTEX
  8
0
 10
952.789233
 20
399.538783
 42
0.045292
  0
VERTEX
  8
0
 10
959.613566
 20
486.953732
 42
0.046314
  0
VERTEX
  8
0
 10
950.477466
 20
573.500000
 42
0.054790
  0
VERTEX
  8
0
 10
918.322490
 20
674.855830
 42
0.055472
  0
VERTEX
  8
0
 10
865.018573
 20
766.353621
 42
0.055515
  0
VERTEX
  8
0
 10
792.947028
 20
843.833386
 42
0.055038
  0
VERTEX
  8
0
 10
705.397610
 20
903.814527
 42
0.023357
  0
VERTEX
  8
0
 10
664.115448
 20
923.451097
 42
0.025010
  0
VERTEX
  8
0
 10
622.100435
 20
938.658308
 42
0.024408
  0
VERTEX
  8
0
 10
577.851303
 20
949.884579
 42
0.020236
  0
VERTEX
  8
0
 10
529.862712
 20
957.589123
 42
0.020915
  0
VERTEX
  8
0
 10
516.408164
 20
958.625830
 42
0.003241
  0
VERTEX
  8
0
 10
489.687416
 20
959.390100
 42
0.003149
  0
VERTEX
  8
0
 10
462.943869
 20
959.813026
 42
0.022434
  0
SEQEND
  0
POLYLINE
  8
0
 66
1
 70
1
  0
VERTEX
  8
0
 10
538.257891
 20
941.622904
 42
-0.006168
  0
VERTEX
  8
0
 10
554.984768
 20
939.171677
 42
-0.009532
  0
VERTEX
  8
0
 10
569.364135
 20
936.600968
 42
-0.009539
  0
VERTEX
  8
0
 10
583.627904
 20
933.485378
 42
-0.006188
  0
VERTEX
  8
0
 10
600.000000
 20
929.365837
 42
-0.027878
  0
VERTEX
  8
0
 10
642.912430
 20
915.400823
 42
-0.024809
  0
VERTEX
  8
0
 10
685.756722
 20
896.269179
 42
-0.024724
  0
VERTEX
  8
0
 10
726.652126
 20
872.907284
 42
-0.027145
  0
VERTEX
  8
0
 10
763.733154
 20
846.281414
 42
-0.051763
  0
VERTEX
  8
0
 10
831.805318
 20
778.880276
 42
-0.051963
  0
VERTEX
  8
0
 10
884.482031
 20
699.017303
 42
-0.051868
  0
VERTEX
  8
0
 10
919.636943
 20
609.867085
 42
-0.051201
  0
VERTEX
  8
0
 10
935.887975
 20
515.000000
 42
-0.014864
  0
VERTEX
  8
0
 10
936.439156
 20
500.354781
 42
-0.004890
  0
VERTEX
  8
0
 10
936.398457
 20
478.793865
 42
-0.004856
  0
VERTEX
  8
0
 10
935.938810
 20
457.297546
 42
-0.015572
  0
VERTEX
  8
0
 10
935.047879
 20
443.000000
 42
-0.022924
  0
VERTEX
  8
0
 10
928.825711
 20
398.594319
 42
-0.024045
  0
VERTEX
  8
0
 10
918.630430
 20
355.658397
 42
-0.024043
  0
VERTEX
  8
0
 10
904.358584
 20
313.895638
 42
-0.022909
  0
VERTEX
  8
0
 10
885.939514
 20
273.000000
 42
-0.041805
  0
VERTEX
  8
0
 10
846.858454
 20
209.620483
 42
-0.040649
  0
VERTEX
  8
0
 10
797.446096
 20
152.981983
 42
-0.040701
  0
VERTEX
  8
0
 10
739.587756
 20
105.149457
 42
-0.042156
  0
VERTEX
  8
0
 10
675.395844
 20
67.950846
 42
-0.010804
  0
VERTEX
  8
0
 10
655.349955
 20
59.014909
 42
-0.012522
  0
VERTEX
  8
0
 10
635.891784
 20
51.407634
 42
-0.012619
  0
VERTEX
  8
0
 10
616.211819
 20
44.833334
 42
-0.011318
  0
VERTEX
  8
0
 10
595.501181
 20
39.000304
 42
-0.055953
  0
VERTEX
  8
0
 10
495.134188
 20
24.845215
 42
-0.055656
  0
VERTEX
  8
0
 10
393.941158
 20
33.251106
 42
-0.055665
  0
VERTEX
  8
0
 10
297.108558
 20
63.767254
 42
-0.056003
  0
VERTEX
  8
0
 10
209.606742
 20
114.847771
 42
-0.008651
  0
VERTEX
  8
0
 10
194.599606
 20
126.437002
 42
-0.011242
  0
VERTEX
  8
0
 10
181.284110
 20
137.592849
 42
-0.010961
  0
VERTEX
  8
0
 10
168.220787
 20
149.563526
 42
-0.007597
  0
VERTEX
  8
0
 10
153.962547
 20
163.637510
 42
-0.008126
  0
VERTEX
  8
0
 10
140.605977
 20
177.677542
 42
-0.010930
  0
VERTEX
  8
0
 10
129.003840
 20
190.843450
 42
-0.011067
  0
VERTEX
  8
0
 10
118.101103
 20
204.371415
 42
-0.008678
  0
VERTEX
  8
0
 10
106.863868
 20
219.500000
 42
-0.048024
  0
VERTEX
  8
0
 10
63.287944
 20
294.639190
 42
-0.047197
  0
VERTEX
  8
0
 10
34.544123
 20
377.144473
 42
-0.047175
  0
VERTEX
  8
0
 10
21.773273
 20
463.613191
 42
-0.047887
  0
VERTEX
  8
0
 10
25.541954
 20
550.500000
 42
-0.015520
  0
VERTEX
  8
0
 10
30.113204
 20
577.116647
 42
-0.014230
  0
VERTEX
  8
0
 10
36.439560
 20
604.187067
 42
-0.014171
  0
VERTEX
  8
0
 10
44.327107
 20
630.972381
 42
-0.015041
  0
VERTEX
  8
0
 10
53.579497
 20
656.734620
 42
-0.013035
  0
VERTEX
  8
0
 10
58.992118
 20
669.502963
 42
-0.005680
  0
VERTEX
  8
0
 10
66.809624
 20
686.178693
 42
-0.005700
  0
VERTEX
  8
0
 10
75.070365
 20
702.804540
 42
-0.011944
  0
VERTEX
  8
0
 10
81.947045
 20
715.500000
 42
-0.028738
  0
VERTEX
  8
0
 10
108.629252
 20
756.424629
 42
-0.026018
  0
VERTEX
  8
0
 10
140.671080
 20
795.465265
 42
-0.025998
  0
VERTEX
  8
0
 10
176.622702
 20
830.997648
 42
-0.028571
  0
VERTEX
  8
0
 10
215.000000
 20
861.428651
 42
-0.030432
  0
VERTEX
  8
0
 10
264.404767
 20
891.885892
 42
-0.032059
  0
VERTEX
  8
0
 10
316.307762
 20
915.533495
 42
-0.032054
  0
VERTEX
  8
0
 10
370.816429
 20
932.354949
 42
-0.030400
  0
VERTEX
  8
0
 10
428.000000
 20
942.433858
 42
-0.004289
  0
VERTEX
  8
0
 10
441.599408
 20
943.868504
 42
-0.014924
  0
VERTEX
  8
0
 10
450.414175
 20
944.457146
 42
-0.009905
  0
VERTEX
  8
0
 10
460.833457
 20
944.634545
 42
-0.001114
  0
VERTEX
  8
0
 10
484.500000
 20
944.515919
 42
-0.002225
  0
VERTEX
  8
0
 10
504.282306
 20
944.284661
 42
-0.009406
  0
VERTEX
  8
0
 10
516.130601
 20
943.870373
 42
-0.012806
  0
VERTEX
  8
0
 10
526.103665
 20
943.077097
 42
-0.007047
  0
SEQEND
  0
POLYLINE
  8
0
 66
1
 70
1
  0
VERTEX
  8
0
 10
451.000000
 20
934.928477
 42
0.028848
  0
VERTEX
  8
0
 10
394.133099
 20
927.355709
 42
0.030905
  0
VERTEX
  8
0
 10
339.839314
 20
913.384682
 42
0.031188
  0
VERTEX
  8
0
 10
288.134857
 20
892.972306
 42
0.030553
  0
VERTEX
  8
0
 10
239.000000
 20
866.164906
 42
0.041807
  0
VERTEX
  8
0
 10
179.158546
 20
821.227598
 42
0.041112
  0
VERTEX
  8
0
 10
127.260248
 20
766.727600
 42
0.041094
  0
VERTEX
  8
0
 10
84.958607
 20
704.446184
 42
0.041690
  0
VERTEX
  8
0
 10
53.645346
 20
636.376985
 42
0.016695
  0
VERTEX
  8
0
 10
44.231582
 20
607.431672
 42
0.017146
  0
VERTEX
  8
0
 10
36.862489
 20
578.176948
 42
0.017034
  0
VERTEX
  8
0
 10
31.475370
 20
548.302473
 42
0.015999
  0
VERTEX
  8
0
 10
28.000157
 20
517.500000
 42
0.014126
  0
VERTEX
  8
0
 10
27.304098
 20
504.152658
 42
0.004220
  0
VERTEX
  8
0
 10
26.989891
 20
483.768339
 42
0.004085
  0
VERTEX
  8
0
 10
27.014135
 20
463.524609
 42
0.016562
  0
VERTEX
  8
0
 10
27.537882
 20
451.205253
 42
0.024279
  0
VERTEX
  8
0
 10
33.639964
 20
402.309985
 42
0.027034
  0
VERTEX
  8
0
 10
44.327073
 20
355.990853
 42
0.027367
  0
VERTEX
  8
0
 10
59.804828
 20
311.606504
 42
0.026187
  0
VERTEX
  8
0
 10
80.236552
 20
268.500000
 42
0.047652
  0
VERTEX
  8
0
 10
127.765569
 20
197.546411
 42
0.047536
  0
VERTEX
  8
0
 10
187.902523
 20
136.810522
 42
0.047585
  0
VERTEX
  8
0
 10
258.365730
 20
88.577715
 42
0.047951
  0
VERTEX
  8
0
 10
336.500000
 20
54.680498
 42
0.027654
  0
VERTEX
  8
0
 10
385.556568
 20
41.724588
 42
0.027566
  0
VERTEX
  8
0
 10
435.795435
 20
34.245029
 42
0.027657
  0
VERTEX
  8
0
 10
486.387651
 20
32.353192
 42
0.028281
  0
VERTEX
  8
0
 10
536.500000
 20
36.091971
 42
0.035958
  0
VERTEX
  8
0
 10
603.299773
 20
49.834834
 42
0.036999
  0
VERTEX
  8
0
 10
666.783314
 20
72.918279
 42
0.037123
  0
VERTEX
  8
0
 10
725.977224
 20
105.020228
 42
0.036725
  0
VERTEX
  8
0
 10
780.000000
 20
145.626297
 42
0.013538
  0
VERTEX
  8
0
 10
791.489826
 20
156.224334
 42
0.005343
  0
VERTEX
  8
0
 10
806.739391
 20
171.395018
 42
0.005241
  0
VERTEX
  8
0
 10
821.488503
 20
186.702485
 42
0.016028
  0
VERTEX
  8
0
 10
831.040890
 20
197.500000
 42
0.052743
  0
VERTEX
  8
0
 10
884.771503
 20
278.297885
 42
0.054429
  0
VERTEX
  8
0
 10
919.732598
 20
367.716231
 42
0.054418
  0
VERTEX
  8
0
 10
934.578926
 20
462.588282
 42
0.052684
  0
VERTEX
  8
0
 10
928.876753
 20
559.500000
 42
0.022312
  0
VERTEX
  8
0
 10
921.200205
 20
595.754569
 42
0.020881
  0
VERTEX
  8
0
 10
910.183547
 20
632.005593
 42
0.020858
  0
VERTEX
  8
0
 10
896.167051
 20
667.252261
 42
0.022133
  0
VERTEX
  8
0
 10
879.509263
 20
700.500000
 42
0.048789
  0
VERTEX
  8
0
 10
828.345459
 20
774.296235
 42
0.049021
  0
VERTEX
  8
0
 10
763.925750
 20
836.650656
 42
0.049091
  0
VERTEX
  8
0
 10
688.692145
 20
885.196540
 42
0.049214
  0
VERTEX
  8
0
 10
605.500000
 20
918.096073
 42
0.011612
  0
VERTEX
  8
0
 10
585.005643
 20
923.438847
 42
0.011483
  0
VERTEX
  8
0
 10
564.209130
 20
927.846062
 42
0.011315
  0
VERTEX
  8
0
 10
542.932960
 20
931.350295
 42
0.010524
  0
VERTEX
  8
0
 10
521.000000
 20
933.985172
 42
0.016083
  0
VERTEX
  8
0
 10
506.843882
 20
934.925827
 42
0.005179
  0
VERTEX
  8
0
 10
485.809673
 20
935.427206
 42
0.005138
  0
VERTEX
  8
0
 10
464.830079
 20
935.494330
 42
0.016909
  0
SEQEND
  0
POLYLINE
  8
0
 66
1
 70
1
  0
VERTEX
  8
0
 10
529.000000
 20
923.564905
 42
-0.044270
  0
VERTEX
  8
0
 10
610.295077
 20
906.459180
 42
-0.046860
  0
VERTEX
  8
0
 10
685.694240
 20
875.507859
 42
-0.047072
  0
VERTEX
  8
0
 10
753.715288
 20
831.209328
 42
-0.045464
  0
VERTEX
  8
0
 10
813.119659
 20
774.500000
 42
-0.008208
  0
VERTEX
  8
0
 10
816.673095
 20
770.292521
 42
-0.006188
  0
VERTEX
  8
0
 10
820.443916
 20
765.557589
 42
-0.008736
  0
VERTEX
  8
0
 10
822.995819
 20
762.149257
 42
-0.913499
  0
VERTEX
  8
0
 10
822.824111
 20
762.000000
 42
-0.018375
  0
VERTEX
  8
0
 10
821.797230
 20
763.060773
 42
-0.000964
  0
VERTEX
  8
0
 10
818.640780
 20
766.584375
 42
-0.001521
  0
VERTEX
  8
0
 10
814.907315
 20
770.794017
 42
-0.001105
  0
VERTEX
  8
0
 10
810.777607
 20
775.500000
 42
0.044944
  0
VERTEX
  8
0
 10
755.948713
 20
827.916721
 42
0.043441
  0
VERTEX
  8
0
 10
692.035993
 20
870.364106
 42
0.043441
  0
VERTEX
  8
0
 10
621.750698
 20
901.129986
 42
0.044946
  0
VERTEX
  8
0
 10
548.000000
 20
918.861338
 42
0.005340
  0
VERTEX
  8
0
 10
529.600925
 20
921.368537
 42
0.013861
  0
VERTEX
  8
0
 10
516.286974
 20
922.664497
 42
0.013189
  0
VERTEX
  8
0
 10
502.550854
 20
923.254645
 42
0.004442
  0
VERTEX
  8
0
 10
482.500000
 20
923.408599
 42
0.006375
  0
VERTEX
  8
0
 10
460.736427
 20
923.104883
 42
0.013392
  0
VERTEX
  8
0
 10
443.849225
 20
922.200777
 42
0.014115
  0
VERTEX
  8
0
 10
427.602528
 20
920.431079
 42
0.007953
  0
VERTEX
  8
0
 10
408.000000
 20
917.415608
 42
0.049205
  0
VERTEX
  8
0
 10
327.117940
 20
895.303022
 42
0.047848
  0
VERTEX
  8
0
 10
251.305265
 20
857.663794
 42
0.047810
  0
VERTEX
  8
0
 10
183.975567
 20
806.267111
 42
0.048964
  0
VERTEX
  8
0
 10
128.227351
 20
743.393698
 42
0.032363
  0
VERTEX
  8
0
 10
98.342724
 20
696.027556
 42
0.032299
  0
VERTEX
  8
0
 10
74.798093
 20
645.169928
 42
0.031965
  0
VERTEX
  8
0
 10
57.798220
 20
591.188471
 42
0.030286
  0
VERTEX
  8
0
 10
47.445953
 20
534.500000
 42
0.018156
  0
VERTEX
  8
0
 10
46.099147
 20
518.459189
 42
0.006791
  0
VERTEX
  8
0
 10
45.334123
 20
495.883232
 42
0.006842
  0
VERTEX
  8
0
 10
45.183847
 20
473.142160
 42
0.016659
  0
VERTEX
  8
0
 10
45.860795
 20
456.391155
 42
0.037420
  0
VERTEX
  8
0
 10
55.961668
 20
388.877738
 42
0.039006
  0
VERTEX
  8
0
 10
75.939721
 20
324.587856
 42
0.038967
  0
VERTEX
  8
0
 10
105.682924
 20
264.123400
 42
0.037193
  0
VERTEX
  8
0
 10
144.858790
 20
208.000000
 42
0.019475
  0
VERTEX
  8
0
 10
160.908483
 20
189.800124
 42
0.012369
  0
VERTEX
  8
0
 10
180.914924
 20
169.833044
 42
0.012329
  0
VERTEX
  8
0
 10
202.032402
 20
150.742875
 42
0.018355
  0
VERTEX
  8
0
 10
221.500000
 20
135.203384
 42
0.064993
  0
VERTEX
  8
0
 10
320.695569
 20
80.088405
 42
0.065162
  0
VERTEX
  8
0
 10
430.627700
 20
52.345401
 42
0.065209
  0
VERTEX
  8
0
 10
543.925402
 20
53.837783
 42
0.065249
  0
VERTEX
  8
0
 10
652.992243
 20
84.459956
 42
0.053392
  0
VERTEX
  8
0
 10
734.709386
 20
130.245820
 42
0.053570
  0
VERTEX
  8
0
 10
804.777989
 20
192.252658
 42
0.053530
  0
VERTEX
  8
0
 10
860.117858
 20
267.776592
 42
0.053157
  0
VERTEX
  8
0
 10
898.316799
 20
353.500000
 42
0.019894
  0
VERTEX
  8
0
 10
907.429090
 20
386.020269
 42
0.020159
  0
VERTEX
  8
0
 10
913.881607
 20
419.019055
 42
0.019901
  0
VERTEX
  8
0
 10
917.719282
 20
452.838344
 42
0.018301
  0
VERTEX
  8
0
 10
919.000000
 20
487.816565
 42
0.013078
  0
VERTEX
  8
0
 10
918.253226
 20
516.362285
 42
0.017302
  0
VERTEX
  8
0
 10
915.996143
 20
542.267003
 42
0.017619
  0
VERTEX
  8
0
 10
911.996727
 20
567.572903
 42
0.014423
  0
VERTEX
  8
0
 10
905.996996
 20
594.299397
 42
-0.000327
  0
VERTEX
  8
0
 10
901.824942
 20
610.705829
 42
-0.007760
  0
VERTEX
  8
0
 10
900.724321
 20
615.347003
 42
-0.781357
  0
VERTEX
  8
0
 10
900.958181
 20
615.463329
 42
-0.082765
  0
VERTEX
  8
0
 10
901.536524
 20
614.500000
 42
-0.022071
  0
VERTEX
  8
0
 10
902.384476
 20
612.035626
 42
-0.002854
  0
VERTEX
  8
0
 10
903.933150
 20
606.681250
 42
-0.003325
  0
VERTEX
  8
0
 10
905.693089
 20
600.302139
 42
-0.002770
  0
VERTEX
  8
0
 10
907.480798
 20
593.500000
 42
-0.037542
  0
VERTEX
  8
0
 10
918.445763
 20
531.991746
 42
-0.035713
  0
VERTEX
  8
0
 10
920.349546
 20
468.488980
 42
-0.035553
  0
VERTEX
  8
0
 10
913.185313
 20
405.076424
 42
-0.036411
  0
VERTEX
  8
0
 10
897.132395
 20
343.837062
 42
-0.065479
  0
VERTEX
  8
0
 10
846.512963
 20
241.649299
 42
-0.065715
  0
VERTEX
  8
0
 10
771.243772
 20
156.165232
 42
-0.065543
  0
VERTEX
  8
0
 10
676.175058
 20
92.962779
 42
-0.064549
  0
VERTEX
  8
0
 10
567.500000
 20
56.115439
 42
-0.009472
  0
VERTEX
  8
0
 10
545.921087
 20
52.210303
 42
-0.017565
  0
VERTEX
  8
0
 10
528.262777
 20
49.992114
 42
-0.015920
  0
VERTEX
  8
0
 10
509.382292
 20
48.895824
 42
-0.006378
  0
VERTEX
  8
0
 10
483.500000
 20
48.548810
 42
-0.002248
  0
VERTEX
  8
0
 10
465.114185
 20
48.619506
 42
-0.006882
  0
VERTEX
  8
0
 10
452.652051
 20
48.895007
 42
-0.009772
  0
VERTEX
  8
0
 10
442.975016
 20
49.431763
 42
-0.012120
  0
VERTEX
  8
0
 10
434.000000
 20
50.324952
 42
-0.039342
  0
VERTEX
  8
0
 10
359.222209
 20
65.644840
 42
-0.042450
  0
VERTEX
  8
0
 10
289.729455
 20
92.244973
 42
-0.042930
  0
VERTEX
  8
0
 10
226.413643
 20
129.874423
 42
-0.042088
  0
VERTEX
  8
0
 10
170.000000
 20
177.988309
 42
-0.035181
  0
VERTEX
  8
0
 10
128.792111
 20
225.913776
 42
-0.036567
  0
VERTEX
  8
0
 10
95.293947
 20
278.552393
 42
-0.036259
  0
VERTEX
  8
0
 10
69.589471
 20
335.933964
 42
-0.033420
  0
VERTEX
  8
0
 10
51.617612
 20
398.000000
 42
-0.027374
  0
VERTEX
  8
0
 10
45.642186
 20
434.956069
 42
-0.020867
  0
VERTEX
  8
0
 10
43.026578
 20
475.870806
 42
-0.020631
  0
VERTEX
  8
0
 10
43.822947
 20
517.468248
 42
-0.024529
  0
VERTEX
  8
0
 10
48.111974
 20
556.500000
 42
-0.063686
  0
VERTEX
  8
0
 10
79.419904
 20
663.087622
 42
-0.063660
  0
VERTEX
  8
0
 10
136.547390
 20
758.381407
 42
-0.063522
  0
VERTEX
  8
0
 10
215.940876
 20
836.410318
 42
-0.062924
  0
VERTEX
  8
0
 10
312.622382
 20
892.303621
 42
-0.019479
  0
VERTEX
  8
0
 10
343.766626
 20
904.010023
 42
-0.019757
  0
VERTEX
  8
0
 10
375.582003
 20
913.195799
 42
-0.019358
  0
VERTEX
  8
0
 10
408.637556
 20
919.994897
 42
-0.017123
  0
VERTEX
  8
0
 10
443.500000
 20
924.549307
 42
-0.020156
  0
VERTEX
  8
0
 10
460.800902
 20
925.507968
 42
-0.006640
  0
VERTEX
  8
0
 10
486.281579
 20
925.553002
 42
-0.006638
  0
VERTEX
  8
0
 10
511.749937
 20
924.921564
 42
-0.020214
  0
SEQEND
  0
POLYLINE
  8
0
 66
1
 70
1
  0
VERTEX
  8
0
 10
826.500000
 20
758.000000
 42
-0.012939
  0
VERTEX
  8
0
 10
827.159597
 20
757.232121
 42
-0.025990
  0
VERTEX
  8
0
 10
827.631420
 20
756.587500
 42
-0.034935
  0
VERTEX
  8
0
 10
827.889734
 20
756.125730
 42
-0.549874
  0
VERTEX
  8
0
 10
827.809975
 20
756.000000
 42
-0.165568
  0
VERTEX
  8
0
 10
827.525997
 20
756.096686
 42
-0.014322
  0
VERTEX
  8
0
 10
826.925170
 20
756.587500
 42
-0.017642
  0
VERTEX
  8
0
 10
826.229731
 20
757.233916
 42
-0.012769
  0
VERTEX
  8
0
 10
825.500000
 20
758.000000
 42
-0.012939
  0
VERTEX
  8
0
 10
824.840403
 20
758.767879
 42
-0.025990
  0
VERTEX
  8
0
 10
824.368580
 20
759.412500
 42
-0.034935
  0
VERTEX
  8
0
 10
824.110266
 20
759.874270
 42
-0.549874
  0
VERTEX
  8
0
 10
824.190025
 20
760.000000
 42
-0.165568
  0
VERTEX
  8
0
 10
824.474003
 20
759.903314
 42
-0.014322
  0
VERTEX
  8
0
 10
825.074830
 20
759.412500
 42
-0.017642
  0
VERTEX
  8
0
 10
825.770269
 20
758.766084
 42
-0.012769
  0
SEQEND
  0
POLYLINE
  8
0
 66
1
 70
1
  0
VERTEX
  8
0
 10
357.847315
 20
754.418588
 42
-0.035198
  0
VERTEX
  8
0
 10
363.290777
 20
752.778173
 42
-0.015684
  0
VERTEX
  8
0
 10
370.208981
 20
749.898510
 42
-0.014541
  0
VERTEX
  8
0
 10
376.704438
 20
746.721693
 42
-0.061737
  0
VERTEX
  8
0
 10
380.250000
 20
744.257996
 42
-0.080872
  0
VERTEX
  8
0
 10
381.422168
 20
742.804955
 42
-0.107127
  0
VERTEX
  8
0
 10
381.929415
 20
741.187990
 42
-0.115143
  0
VERTEX
  8
0
 10
381.706866
 20
739.594170
 42
-0.104727
  0
VERTEX
  8
0
 10
380.800000
 20
738.200000
 42
-0.131888
  0
VERTEX
  8
0
 10
379.210930
 20
737.283530
 42
-0.116167
  0
VERTEX
  8
0
 10
377.293703
 20
737.226808
 42
-0.059033
  0
VERTEX
  8
0
 10
374.549908
 20
738.135008
 42
-0.012073
  0
VERTEX
  8
0
 10
369.967275
 20
740.415313
 42
0.024309
  0
VERTEX
  8
0
 10
362.579416
 20
743.868668
 42
0.039610
  0
VERTEX
  8
0
 10
355.991196
 20
745.975228
 42
0.037665
  0
VERTEX
  8
0
 10
348.921257
 20
747.079942
 42
0.019616
  0
VERTEX
  8
0
 10
340.000000
 20
747.441286
 42
0.024289
  0
VERTEX
  8
0
 10
330.481315
 20
746.990585
 42
0.040079
  0
VERTEX
  8
0
 10
322.558162
 20
745.581555
 42
0.043506
  0
VERTEX
  8
0
 10
315.434173
 20
743.036908
 42
0.035957
  0
VERTEX
  8
0
 10
308.364387
 20
739.157118
 42
0.033749
  0
VERTEX
  8
0
 10
301.241542
 20
733.839845
 42
0.040320
  0
VERTEX
  8
0
 10
295.343574
 20
727.895287
 42
0.039419
  0
VERTEX
  8
0
 10
290.373755
 20
720.964247
 42
0.029997
  0
VERTEX
  8
0
 10
286.030034
 20
712.687448
 42
0.025449
  0
VERTEX
  8
0
 10
283.666606
 20
706.637661
 42
0.031757
  0
VERTEX
  8
0
 10
282.127542
 20
700.806458
 42
0.029855
  0
VERTEX
  8
0
 10
281.277579
 20
694.542428
 42
0.018796
  0
VERTEX
  8
0
 10
281.000000
 20
687.160878
 42
0.094096
  0
VERTEX
  8
0
 10
285.292077
 20
664.556014
 42
0.105067
  0
VERTEX
  8
0
 10
297.516928
 20
646.084730
 42
0.103642
  0
VERTEX
  8
0
 10
316.351827
 20
634.005828
 42
0.089296
  0
VERTEX
  8
0
 10
339.500000
 20
629.660179
 42
0.033296
  0
VERTEX
  8
0
 10
347.809680
 20
630.151991
 42
0.040435
  0
VERTEX
  8
0
 10
355.443283
 20
631.751207
 42
0.041228
  0
VERTEX
  8
0
 10
362.596654
 20
634.523644
 42
0.037062
  0
VERTEX
  8
0
 10
369.471671
 20
638.517228
 42
-0.015349
  0
VERTEX
  8
0
 10
373.960527
 20
641.392148
 42
-0.064309
  0
VERTEX
  8
0
 10
376.893820
 20
642.668792
 42
-0.122043
  0
VERTEX
  8
0
 10
379.033393
 20
642.752649
 42
-0.146455
  0
VERTEX
  8
0
 10
380.800000
 20
641.800000
 42
-0.130685
  0
VERTEX
  8
0
 10
381.793300
 20
640.087089
 42
-0.157548
  0
VERTEX
  8
0
 10
381.706438
 20
638.237281
 42
-0.099437
  0
VERTEX
  8
0
 10
380.402514
 20
636.146696
 42
-0.033253
  0
VERTEX
  8
0
 10
377.750000
 20
633.683445
 42
-0.081939
  0
VERTEX
  8
0
 10
362.394243
 20
624.923392
 42
-0.072706
  0
VERTEX
  8
0
 10
344.385160
 20
621.089465
 42
-0.068902
  0
VERTEX
  8
0
 10
325.147902
 20
622.496015
 42
-0.061629
  0
VERTEX
  8
0
 10
306.222337
 20
629.056301
 42
-0.041185
  0
VERTEX
  8
0
 10
297.966179
 20
633.995206
 42
-0.043261
  0
VERTEX
  8
0
 10
290.776607
 20
640.148562
 42
-0.042470
  0
VERTEX
  8
0
 10
284.642864
 20
647.557017
 42
-0.037036
  0
VERTEX
  8
0
 10
279.529459
 20
656.232051
 42
-0.025647
  0
VERTEX
  8
0
 10
275.740422
 20
665.014743
 42
-0.037847
  0
VERTEX
  8
0
 10
273.418390
 20
673.079032
 42
-0.037796
  0
VERTEX
  8
0
 10
272.336578
 20
681.409323
 42
-0.025486
  0
VERTEX
  8
0
 10
272.311412
 20
691.000000
 42
-0.103489
  0
VERTEX
  8
0
 10
280.090475
 20
720.893241
 42
-0.118545
  0
VERTEX
  8
0
 10
298.999791
 20
743.488819
 42
-0.116991
  0
VERTEX
  8
0
 10
326.334713
 20
755.209518
 42
-0.098941
  0
SEQEND
  0
POLYLINE
  8
0
 66
1
 70
1
  0
VERTEX
  8
0
 10
477.800482
 20
753.912173
 42
-0.052786
  0
VERTEX
  8
0
 10
490.307533
 20
749.283546
 42
-0.053240
  0
VERTEX
  8
0
 10
501.529266
 20
742.149124
 42
-0.053857
  0
VERTEX
  8
0
 10
510.879466
 20
732.893856
 42
-0.056599
  0
VERTEX
  8
0
 10
517.859210
 20
722.000000
 42
-0.059068
  0
VERTEX
  8
0
 10
523.265236
 20
706.655723
 42
-0.055606
  0
VERTEX
  8
0
 10
525.081975
 20
690.152029
 42
-0.055315
  0
VERTEX
  8
0
 10
523.217520
 20
673.571192
 42
-0.057201
  0
VERTEX
  8
0
 10
517.765903
 20
658.000000
 42
-0.046982
  0
VERTEX
  8
0
 10
512.602677
 20
649.482233
 42
-0.035078
  0
VERTEX
  8
0
 10
505.448468
 20
641.141421
 42
-0.035251
  0
VERTEX
  8
0
 10
497.252977
 20
633.935605
 42
-0.049507
  0
VERTEX
  8
0
 10
488.964111
 20
628.832860
 42
-0.021741
  0
VERTEX
  8
0
 10
480.741287
 20
625.264696
 42
-0.036813
  0
VERTEX
  8
0
 10
473.556122
 20
623.102196
 42
-0.035679
  0
VERTEX
  8
0
 10
465.976031
 20
621.976552
 42
-0.019026
  0
VERTEX
  8
0
 10
456.500000
 20
621.615839
 42
-0.035210
  0
VERTEX
  8
0
 10
442.343971
 20
622.613953
 42
-0.057222
  0
VERTEX
  8
0
 10
430.693574
 20
625.652187
 42
-0.059873
  0
VERTEX
  8
0
 10
420.405325
 20
631.126920
 42
-0.042963
  0
VERTEX
  8
0
 10
410.388841
 20
639.469944
 42
-0.012097
  0
VERTEX
  8
0
 10
406.093818
 20
643.932869
 42
-0.026463
  0
VERTEX
  8
0
 10
403.077788
 20
647.593718
 42
-0.028988
  0
VERTEX
  8
0
 10
400.635631
 20
651.335519
 42
-0.017739
  0
VERTEX
  8
0
 10
398.178634
 20
656.000000
 42
-0.023745
  0
VERTEX
  8
0
 10
394.453594
 20
664.765088
 42
-0.039645
  0
VERTEX
  8
0
 10
392.277382
 20
672.474243
 42
-0.037885
  0
VERTEX
  8
0
 10
391.287635
 20
680.672302
 42
-0.019598
  0
VERTEX
  8
0
 10
391.233693
 20
691.000000
 42
-0.007404
  0
VERTEX
  8
0
 10
391.594063
 20
698.382650
 42
-0.028619
  0
VERTEX
  8
0
 10
392.146588
 20
702.934093
 42
-0.033665
  0
VERTEX
  8
0
 10
393.169520
 20
707.019670
 42
-0.013205
  0
VERTEX
  8
0
 10
395.102238
 20
712.500000
 42
-0.021683
  0
VERTEX
  8
0
 10
398.360063
 20
720.020010
 42
-0.029231
  0
VERTEX
  8
0
 10
401.983710
 20
726.488866
 42
-0.030086
  0
VERTEX
  8
0
 10
406.246177
 20
732.344589
 42
-0.025268
  0
VERTEX
  8
0
 10
411.422989
 20
738.015333
 42
-0.068872
  0
VERTEX
  8
0
 10
425.202400
 20
748.335832
 42
-0.067667
  0
VERTEX
  8
0
 10
441.348236
 20
754.601774
 42
-0.065057
  0
VERTEX
  8
0
 10
459.154000
 20
756.480695
 42
-0.056104
  0
SEQEND
  0
POLYLINE
  8
0
 66
1
 70
1
  0
VERTEX
  8
0
 10
246.175670
 20
753.277686
 42
-0.047299
  0
VERTEX
  8
0
 10
250.740835
 20
750.684624
 42
-0.033047
  0
VERTEX
  8
0
 10
255.357620
 20
746.972821
 42
-0.030164
  0
VERTEX
  8
0
 10
259.052055
 20
743.141823
 42
-0.178599
  0
VERTEX
  8
0
 10
260.000000
 20
740.572640
 42
-0.124961
  0
VERTEX
  8
0
 10
259.276849
 20
737.724326
 42
-0.211414
  0
VERTEX
  8
0
 10
257.360812
 20
736.246971
 42
-0.176947
  0
VERTEX
  8
0
 10
254.680685
 20
736.543319
 42
-0.089999
  0
VERTEX
  8
0
 10
251.924314
 20
738.595162
 42
0.047348
  0
VERTEX
  8
0
 10
248.810423
 20
741.352794
 42
0.034794
  0
VERTEX
  8
0
 10
244.903058
 20
743.805839
 42
0.033715
  0
VERTEX
  8
0
 10
240.538736
 20
745.773942
 42
0.036261
  0
VERTEX
  8
0
 10
236.053294
 20
747.081991
 42
0.131734
  0
VERTEX
  8
0
 10
223.349952
 20
746.437405
 42
0.150934
  0
VERTEX
  8
0
 10
213.434332
 20
739.473720
 42
0.148614
  0
VERTEX
  8
0
 10
209.077919
 20
728.033931
 42
0.126805
  0
VERTEX
  8
0
 10
211.441056
 20
715.299014
 42
0.054544
  0
VERTEX
  8
0
 10
214.347891
 20
710.501187
 42
0.034566
  0
VERTEX
  8
0
 10
218.677264
 20
705.592850
 42
0.023657
  0
VERTEX
  8
0
 10
225.178878
 20
699.755912
 42
0.007836
  0
VERTEX
  8
0
 10
235.241533
 20
691.806567
 42
-0.011338
  0
VERTEX
  8
0
 10
244.125374
 20
684.686838
 42
-0.027668
  0
VERTEX
  8
0
 10
250.239320
 20
678.949769
 42
-0.036577
  0
VERTEX
  8
0
 10
254.551159
 20
673.712034
 42
-0.045430
  0
VERTEX
  8
0
 10
257.711874
 20
668.252973
 42
-0.083291
  0
VERTEX
  8
0
 10
260.479078
 20
658.169182
 42
-0.075057
  0
VERTEX
  8
0
 10
259.957047
 20
647.347828
 42
-0.076444
  0
VERTEX
  8
0
 10
256.297434
 20
637.341732
 42
-0.092279
  0
VERTEX
  8
0
 10
249.959409
 20
629.619298
 42
-0.097031
  0
VERTEX
  8
0
 10
238.577748
 20
623.311757
 42
-0.090629
  0
VERTEX
  8
0
 10
225.372142
 20
621.560698
 42
-0.088290
  0
VERTEX
  8
0
 10
212.108037
 20
624.597322
 42
-0.086095
  0
VERTEX
  8
0
 10
200.574854
 20
632.037767
 42
-0.035967
  0
VERTEX
  8
0
 10
197.643030
 20
635.158594
 42
-0.096879
  0
VERTEX
  8
0
 10
196.219375
 20
637.833307
 42
-0.152255
  0
VERTEX
  8
0
 10
196.233485
 20
640.102273
 42
-0.143387
  0
VERTEX
  8
0
 10
197.529614
 20
642.024577
 42
-0.164290
  0
VERTEX
  8
0
 10
199.087796
 20
642.623664
 42
-0.113788
  0
VERTEX
  8
0
 10
200.958753
 20
642.273113
 42
-0.055305
  0
VERTEX
  8
0
 10
203.558658
 20
640.776503
 42
-0.011651
  0
VERTEX
  8
0
 10
207.717689
 20
637.574482
 42
0.044560
  0
VERTEX
  8
0
 10
211.980619
 20
634.718020
 42
0.031220
  0
VERTEX
  8
0
 10
217.216472
 20
632.260272
 42
0.031717
  0
VERTEX
  8
0
 10
222.503528
 20
630.548925
 42
0.062489
  0
VERTEX
  8
0
 10
226.878582
 20
630.000000
 42
0.082967
  0
VERTEX
  8
0
 10
236.355916
 20
631.583515
 42
0.100714
  0
VERTEX
  8
0
 10
244.104109
 20
636.142700
 42
0.102218
  0
VERTEX
  8
0
 10
249.374972
 20
643.304564
 42
0.087882
  0
VERTEX
  8
0
 10
251.741417
 20
652.367371
 42
0.084802
  0
VERTEX
  8
0
 10
251.002576
 20
660.637684
 42
0.090754
  0
VERTEX
  8
0
 10
247.552092
 20
667.980099
 42
0.057348
  0
VERTEX
  8
0
 10
240.314947
 20
675.987837
 42
0.015157
  0
VERTEX
  8
0
 10
227.000000
 20
687.000000
 42
-0.017382
  0
VERTEX
  8
0
 10
213.223385
 20
698.497580
 42
-0.061054
  0
VERTEX
  8
0
 10
205.632250
 20
707.177004
 42
-0.086836
  0
VERTEX
  8
0
 10
201.801945
 20
715.676006
 42
-0.062915
  0
VERTEX
  8
0
 10
200.509768
 20
726.000000
 42
-0.031830
  0
VERTEX
  8
0
 10
200.955083
 20
732.863888
 42
-0.058388
  0
VERTEX
  8
0
 10
202.312914
 20
738.293124
 42
-0.063639
  0
VERTEX
  8
0
 10
204.787565
 20
742.945841
 42
-0.045858
  0
VERTEX
  8
0
 10
208.614088
 20
747.419604
 42
-0.038473
  0
VERTEX
  8
0
 10
213.849032
 20
751.781342
 42
-0.071522
  0
VERTEX
  8
0
 10
218.753340
 20
754.303177
 42
-0.064610
  0
VERTEX
  8
0
 10
224.502945
 20
755.487304
 42
-0.026337
  0
VERTEX
  8
0
 10
232.500000
 20
755.658530
 42
-0.012046
  0
VERTEX
  8
0
 10
236.963054
 20
755.411272
 42
-0.023237
  0
VERTEX
  8
0
 10
240.512580
 20
754.962009
 42
-0.028181
  0
VERTEX
  8
0
 10
243.489601
 20
754.268998
 42
-0.034258
  0
SEQEND
  0
POLYLINE
  8
0
 66
1
 70
1
  0
VERTEX
  8
0
 10
543.428571
 20
753.428571
 42
-0.175033
  0
VERTEX
  8
0
 10
544.339143
 20
751.488576
 42
-0.013145
  0
VERTEX
  8
0
 10
544.729313
 20
745.585372
 42
-0.008807
  0
VERTEX
  8
0
 10
544.951488
 20
735.531437
 42
-0.001120
  0
VERTEX
  8
0
 10
545.000000
 20
713.875977
 42
0.001559
  0
VERTEX
  8
0
 10
545.063507
 20
693.507070
 42
0.007320
  0
VERTEX
  8
0
 10
545.307941
 20
681.800066
 42
0.012480
  0
VERTEX
  8
0
 10
545.773466
 20
674.111753
 42
0.033515
  0
VERTEX
  8
0
 10
546.605280
 20
668.697405
 42
0.045354
  0
VERTEX
  8
0
 10
550.248383
 20
657.327835
 42
0.057730
  0
VERTEX
  8
0
 10
555.679721
 20
647.754651
 42
0.060820
  0
VERTEX
  8
0
 10
562.887343
 20
640.062462
 42
0.059398
  0
VERTEX
  8
0
 10
571.788457
 20
634.259181
 42
0.013757
  0
VERTEX
  8
0
 10
576.794161
 20
631.953813
 42
0.054983
  0
VERTEX
  8
0
 10
580.020066
 20
630.976306
 42
0.040833
  0
VERTEX
  8
0
 10
583.805328
 20
630.586005
 42
0.005282
  0
VERTEX
  8
0
 10
591.946506
 20
630.500000
 42
0.005357
  0
VERTEX
  8
0
 10
599.746656
 20
630.583580
 42
0.035111
  0
VERTEX
  8
0
 10
603.640954
 20
630.941388
 42
0.051621
  0
VERTEX
  8
0
 10
606.798671
 20
631.798223
 42
0.019552
  0
VERTEX
  8
0
 10
611.000000
 20
633.610357
 42
0.034337
  0
VERTEX
  8
0
 10
617.622173
 20
637.357774
 42
0.048647
  0
VERTEX
  8
0
 10
622.880328
 20
641.617017
 42
0.048824
  0
VERTEX
  8
0
 10
627.202794
 20
646.799290
 42
0.034929
  0
VERTEX
  8
0
 10
631.006958
 20
653.325112
 42
0.039351
  0
VERTEX
  8
0
 10
634.882906
 20
663.049264
 42
0.046950
  0
VERTEX
  8
0
 10
636.908559
 20
672.704569
 42
0.024650
  0
VERTEX
  8
0
 10
637.796141
 20
686.624757
 42
0.003597
  0
VERTEX
  8
0
 10
638.000000
 20
714.965523
 42
-0.001181
  0
VERTEX
  8
0
 10
638.049578
 20
735.963795
 42
-0.008341
  0
VERTEX
  8
0
 10
638.268002
 20
746.166784
 42
-0.010275
  0
VERTEX
  8
0
 10
638.630283
 20
752.338075
 42
-0.202420
  0
VERTEX
  8
0
 10
639.487014
 20
753.989223
 42
-0.147172
  0
VERTEX
  8
0
 10
641.357968
 20
754.781302
 42
-0.110138
  0
VERTEX
  8
0
 10
643.594989
 20
754.531605
 42
-0.108880
  0
VERTEX
  8
0
 10
645.533955
 20
753.349589
 42
-0.141057
  0
VERTEX
  8
0
 10
646.575043
 20
751.557028
 42
-0.059892
  0
VERTEX
  8
0
 10
646.808827
 20
749.715310
 42
-0.000833
  0
VERTEX
  8
0
 10
646.864650
 20
738.449153
 42
-0.002322
  0
VERTEX
  8
0
 10
646.846922
 20
725.375276
 42
-0.001526
  0
VERTEX
  8
0
 10
646.710660
 20
710.322258
 42
-0.002619
  0
VERTEX
  8
0
 10
646.255580
 20
684.080487
 42
-0.017947
  0
VERTEX
  8
0
 10
645.500668
 20
671.183433
 42
-0.035056
  0
VERTEX
  8
0
 10
644.042508
 20
662.396097
 42
-0.034764
  0
VERTEX
  8
0
 10
641.368455
 20
653.873224
 42
-0.091719
  0
VERTEX
  8
0
 10
631.257956
 20
637.618781
 42
-0.095375
  0
VERTEX
  8
0
 10
616.122648
 20
626.320544
 42
-0.093079
  0
VERTEX
  8
0
 10
597.550323
 20
621.271377
 42
-0.082742
  0
VERTEX
  8
0
 10
577.585440
 20
622.978148
 42
-0.026424
  0
VERTEX
  8
0
 10
570.358001
 20
625.239416
 42
-0.038881
  0
VERTEX
  8
0
 10
564.323547
 20
628.034612
 42
-0.039761
  0
VERTEX
  8
0
 10
558.893853
 20
631.677841
 42
-0.029429
  0
VERTEX
  8
0
 10
553.500000
 20
636.498152
 42
-0.031995
  0
VERTEX
  8
0
 10
548.748729
 20
641.929796
 42
-0.033708
  0
VERTEX
  8
0
 10
544.819017
 20
647.833047
 42
-0.032257
  0
VERTEX
  8
0
 10
541.580091
 20
654.446037
 42
-0.024971
  0
VERTEX
  8
0
 10
538.896819
 20
662.007116
 42
-0.034385
  0
VERTEX
  8
0
 10
537.600773
 20
667.739865
 42
-0.024670
  0
VERTEX
  8
0
 10
536.916940
 20
674.274512
 42
-0.010226
  0
VERTEX
  8
0
 10
536.551338
 20
684.871272
 42
-0.001027
  0
VERTEX
  8
0
 10
536.248159
 20
710.170285
 42
-0.001578
  0
VERTEX
  8
0
 10
536.119832
 20
729.115133
 42
-0.005051
  0
VERTEX
  8
0
 10
536.201750
 20
741.746994
 42
-0.003276
  0
VERTEX
  8
0
 10
536.413085
 20
750.878853
 42
-0.115942
  0
VERTEX
  8
0
 10
536.957338
 20
752.920285
 42
-0.116955
  0
VERTEX
  8
0
 10
538.194568
 20
754.318894
 42
-0.134632
  0
VERTEX
  8
0
 10
539.866300
 20
754.921630
 42
-0.124580
  0
VERTEX
  8
0
 10
541.713344
 20
754.605525
 42
-0.092265
  0
SEQEND
  0
POLYLINE
  8
0
 66
1
 70
1
  0
VERTEX
  8
0
 10
762.428571
 20
753.428571
 42
-0.036773
  0
VERTEX
  8
0
 10
763.572579
 20
752.102667
 42
-0.160237
  0
VERTEX
  8
0
 10
763.895063
 20
751.131496
 42
-0.132199
  0
VERTEX
  8
0
 10
763.607635
 20
750.051225
 42
-0.022027
  0
VERTEX
  8
0
 10
762.443296
 20
748.222506
 42
-0.150564
  0
VERTEX
  8
0
 10
760.765405
 20
746.917863
 42
-0.068444
  0
VERTEX
  8
0
 10
758.027787
 20
746.290302
 42
-0.020810
  0
VERTEX
  8
0
 10
752.746909
 20
746.041632
 42
-0.001360
  0
VERTEX
  8
0
 10
737.443296
 20
746.000000
 42
0.000000
  0
VERTEX
  8
0
 10
714.000000
 20
746.000000
 42
0.000000
  0
VERTEX
  8
0
 10
714.000000
 20
685.622445
 42
-0.000812
  0
VERTEX
  8
0
 10
713.927966
 20
641.266184
 42
-0.021183
  0
VERTEX
  8
0
 10
713.383310
 20
629.332187
 42
-0.126416
  0
VERTEX
  8
0
 10
711.727371
 20
624.642917
 42
-0.316401
  0
VERTEX
  8
0
 10
708.512986
 20
623.407385
 42
0.000000
  0
VERTEX
  8
0
 10
706.000000
 20
624.038104
 42
0.000000
  0
VERTEX
  8
0
 10
706.000000
 20
685.019052
 42
0.000000
  0
VERTEX
  8
0
 10
706.000000
 20
746.000000
 42
0.000000
  0
VERTEX
  8
0
 10
682.571429
 20
746.000000
 42
-0.002053
  0
VERTEX
  8
0
 10
669.567868
 20
746.053396
 42
-0.013641
  0
VERTEX
  8
0
 10
663.086593
 20
746.283537
 42
-0.023925
  0
VERTEX
  8
0
 10
659.262607
 20
746.708263
 42
-0.158032
  0
VERTEX
  8
0
 10
657.571429
 20
747.571429
 42
-0.083766
  0
VERTEX
  8
0
 10
656.502244
 20
749.074612
 42
-0.098202
  0
VERTEX
  8
0
 10
656.061067
 20
750.764707
 42
-0.104542
  0
VERTEX
  8
0
 10
656.307965
 20
752.412105
 42
-0.107488
  0
VERTEX
  8
0
 10
657.200000
 20
753.800000
 42
-0.190536
  0
VERTEX
  8
0
 10
658.689279
 20
754.445234
 42
-0.002349
  0
VERTEX
  8
0
 10
669.310907
 20
754.738288
 42
-0.004622
  0
VERTEX
  8
0
 10
684.437140
 20
754.944626
 42
-0.001099
  0
VERTEX
  8
0
 10
709.628571
 20
755.000000
 42
-0.000787
  0
VERTEX
  8
0
 10
739.172209
 20
754.953485
 42
-0.006651
  0
VERTEX
  8
0
 10
752.472480
 20
754.734663
 42
-0.008423
  0
VERTEX
  8
0
 10
760.351302
 20
754.367259
 42
-0.182475
  0
SEQEND
  0
POLYLINE
  8
0
 66
1
 70
1
  0
VERTEX
  8
0
 10
832.146806
 20
750.750000
 42
-0.008774
  0
VERTEX
  8
0
 10
833.314987
 20
749.196823
 42
-0.032757
  0
VERTEX
  8
0
 10
833.965784
 20
748.162973
 42
-0.345982
  0
VERTEX
  8
0
 10
833.923912
 20
747.918830
 42
-0.366666
  0
VERTEX
  8
0
 10
833.684155
 20
747.911186
 42
-0.047320
  0
VERTEX
  8
0
 10
832.050661
 20
749.481202
 42
-0.016343
  0
VERTEX
  8
0
 10
829.995429
 20
752.033369
 42
-0.009887
  0
VERTEX
  8
0
 10
828.139749
 20
754.602685
 42
-0.605059
  0
VERTEX
  8
0
 10
828.347876
 20
755.000000
 42
-0.208258
  0
VERTEX
  8
0
 10
828.641325
 20
754.872233
 42
-0.005022
  0
VERTEX
  8
0
 10
829.663489
 20
753.751562
 42
-0.010137
  0
VERTEX
  8
0
 10
830.841359
 20
752.378814
 42
-0.006615
  0
SEQEND
  0
POLYLINE
  8
0
 66
1
 70
1
  0
VERTEX
  8
0
 10
841.000000
 20
738.500000
 42
-0.007084
  0
VERTEX
  8
0
 10
842.152090
 20
736.773615
 42
-0.012760
  0
VERTEX
  8
0
 10
843.039732
 20
735.321875
 42
-0.007839
  0
VERTEX
  8
0
 10
843.688808
 20
734.154888
 42
-0.566836
  0
VERTEX
  8
0
 10
843.596081
 20
734.000000
 42
-0.222204
  0
VERTEX
  8
0
 10
843.301167
 20
734.137869
 42
-0.005495
  0
VERTEX
  8
0
 10
842.333482
 20
735.321875
 42
-0.010846
  0
VERTEX
  8
0
 10
841.222766
 20
736.775338
 42
-0.007047
  0
VERTEX
  8
0
 10
840.000000
 20
738.500000
 42
-0.007084
  0
VERTEX
  8
0
 10
838.847910
 20
740.226385
 42
-0.012760
  0
VERTEX
  8
0
 10
837.960268
 20
741.678125
 42
-0.007839
  0
VERTEX
  8
0
 10
837.311192
 20
742.845112
 42
-0.566836
  0
VERTEX
  8
0
 10
837.403919
 20
743.000000
 42
-0.222204
  0
VERTEX
  8
0
 10
837.698833
 20
742.862131
 42
-0.005495
  0
VERTEX
  8
0
 10
838.666518
 20
741.678125
 42
-0.010846
  0
VERTEX
  8
0
 10
839.777234
 20
740.224662
 42
-0.007047
  0
SEQEND
  0
POLYLINE
  8
0
 66
1
 70
1
  0
VERTEX
  8
0
 10
859.128441
 20
710.500000
 42
0.000000
  0
VERTEX
  8
0
 10
860.110332
 20
708.500000
 42
0.000000
  0
VERTEX
  8
0
 10
858.481892
 20
710.500000
 42
-0.015847
  0
VERTEX
  8
0
 10
857.786721
 20
711.411306
 42
-0.010446
  0
VERTEX
  8
0
 10
857.043375
 20
712.500000
 42
-0.010515
  0
VERTEX
  8
0
 10
856.364094
 20
713.590339
 42
-0.019941
  0
VERTEX
  8
0
 10
855.871559
 20
714.500000
 42
0.000000
  0
VERTEX
  8
0
 10
854.889668
 20
716.500000
 42
0.000000
  0
VERTEX
  8
0
 10
856.518108
 20
714.500000
 42
-0.015847
  0
VERTEX
  8
0
 10
857.213279
 20
713.588694
 42
-0.010446
  0
VERTEX
  8
0
 10
857.956625
 20
712.500000
 42
-0.010515
  0
VERTEX
  8
0
 10
858.635906
 20
711.409661
 42
-0.019941
  0
SEQEND
  0
POLYLINE
  8
0
 66
1
 70
1
  0
VERTEX
  8
0
 10
869.000000
 20
693.000000
 42
-0.009323
  0
VERTEX
  8
0
 10
869.747106
 20
691.465529
 42
-0.016702
  0
VERTEX
  8
0
 10
870.294332
 20
690.175000
 42
-0.012218
  0
VERTEX
  8
0
 10
870.656813
 20
689.160667
 42
-0.510981
  0
VERTEX
  8
0
 10
870.540648
 20
689.000000
 42
-0.247499
  0
VERTEX
  8
0
 10
870.268420
 20
689.143545
 42
-0.008607
  0
VERTEX
  8
0
 10
869.588082
 20
690.175000
 42
-0.014260
  0
VERTEX
  8
0
 10
868.818255
 20
691.467002
 42
-0.009274
  0
VERTEX
  8
0
 10
868.000000
 20
693.000000
 42
-0.009323
  0
VERTEX
  8
0
 10
867.252894
 20
694.534471
 42
-0.016702
  0
VERTEX
  8
0
 10
866.705668
 20
695.825000
 42
-0.012218
  0
VERTEX
  8
0
 10
866.343187
 20
696.839333
 42
-0.510981
  0
VERTEX
  8
0
 10
866.459352
 20
697.000000
 42
-0.247499
  0
VERTEX
  8
0
 10
866.731580
 20
696.856455
 42
-0.008607
  0
VERTEX
  8
0
 10
867.411918
 20
695.825000
 42
-0.014260
  0
VERTEX
  8
0
 10
868.181745
 20
694.532998
 42
-0.009274
  0
SEQEND
  0
POLYLINE
  8
0
 66
1
 70
1
  0
VERTEX
  8
0
 10
874.000000
 20
683.642204
 42
-0.161007
  0
VERTEX
  8
0
 10
873.854728
 20
683.202762
 42
-0.489146
  0
VERTEX
  8
0
 10
873.586824
 20
683.196761
 42
-0.053694
  0
VERTEX
  8
0
 10
873.055586
 20
684.014628
 42
-0.006075
  0
VERTEX
  8
0
 10
872.080288
 20
686.000000
 42
-0.001053
  0
VERTEX
  8
0
 10
871.280547
 20
687.688401
 42
-0.260205
  0
VERTEX
  8
0
 10
871.291678
 20
687.849775
 42
-0.508695
  0
VERTEX
  8
0
 10
871.399890
 20
687.855370
 42
-0.001461
  0
VERTEX
  8
0
 10
872.444834
 20
686.558870
 42
-0.022242
  0
VERTEX
  8
0
 10
873.040098
 20
685.744118
 42
-0.024166
  0
VERTEX
  8
0
 10
873.543170
 20
684.901384
 42
-0.024594
  0
VERTEX
  8
0
 10
873.900605
 20
684.143470
 42
-0.098188
  0
SEQEND
  0
POLYLINE
  8
0
 66
1
 70
1
  0
VERTEX
  8
0
 10
886.893621
 20
655.500000
 42
-0.768169
  0
VERTEX
  8
0
 10
886.717360
 20
655.456508
 42
-0.004273
  0
VERTEX
  8
0
 10
885.429964
 20
657.846421
 42
-0.006865
  0
VERTEX
  8
0
 10
883.833619
 20
660.974819
 42
-0.003641
  0
VERTEX
  8
0
 10
881.937397
 20
664.892070
 42
-0.002764
  0
VERTEX
  8
0
 10
880.051265
 20
668.919224
 42
-0.004314
  0
VERTEX
  8
0
 10
878.476184
 20
672.410049
 42
-0.001334
  0
VERTEX
  8
0
 10
877.147762
 20
675.445195
 42
-0.139266
  0
VERTEX
  8
0
 10
877.087911
 20
675.892070
 42
-0.738904
  0
VERTEX
  8
0
 10
877.465812
 20
675.950909
 42
-0.001079
  0
VERTEX
  8
0
 10
882.048762
 20
666.472564
 42
-0.001298
  0
VERTEX
  8
0
 10
886.568259
 20
657.010928
 42
-0.115978
  0
SEQEND
  0
POLYLINE
  8
0
 66
1
 70
1
  0
VERTEX
  8
0
 10
893.946291
 20
637.403759
 42
-0.003130
  0
VERTEX
  8
0
 10
896.284240
 20
630.977903
 42
-0.004906
  0
VERTEX
  8
0
 10
898.205625
 20
625.420562
 42
-0.001519
  0
VERTEX
  8
0
 10
899.804195
 20
620.597075
 42
-0.162045
  0
VERTEX
  8
0
 10
899.801253
 20
619.915258
 42
-0.693826
  0
VERTEX
  8
0
 10
899.552113
 20
619.907272
 42
-0.001990
  0
VERTEX
  8
0
 10
897.825993
 20
624.158159
 42
-0.005553
  0
VERTEX
  8
0
 10
895.823219
 20
629.312036
 42
-0.003122
  0
VERTEX
  8
0
 10
893.500000
 20
635.612137
 42
0.000040
  0
VERTEX
  8
0
 10
891.176288
 20
642.035257
 42
0.000062
  0
VERTEX
  8
0
 10
889.164583
 20
647.592404
 42
0.000019
  0
VERTEX
  8
0
 10
887.418306
 20
652.413897
 42
0.001852
  0
VERTEX
  8
0
 10
887.166667
 20
653.100638
 42
-0.045633
  0
VERTEX
  8
0
 10
887.073608
 20
653.445272
 42
-0.083297
  0
VERTEX
  8
0
 10
887.071771
 20
653.735812
 42
-0.131605
  0
VERTEX
  8
0
 10
887.157349
 20
653.926625
 42
-0.225587
  0
VERTEX
  8
0
 10
887.311704
 20
654.000000
 42
-0.306020
  0
VERTEX
  8
0
 10
887.572244
 20
653.824063
 42
-0.000653
  0
VERTEX
  8
0
 10
889.457942
 20
649.124854
 42
-0.003901
  0
VERTEX
  8
0
 10
891.551492
 20
643.766992
 42
-0.002373
  0
SEQEND
  0
POLYLINE
  8
0
 66
1
 70
1
  0
VERTEX
  8
0
 10
515.236946
 20
595.883053
 42
-0.161082
  0
VERTEX
  8
0
 10
518.418699
 20
587.873956
 42
-0.124482
  0
VERTEX
  8
0
 10
516.643434
 20
578.591227
 42
-0.098701
  0
VERTEX
  8
0
 10
510.016167
 20
569.566689
 42
-0.070516
  0
VERTEX
  8
0
 10
499.645170
 20
562.474297
 42
-0.030586
  0
VERTEX
  8
0
 10
490.633323
 20
558.686813
 42
-0.039111
  0
VERTEX
  8
0
 10
481.930803
 20
556.385452
 42
-0.029680
  0
VERTEX
  8
0
 10
471.268749
 20
555.088940
 42
-0.009803
  0
VERTEX
  8
0
 10
455.500000
 20
554.425337
 42
0.003419
  0
VERTEX
  8
0
 10
446.873438
 20
554.172595
 42
0.003500
  0
VERTEX
  8
0
 10
438.318750
 20
553.803421
 42
0.003393
  0
VERTEX
  8
0
 10
430.897961
 20
553.380609
 42
0.014652
  0
VERTEX
  8
0
 10
426.500000
 20
552.970396
 42
0.051174
  0
VERTEX
  8
0
 10
411.900292
 20
549.635555
 42
0.066194
  0
VERTEX
  8
0
 10
399.593164
 20
543.553021
 42
0.077145
  0
VERTEX
  8
0
 10
390.792280
 20
535.432711
 42
0.119191
  0
VERTEX
  8
0
 10
386.458034
 20
526.089563
 42
-0.021345
  0
VERTEX
  8
0
 10
385.441474
 20
521.931399
 42
-0.192397
  0
VERTEX
  8
0
 10
384.310969
 20
520.482563
 42
-0.430750
  0
VERTEX
  8
0
 10
383.177123
 20
520.815267
 42
-0.050672
  0
VERTEX
  8
0
 10
382.112471
 20
523.554832
 42
-0.097693
  0
VERTEX
  8
0
 10
381.656484
 20
529.653157
 42
-0.069540
  0
VERTEX
  8
0
 10
383.416075
 20
536.294592
 42
-0.062479
  0
VERTEX
  8
0
 10
387.199863
 20
542.862789
 42
-0.052415
  0
VERTEX
  8
0
 10
392.694983
 20
548.735759
 42
-0.052061
  0
VERTEX
  8
0
 10
401.656222
 20
554.997106
 42
-0.077163
  0
VERTEX
  8
0
 10
410.634032
 20
558.292741
 42
-0.043656
  0
VERTEX
  8
0
 10
423.481749
 20
559.718712
 42
-0.007068
  0
VERTEX
  8
0
 10
448.644171
 20
559.948820
 42
0.005819
  0
VERTEX
  8
0
 10
471.434717
 20
560.100296
 42
0.025094
  0
VERTEX
  8
0
 10
484.950802
 20
561.027072
 42
0.042491
  0
VERTEX
  8
0
 10
494.247090
 20
562.946084
 42
0.063118
  0
VERTEX
  8
0
 10
501.846652
 20
566.290438
 42
0.030330
  0
VERTEX
  8
0
 10
506.006159
 20
569.143912
 42
0.062482
  0
VERTEX
  8
0
 10
508.788549
 20
571.933662
 42
0.071804
  0
VERTEX
  8
0
 10
510.556446
 20
575.050831
 42
0.053548
  0
VERTEX
  8
0
 10
511.595224
 20
578.870130
 42
0.086341
  0
VERTEX
  8
0
 10
511.519296
 20
584.415973
 42
0.082641
  0
VERTEX
  8
0
 10
509.584305
 20
589.702928
 42
0.106725
  0
VERTEX
  8
0
 10
506.537515
 20
593.118439
 42
0.254319
  0
VERTEX
  8
0
 10
503.272063
 20
593.550906
 42
0.089355
  0
VERTEX
  8
0
 10
502.563869
 20
593.121910
 42
0.278275
  0
VERTEX
  8
0
 10
502.403079
 20
592.611353
 42
0.116230
  0
VERTEX
  8
0
 10
502.775737
 20
591.876161
 42
0.013408
  0
VERTEX
  8
0
 10
504.015225
 20
590.483794
 42
-0.026494
  0
VERTEX
  8
0
 10
505.225467
 20
589.050478
 42
-0.104623
  0
VERTEX
  8
0
 10
505.714229
 20
588.011613
 42
-0.122585
  0
VERTEX
  8
0
 10
505.700813
 20
586.954362
 42
-0.042747
  0
VERTEX
  8
0
 10
505.186461
 20
585.509891
 42
-0.246362
  0
VERTEX
  8
0
 10
502.588680
 20
583.493051
 42
-0.222235
  0
VERTEX
  8
0
 10
499.275114
 20
584.375598
 42
-0.142919
  0
VERTEX
  8
0
 10
496.769647
 20
588.123922
 42
-0.138681
  0
VERTEX
  8
0
 10
496.634322
 20
592.679160
 42
-0.203523
  0
VERTEX
  8
0
 10
499.305954
 20
596.212060
 42
-0.088029
  0
VERTEX
  8
0
 10
504.962815
 20
598.252400
 42
-0.085656
  0
VERTEX
  8
0
 10
511.123765
 20
598.250305
 42
-0.177322
  0
SEQEND
  0
POLYLINE
  8
0
 66
1
 70
1
  0
VERTEX
  8
0
 10
544.077582
 20
585.855037
 42
-0.131691
  0
VERTEX
  8
0
 10
544.924343
 20
582.230800
 42
-0.039477
  0
VERTEX
  8
0
 10
544.289355
 20
576.547470
 42
-0.032965
  0
VERTEX
  8
0
 10
542.435365
 20
569.466672
 42
-0.019488
  0
VERTEX
  8
0
 10
539.348667
 20
561.289996
 42
0.003075
  0
VERTEX
  8
0
 10
537.434350
 20
556.682545
 42
0.002557
  0
VERTEX
  8
0
 10
535.453914
 20
551.760186
 42
0.002581
  0
VERTEX
  8
0
 10
533.686592
 20
547.233736
 42
0.006993
  0
VERTEX
  8
0
 10
532.494840
 20
544.000000
 42
-0.005231
  0
VERTEX
  8
0
 10
531.465415
 20
541.176084
 42
-0.003827
  0
VERTEX
  8
0
 10
530.265960
 20
538.062230
 42
-0.003867
  0
VERTEX
  8
0
 10
529.084230
 20
535.129723
 42
-0.008538
  0
VERTEX
  8
0
 10
528.126780
 20
532.913973
 42
0.023192
  0
VERTEX
  8
0
 10
527.059974
 20
530.231975
 42
0.054957
  0
VERTEX
  8
0
 10
526.586634
 20
528.138862
 42
0.050930
  0
VERTEX
  8
0
 10
526.562384
 20
525.898576
 42
0.017599
  0
VERTEX
  8
0
 10
526.970034
 20
522.684115
 42
0.045510
  0
VERTEX
  8
0
 10
528.992947
 20
514.837004
 42
0.057869
  0
VERTEX
  8
0
 10
532.303149
 20
508.136660
 42
0.061884
  0
VERTEX
  8
0
 10
536.842230
 20
502.726648
 42
0.064910
  0
VERTEX
  8
0
 10
542.500000
 20
498.692070
 42
0.078267
  0
VERTEX
  8
0
 10
547.122102
 20
497.090203
 42
0.039676
  0
VERTEX
  8
0
 10
553.266012
 20
496.485621
 42
0.039716
  0
VERTEX
  8
0
 10
559.346716
 20
496.854646
 42
0.088695
  0
VERTEX
  8
0
 10
563.733073
 20
498.293316
 42
0.143410
  0
VERTEX
  8
0
 10
568.527323
 20
503.024110
 42
0.151207
  0
VERTEX
  8
0
 10
569.885814
 20
509.491544
 42
0.179044
  0
VERTEX
  8
0
 10
567.317889
 20
514.842586
 42
0.194662
  0
VERTEX
  8
0
 10
561.986437
 20
517.000000
 42
0.025330
  0
VERTEX
  8
0
 10
560.457507
 20
516.922493
 42
0.032089
  0
VERTEX
  8
0
 10
559.062512
 20
516.689555
 42
0.033618
  0
VERTEX
  8
0
 10
557.960027
 20
516.352354
 42
0.164765
  0
VERTEX
  8
0
 10
557.464874
 20
515.943165
 42
0.156345
  0
VERTEX
  8
0
 10
557.065872
 20
514.336348
 42
0.078912
  0
VERTEX
  8
0
 10
557.534959
 20
512.280021
 42
0.077961
  0
VERTEX
  8
0
 10
558.628885
 20
510.444210
 42
0.143593
  0
VERTEX
  8
0
 10
560.059194
 20
509.481212
 42
-0.146905
  0
VERTEX
  8
0
 10
561.472773
 20
508.516091
 42
-0.244032
  0
VERTEX
  8
0
 10
561.754620
 20
507.134984
 42
-0.191674
  0
VERTEX
  8
0
 10
560.758814
 20
505.841662
 42
-0.105462
  0
VERTEX
  8
0
 10
558.838142
 20
505.192908
 42
-0.135243
  0
VERTEX
  8
0
 10
556.717274
 20
505.520521
 42
-0.102545
  0
VERTEX
  8
0
 10
554.801715
 20
506.906915
 42
-0.093699
  0
VERTEX
  8
0
 10
553.466185
 20
509.070259
 42
-0.091812
  0
VERTEX
  8
0
 10
553.000000
 20
511.587648
 42
-0.115954
  0
VERTEX
  8
0
 10
553.523083
 20
513.812893
 42
-0.051452
  0
VERTEX
  8
0
 10
555.146471
 20
516.376162
 42
-0.048668
  0
VERTEX
  8
0
 10
557.444079
 20
518.771203
 42
-0.057977
  0
VERTEX
  8
0
 10
560.038636
 20
520.519980
 42
-0.174602
  0
VERTEX
  8
0
 10
568.043005
 20
521.578914
 42
-0.141684
  0
VERTEX
  8
0
 10
575.705819
 20
517.435564
 42
-0.137373
  0
VERTEX
  8
0
 10
580.129215
 20
509.720391
 42
-0.162233
  0
VERTEX
  8
0
 10
579.508975
 20
501.367238
 42
-0.063605
  0
VERTEX
  8
0
 10
576.836988
 20
496.730861
 42
-0.066134
  0
VERTEX
  8
0
 10
573.115622
 20
492.983603
 42
-0.064340
  0
VERTEX
  8
0
 10
568.448696
 20
490.259902
 42
-0.055227
  0
VERTEX
  8
0
 10
562.995803
 20
488.636003
 42
-0.069757
  0
VERTEX
  8
0
 10
559.341907
 20
488.490454
 42
-0.019563
  0
VERTEX
  8
0
 10
553.670041
 20
489.281625
 42
-0.020448
  0
VERTEX
  8
0
 10
547.754284
 20
490.595855
 42
-0.035564
  0
VERTEX
  8
0
 10
543.000000
 20
492.227480
 42
-0.082704
  0
VERTEX
  8
0
 10
537.483918
 20
495.737687
 42
-0.040493
  0
VERTEX
  8
0
 10
531.739209
 20
501.804971
 42
-0.039397
  0
VERTEX
  8
0
 10
526.764029
 20
509.102197
 42
-0.052683
  0
VERTEX
  8
0
 10
523.539611
 20
516.433005
 42
0.188776
  0
VERTEX
  8
0
 10
523.046957
 20
517.039409
 42
0.322365
  0
VERTEX
  8
0
 10
522.427418
 20
516.972034
 42
0.067694
  0
VERTEX
  8
0
 10
521.480586
 20
515.856084
 42
0.007434
  0
VERTEX
  8
0
 10
519.711159
 20
512.992914
 42
-0.015571
  0
VERTEX
  8
0
 10
518.210783
 20
510.651187
 42
-0.010279
  0
VERTEX
  8
0
 10
516.349185
 20
508.051914
 42
-0.010348
  0
VERTEX
  8
0
 10
514.432963
 20
505.596942
 42
-0.019668
  0
VERTEX
  8
0
 10
512.775427
 20
503.717689
 42
-0.018132
  0
VERTEX
  8
0
 10
510.520322
 20
501.520394
 42
-0.078518
  0
VERTEX
  8
0
 10
508.961185
 20
500.500145
 42
-0.092731
  0
VERTEX
  8
0
 10
507.294925
 20
500.096283
 42
-0.030934
  0
VERTEX
  8
0
 10
504.775427
 20
500.118937
 42
0.044322
  0
VERTEX
  8
0
 10
502.299529
 20
500.074991
 42
0.045456
  0
VERTEX
  8
0
 10
499.891713
 20
499.593960
 42
0.034119
  0
VERTEX
  8
0
 10
497.087598
 20
498.550494
 42
0.012515
  0
VERTEX
  8
0
 10
493.277512
 20
496.712440
 42
-0.015452
  0
VERTEX
  8
0
 10
489.718393
 20
495.021146
 42
-0.025258
  0
VERTEX
  8
0
 10
486.595479
 20
493.837803
 42
-0.029359
  0
VERTEX
  8
0
 10
483.763591
 20
493.105649
 42
-0.037722
  0
VERTEX
  8
0
 10
481.093384
 20
492.786682
 42
-0.112303
  0
VERTEX
  8
0
 10
475.419728
 20
493.820198
 42
-0.224184
  0
VERTEX
  8
0
 10
472.458479
 20
497.156803
 42
-0.112666
  0
VERTEX
  8
0
 10
472.066872
 20
503.631703
 42
-0.021370
  0
VERTEX
  8
0
 10
474.509122
 20
515.277763
 42
0.008246
  0
VERTEX
  8
0
 10
476.860680
 20
525.189126
 42
0.115641
  0
VERTEX
  8
0
 10
476.810491
 20
528.825994
 42
0.442551
  0
VERTEX
  8
0
 10
475.171868
 20
529.707303
 42
0.065318
  0
VERTEX
  8
0
 10
471.394060
 20
527.786975
 42
0.087486
  0
VERTEX
  8
0
 10
466.876599
 20
523.360203
 42
0.045254
  0
VERTEX
  8
0
 10
462.863461
 20
516.519716
 42
0.040258
  0
VERTEX
  8
0
 10
459.664307
 20
508.011275
 42
0.032842
  0
VERTEX
  8
0
 10
457.602107
 20
498.500000
 42
-0.006079
  0
VERTEX
  8
0
 10
456.799768
 20
493.528552
 42
-0.066603
  0
VERTEX
  8
0
 10
456.193252
 20
491.603215
 42
-0.167002
  0
VERTEX
  8
0
 10
455.279793
 20
490.659556
 42
-0.088801
  0
VERTEX
  8
0
 10
453.705302
 20
490.183578
 42
-0.037597
  0
VERTEX
  8
0
 10
452.128021
 20
490.118436
 42
-0.221342
  0
VERTEX
  8
0
 10
451.408742
 20
490.483392
 42
-0.151852
  0
VERTEX
  8
0
 10
451.070973
 20
491.369470
 42
-0.015699
  0
VERTEX
  8
0
 10
451.000000
 20
493.629358
 42
0.000000
  0
VERTEX
  8
0
 10
451.000000
 20
497.391561
 42
0.000000
  0
VERTEX
  8
0
 10
448.022024
 20
492.695781
 42
-0.016513
  0
VERTEX
  8
0
 10
446.244772
 20
490.087906
 42
-0.077230
  0
VERTEX
  8
0
 10
444.963753
 20
488.806828
 42
-0.108708
  0
VERTEX
  8
0
 10
443.577850
 20
488.196709
 42
-0.049574
  0
VERTEX
  8
0
 10
441.598749
 20
488.000000
 42
-0.097964
  0
VERTEX
  8
0
 10
438.684807
 20
488.576458
 42
-0.051736
  0
VERTEX
  8
0
 10
435.426621
 20
490.331076
 42
-0.052122
  0
VERTEX
  8
0
 10
432.794797
 20
492.554678
 42
-0.193649
  0
VERTEX
  8
0
 10
432.000000
 20
494.529877
 42
0.148266
  0
VERTEX
  8
0
 10
431.560523
 20
495.979358
 42
0.418744
  0
VERTEX
  8
0
 10
430.625709
 20
496.158078
 42
0.104314
  0
VERTEX
  8
0
 10
429.132389
 20
494.582830
 42
0.022801
  0
VERTEX
  8
0
 10
427.313644
 20
491.294678
 42
-0.042790
  0
VERTEX
  8
0
 10
424.919493
 20
487.347062
 42
-0.051197
  0
VERTEX
  8
0
 10
422.011097
 20
484.116738
 42
-0.055215
  0
VERTEX
  8
0
 10
418.723211
 20
481.743729
 42
-0.067339
  0
VERTEX
  8
0
 10
415.202570
 20
480.335994
 42
-0.094215
  0
VERTEX
  8
0
 10
411.809171
 20
480.138856
 42
-0.032507
  0
VERTEX
  8
0
 10
406.968763
 20
481.094071
 42
-0.032877
  0
VERTEX
  8
0
 10
402.213725
 20
482.699243
 42
-0.077206
  0
VERTEX
  8
0
 10
399.017670
 20
484.638585
 42
-0.106887
  0
VERTEX
  8
0
 10
395.865346
 20
488.714387
 42
-0.081425
  0
VERTEX
  8
0
 10
394.285982
 20
494.148075
 42
-0.065905
  0
VERTEX
  8
0
 10
394.361260
 20
500.843198
 42
-0.039080
  0
VERTEX
  8
0
 10
396.113877
 20
508.644665
 42
-0.020523
  0
VERTEX
  8
0
 10
398.606759
 20
515.688687
 42
-0.034240
  0
VERTEX
  8
0
 10
401.339483
 20
521.351064
 42
-0.037019
  0
VERTEX
  8
0
 10
404.648997
 20
526.271569
 42
-0.029833
  0
VERTEX
  8
0
 10
408.879869
 20
531.039869
 42
-0.015082
  0
VERTEX
  8
0
 10
411.956061
 20
533.935871
 42
-0.038640
  0
VERTEX
  8
0
 10
414.392994
 20
535.780116
 42
-0.047843
  0
VERTEX
  8
0
 10
416.752289
 20
536.993367
 42
-0.036884
  0
VERTEX
  8
0
 10
419.513531
 20
537.864580
 42
-0.094080
  0
VERTEX
  8
0
 10
427.206624
 20
538.205502
 42
-0.149258
  0
VERTEX
  8
0
 10
433.128202
 20
535.420271
 42
-0.183369
  0
VERTEX
  8
0
 10
435.738910
 20
530.307473
 42
-0.147723
  0
VERTEX
  8
0
 10
434.602379
 20
524.197980
 42
-0.045636
  0
VERTEX
  8
0
 10
432.878448
 20
521.499255
 42
-0.068953
  0
VERTEX
  8
0
 10
430.886327
 20
519.554208
 42
-0.070195
  0
VERTEX
  8
0
 10
428.468360
 20
518.247066
 42
-0.049257
  0
VERTEX
  8
0
 10
425.470982
 20
517.459322
 42
-0.028414
  0
VERTEX
  8
0
 10
423.319455
 20
517.239642
 42
-0.068180
  0
VERTEX
  8
0
 10
421.726568
 20
517.385333
 42
-0.073141
  0
VERTEX
  8
0
 10
420.299613
 20
517.944354
 42
-0.036795
  0
VERTEX
  8
0
 10
418.691880
 20
519.027727
 42
-0.094129
  0
VERTEX
  8
0
 10
416.752371
 20
521.254425
 42
-0.134891
  0
VERTEX
  8
0
 10
416.081234
 20
523.770152
 42
-0.179806
  0
VERTEX
  8
0
 10
416.849025
 20
525.789916
 42
-0.179553
  0
VERTEX
  8
0
 10
418.750000
 20
526.819551
 42
-0.049221
  0
VERTEX
  8
0
 10
419.908861
 20
526.869085
 42
-0.184490
  0
VERTEX
  8
0
 10
420.562180
 20
526.576922
 42
-0.161847
  0
VERTEX
  8
0
 10
420.904822
 20
525.893075
 42
-0.035910
  0
VERTEX
  8
0
 10
421.000000
 20
524.569551
 42
0.042443
  0
VERTEX
  8
0
 10
421.103632
 20
523.350909
 42
0.121377
  0
VERTEX
  8
0
 10
421.441163
 20
522.576945
 42
0.151219
  0
VERTEX
  8
0
 10
422.045934
 20
522.147183
 42
0.079581
  0
VERTEX
  8
0
 10
422.964816
 20
522.000000
 42
0.151801
  0
VERTEX
  8
0
 10
424.541575
 20
522.489998
 42
0.103523
  0
VERTEX
  8
0
 10
425.846616
 20
523.857907
 42
0.082346
  0
VERTEX
  8
0
 10
426.709331
 20
525.949249
 42
0.056793
  0
VERTEX
  8
0
 10
427.000000
 20
528.500000
 42
0.105061
  0
VERTEX
  8
0
 10
426.143655
 20
532.530480
 42
0.207248
  0
VERTEX
  8
0
 10
423.778788
 20
534.704506
 42
0.181574
  0
VERTEX
  8
0
 10
420.302964
 20
534.619095
 42
0.081311
  0
VERTEX
  8
0
 10
416.336044
 20
532.208366
 42
0.087685
  0
VERTEX
  8
0
 10
411.739884
 20
526.611559
 42
0.032701
  0
VERTEX
  8
0
 10
407.324575
 20
517.406415
 42
0.032945
  0
VERTEX
  8
0
 10
404.051575
 20
507.395738
 42
0.063523
  0
VERTEX
  8
0
 10
403.016450
 20
499.039901
 42
0.065281
  0
VERTEX
  8
0
 10
403.568755
 20
494.942971
 42
0.053354
  0
VERTEX
  8
0
 10
405.173165
 20
490.818504
 42
0.055364
  0
VERTEX
  8
0
 10
407.517945
 20
487.302893
 42
0.090828
  0
VERTEX
  8
0
 10
410.267397
 20
485.029902
 42
0.033814
  0
VERTEX
  8
0
 10
411.954818
 20
484.231260
 42
0.112171
  0
VERTEX
  8
0
 10
413.161446
 20
484.047607
 42
0.088367
  0
VERTEX
  8
0
 10
414.485627
 20
484.383810
 42
0.016326
  0
VERTEX
  8
0
 10
416.752355
 20
485.500000
 42
0.086515
  0
VERTEX
  8
0
 10
419.650318
 20
487.762244
 42
0.050940
  0
VERTEX
  8
0
 10
422.258973
 20
491.313278
 42
0.030463
  0
VERTEX
  8
0
 10
425.135788
 20
496.964293
 42
0.007673
  0
VERTEX
  8
0
 10
429.107213
 20
506.500000
 42
-0.008532
  0
VERTEX
  8
0
 10
431.561907
 20
512.365522
 42
-0.052156
  0
VERTEX
  8
0
 10
433.184382
 20
515.214881
 42
-0.131107
  0
VERTEX
  8
0
 10
434.638067
 20
516.410323
 42
-0.201124
  0
VERTEX
  8
0
 10
436.245140
 20
516.459425
 42
-0.119024
  0
VERTEX
  8
0
 10
437.652364
 20
515.489773
 42
-0.149976
  0
VERTEX
  8
0
 10
438.312637
 20
514.060616
 42
-0.080189
  0
VERTEX
  8
0
 10
438.256178
 20
511.800720
 42
-0.017199
  0
VERTEX
  8
0
 10
437.399938
 20
507.961042
 42
0.014521
  0
VERTEX
  8
0
 10
436.863818
 20
505.616071
 42
0.011194
  0
VERTEX
  8
0
 10
436.411232
 20
503.031228
 42
0.011350
  0
VERTEX
  8
0
 10
436.097085
 20
500.595182
 42
0.026394
  0
VERTEX
  8
0
 10
436.000000
 20
498.757321
 42
0.025946
  0
VERTEX
  8
0
 10
436.106732
 20
496.701879
 42
0.098335
  0
VERTEX
  8
0
 10
436.484964
 20
495.478295
 42
0.124673
  0
VERTEX
  8
0
 10
437.247277
 20
494.649947
 42
0.053928
  0
VERTEX
  8
0
 10
438.592284
 20
493.964914
 42
0.044374
  0
VERTEX
  8
0
 10
439.927315
 20
493.588768
 42
0.059862
  0
VERTEX
  8
0
 10
441.178286
 20
493.505629
 42
0.059101
  0
VERTEX
  8
0
 10
442.425563
 20
493.721382
 42
0.041847
  0
VERTEX
  8
0
 10
443.750043
 20
494.239665
 42
0.045570
  0
VERTEX
  8
0
 10
445.526427
 20
495.323198
 42
0.080040
  0
VERTEX
  8
0
 10
446.724286
 20
496.552942
 42
0.047649
  0
VERTEX
  8
0
 10
447.831970
 20
498.499722
 42
0.007739
  0
VERTEX
  8
0
 10
449.554459
 20
502.500000
 42
-0.000355
  0
VERTEX
  8
0
 10
450.247843
 20
504.178101
 42
-0.000321
  0
VERTEX
  8
0
 10
450.967232
 20
505.912500
 42
-0.000321
  0
VERTEX
  8
0
 10
451.613549
 20
507.465090
 42
-0.001025
  0
VERTEX
  8
0
 10
452.047637
 20
508.500000
 42
0.055658
  0
VERTEX
  8
0
 10
452.453278
 20
509.869289
 42
0.003782
  0
VERTEX
  8
0
 10
453.138285
 20
513.878125
 42
0.005380
  0
VERTEX
  8
0
 10
453.869026
 20
518.683353
 42
0.004008
  0
VERTEX
  8
0
 10
454.575684
 20
524.000000
 42
-0.009498
  0
VERTEX
  8
0
 10
455.869930
 20
532.981351
 42
-0.052237
  0
VERTEX
  8
0
 10
457.157018
 20
537.696224
 42
-0.119185
  0
VERTEX
  8
0
 10
458.835909
 20
540.107992
 42
-0.183371
  0
VERTEX
  8
0
 10
461.186372
 20
541.000000
 42
-0.176741
  0
VERTEX
  8
0
 10
462.831121
 20
540.399863
 42
-0.197160
  0
VERTEX
  8
0
 10
463.609597
 20
538.910851
 42
-0.090382
  0
VERTEX
  8
0
 10
463.374243
 20
536.239314
 42
-0.022436
  0
VERTEX
  8
0
 10
462.016344
 20
532.043702
 42
0.015335
  0
VERTEX
  8
0
 10
461.219394
 20
529.695617
 42
0.020989
  0
VERTEX
  8
0
 10
460.657270
 20
527.535334
 42
0.018367
  0
VERTEX
  8
0
 10
460.340166
 20
525.750814
 42
0.174929
  0
VERTEX
  8
0
 10
460.496994
 20
525.004863
 42
0.443028
  0
VERTEX
  8
0
 10
461.147220
 20
524.884431
 42
0.014063
  0
VERTEX
  8
0
 10
463.484816
 20
526.771138
 42
0.017180
  0
VERTEX
  8
0
 10
466.519051
 20
529.550269
 42
0.007452
  0
VERTEX
  8
0
 10
470.368388
 20
533.441448
 42
-0.009858
  0
VERTEX
  8
0
 10
476.584863
 20
539.665298
 42
-0.069075
  0
VERTEX
  8
0
 10
480.047406
 20
542.181122
 42
-0.169019
  0
VERTEX
  8
0
 10
482.645267
 20
542.588490
 42
-0.139962
  0
VERTEX
  8
0
 10
485.171259
 20
541.345012
 42
-0.140736
  0
VERTEX
  8
0
 10
486.514107
 20
539.182037
 42
-0.093357
  0
VERTEX
  8
0
 10
486.777758
 20
536.253539
 42
-0.045031
  0
VERTEX
  8
0
 10
485.918987
 20
531.699610
 42
-0.008273
  0
VERTEX
  8
0
 10
483.445871
 20
523.500000
 42
0.012939
  0
VERTEX
  8
0
 10
480.733421
 20
514.193663
 42
0.033140
  0
VERTEX
  8
0
 10
479.398631
 20
507.307922
 42
0.046068
  0
VERTEX
  8
0
 10
479.235735
 20
502.395256
 42
0.183642
  0
VERTEX
  8
0
 10
480.449212
 20
499.693645
 42
0.065572
  0
VERTEX
  8
0
 10
481.292822
 20
499.046397
 42
0.039594
  0
VERTEX
  8
0
 10
482.432179
 20
498.503960
 42
0.039027
  0
VERTEX
  8
0
 10
483.671678
 20
498.137883
 42
0.054395
  0
VERTEX
  8
0
 10
484.821429
 20
498.021962
 42
0.073228
  0
VERTEX
  8
0
 10
487.532316
 20
498.443864
 42
0.023724
  0
VERTEX
  8
0
 10
491.357889
 20
499.831761
 42
0.020734
  0
VERTEX
  8
0
 10
494.963268
 20
501.515595
 42
0.135529
  0
VERTEX
  8
0
 10
496.414450
 20
502.861577
 42
0.181214
  0
VERTEX
  8
0
 10
496.545458
 20
503.524747
 42
0.027893
  0
VERTEX
  8
0
 10
496.248302
 20
504.858151
 42
0.028109
  0
VERTEX
  8
0
 10
495.697373
 20
506.460067
 42
0.021076
  0
VERTEX
  8
0
 10
494.920358
 20
508.156112
 42
-0.032014
  0
VERTEX
  8
0
 10
493.819463
 20
510.704809
 42
-0.050280
  0
VERTEX
  8
0
 10
493.245292
 20
513.018422
 42
-0.038584
  0
VERTEX
  8
0
 10
493.062062
 20
515.805326
 42
-0.011587
  0
VERTEX
  8
0
 10
493.209454
 20
520.057206
 42
-0.036340
  0
VERTEX
  8
0
 10
493.958462
 20
525.765294
 42
-0.050151
  0
VERTEX
  8
0
 10
495.501407
 20
530.694838
 42
-0.053713
  0
VERTEX
  8
0
 10
497.889206
 20
534.954853
 42
-0.051829
  0
VERTEX
  8
0
 10
501.154838
 20
538.664966
 42
-0.055704
  0
VERTEX
  8
0
 10
503.979460
 20
540.742549
 42
-0.006291
  0
VERTEX
  8
0
 10
510.925642
 20
544.630690
 42
-0.003863
  0
VERTEX
  8
0
 10
518.211798
 20
548.516968
 42
-0.121154
  0
VERTEX
  8
0
 10
520.175997
 20
549.000000
 42
-0.258800
  0
VERTEX
  8
0
 10
520.492809
 20
548.824247
 42
-0.060977
  0
VERTEX
  8
0
 10
520.757949
 20
548.255186
 42
-0.047783
  0
VERTEX
  8
0
 10
520.940074
 20
547.435828
 42
-0.030817
  0
VERTEX
  8
0
 10
521.000000
 20
546.464463
 42
-0.080019
  0
VERTEX
  8
0
 10
520.781653
 20
545.108859
 42
-0.114002
  0
VERTEX
  8
0
 10
520.150275
 20
544.070739
 42
-0.077030
  0
VERTEX
  8
0
 10
518.923571
 20
543.150534
 42
-0.021223
  0
VERTEX
  8
0
 10
516.742487
 20
542.103942
 42
0.054840
  0
VERTEX
  8
0
 10
511.143825
 20
538.938915
 42
0.052961
  0
VERTEX
  8
0
 10
506.294422
 20
534.599794
 42
0.054039
  0
VERTEX
  8
0
 10
502.550666
 20
529.433509
 42
0.062508
  0
VERTEX
  8
0
 10
500.217395
 20
523.825170
 42
0.077050
  0
VERTEX
  8
0
 10
499.822730
 20
520.426472
 42
0.095554
  0
VERTEX
  8
0
 10
500.543399
 20
517.330739
 42
0.093654
  0
VERTEX
  8
0
 10
502.380632
 20
514.679614
 42
0.071125
  0
VERTEX
  8
0
 10
505.231429
 20
512.574702
 42
0.016097
  0
VERTEX
  8
0
 10
507.509907
 20
511.440696
 42
0.109319
  0
VERTEX
  8
0
 10
508.731976
 20
511.177864
 42
0.113301
  0
VERTEX
  8
0
 10
509.931349
 20
511.460675
 42
0.017848
  0
VERTEX
  8
0
 10
512.081023
 20
512.615312
 42
0.109415
  0
VERTEX
  8
0
 10
515.729261
 20
515.990616
 42
0.040081
  0
VERTEX
  8
0
 10
519.278487
 20
522.101892
 42
0.038887
  0
VERTEX
  8
0
 10
522.070508
 20
529.336712
 42
0.048932
  0
VERTEX
  8
0
 10
523.445841
 20
536.382175
 42
-0.019657
  0
VERTEX
  8
0
 10
525.808966
 20
553.871423
 42
-0.028311
  0
VERTEX
  8
0
 10
529.372070
 20
569.073958
 42
-0.030619
  0
VERTEX
  8
0
 10
533.638939
 20
580.834390
 42
-0.138505
  0
VERTEX
  8
0
 10
538.209118
 20
586.433918
 42
-0.041024
  0
VERTEX
  8
0
 10
540.251315
 20
587.627762
 42
-0.137184
  0
VERTEX
  8
0
 10
541.764996
 20
587.894366
 42
-0.172568
  0
VERTEX
  8
0
 10
542.987427
 20
587.318727
 42
-0.074521
  0
SEQEND
  0
POLYLINE
  8
0
 66
1
 70
1
  0
VERTEX
  8
0
 10
215.261501
 20
543.500000
 42
-0.261599
  0
VERTEX
  8
0
 10
214.885343
 20
543.092853
 42
-0.022723
  0
VERTEX
  8
0
 10
213.474058
 20
542.705653
 42
-0.025273
  0
VERTEX
  8
0
 10
211.640685
 20
542.387547
 42
-0.016727
  0
VERTEX
  8
0
 10
209.511501
 20
542.200096
 42
0.000000
  0
VERTEX
  8
0
 10
204.000000
 20
541.900192
 42
0.000000
  0
VERTEX
  8
0
 10
204.000000
 20
534.000000
 42
0.000000
  0
VERTEX
  8
0
 10
204.000000
 20
526.099808
 42
0.000000
  0
VERTEX
  8
0
 10
209.511501
 20
525.799904
 42
-0.017007
  0
VERTEX
  8
0
 10
211.624077
 20
525.612726
 42
-0.027316
  0
VERTEX
  8
0
 10
213.403999
 20
525.294347
 42
-0.025909
  0
VERTEX
  8
0
 10
214.733784
 20
524.907024
 42
-0.319105
  0
VERTEX
  8
0
 10
215.023002
 20
524.500000
 42
-0.319105
  0
VERTEX
  8
0
 10
214.733784
 20
524.092976
 42
-0.025909
  0
VERTEX
  8
0
 10
213.403999
 20
523.705653
 42
-0.027316
  0
VERTEX
  8
0
 10
211.624077
 20
523.387274
 42
-0.017007
  0
VERTEX
  8
0
 10
209.511501
 20
523.200096
 42
0.000000
  0
VERTEX
  8
0
 10
204.000000
 20
522.900192
 42
0.000000
  0
VERTEX
  8
0
 10
204.000000
 20
514.950096
 42
0.000000
  0
VERTEX
  8
0
 10
204.000000
 20
507.000000
 42
0.000000
  0
VERTEX
  8
0
 10
210.000000
 20
507.000000
 42
-0.013984
  0
VERTEX
  8
0
 10
212.300233
 20
506.935656
 42
-0.022959
  0
VERTEX
  8
0
 10
214.237500
 20
506.737678
 42
-0.019213
  0
VERTEX
  8
0
 10
215.719740
 20
506.458493
 42
-0.349861
  0
VERTEX
  8
0
 10
216.000000
 20
506.106989
 42
-0.253081
  0
VERTEX
  8
0
 10
215.514591
 20
505.209415
 42
-0.076503
  0
VERTEX
  8
0
 10
214.055498
 20
504.546272
 42
-0.048540
  0
VERTEX
  8
0
 10
211.718685
 20
504.128599
 42
-0.019969
  0
VERTEX
  8
0
 10
208.500000
 20
504.000000
 42
-0.050873
  0
VERTEX
  8
0
 10
203.733723
 20
504.486211
 42
-0.259907
  0
VERTEX
  8
0
 10
201.790398
 20
506.162914
 42
-0.084618
  0
VERTEX
  8
0
 10
201.092368
 20
509.965993
 42
-0.003172
  0
VERTEX
  8
0
 10
201.000000
 20
524.523655
 42
-0.003054
  0
VERTEX
  8
0
 10
201.057939
 20
534.010320
 42
-0.012681
  0
VERTEX
  8
0
 10
201.272994
 20
539.731075
 42
-0.012617
  0
VERTEX
  8
0
 10
201.606141
 20
543.499877
 42
-0.271129
  0
VERTEX
  8
0
 10
202.250000
 20
544.359383
 42
-0.101086
  0
VERTEX
  8
0
 10
204.685199
 20
544.845055
 42
-0.015331
  0
VERTEX
  8
0
 10
209.670964
 20
544.669025
 42
-0.009361
  0
VERTEX
  8
0
 10
214.737675
 20
544.238984
 42
-0.453044
  0
SEQEND
  0
POLYLINE
  8
0
 66
1
 70
1
  0
VERTEX
  8
0
 10
231.396795
 20
543.607569
 42
-0.126282
  0
VERTEX
  8
0
 10
234.317650
 20
541.400858
 42
-0.076010
  0
VERTEX
  8
0
 10
236.490985
 20
537.612264
 42
-0.114569
  0
VERTEX
  8
0
 10
236.956088
 20
534.334357
 42
-0.388900
  0
VERTEX
  8
0
 10
235.500000
 20
533.000000
 42
-0.140575
  0
VERTEX
  8
0
 10
234.880020
 20
533.177821
 42
-0.118484
  0
VERTEX
  8
0
 10
234.400000
 20
533.666667
 42
-0.088208
  0
VERTEX
  8
0
 10
234.098630
 20
534.456621
 42
-0.047160
  0
VERTEX
  8
0
 10
234.000000
 20
535.500000
 42
0.111534
  0
VERTEX
  8
0
 10
233.498702
 20
537.719338
 42
0.075423
  0
VERTEX
  8
0
 10
232.039434
 20
539.876054
 42
0.077136
  0
VERTEX
  8
0
 10
230.048669
 20
541.457816
 42
0.130087
  0
VERTEX
  8
0
 10
228.000000
 20
542.000000
 42
0.202063
  0
VERTEX
  8
0
 10
224.543389
 20
540.543633
 42
0.127213
  0
VERTEX
  8
0
 10
222.333117
 20
536.685253
 42
0.116911
  0
VERTEX
  8
0
 10
222.170963
 20
531.971115
 42
0.159701
  0
VERTEX
  8
0
 10
224.250000
 20
528.298469
 42
0.028893
  0
VERTEX
  8
0
 10
225.363822
 20
527.395574
 42
0.014068
  0
VERTEX
  8
0
 10
226.880094
 20
526.368702
 42
0.013903
  0
VERTEX
  8
0
 10
228.522544
 20
525.385631
 42
0.019515
  0
VERTEX
  8
0
 10
230.043937
 20
524.607997
 42
-0.071988
  0
VERTEX
  8
0
 10
233.140240
 20
522.591687
 42
-0.080790
  0
VERTEX
  8
0
 10
235.397954
 20
519.848479
 42
-0.084328
  0
VERTEX
  8
0
 10
236.603748
 20
516.636564
 42
-0.088165
  0
VERTEX
  8
0
 10
236.654429
 20
513.257923
 42
-0.069532
  0
VERTEX
  8
0
 10
235.568276
 20
509.743153
 42
-0.100166
  0
VERTEX
  8
0
 10
233.634515
 20
507.136252
 42
-0.103947
  0
VERTEX
  8
0
 10
230.899446
 20
505.549277
 42
-0.079821
  0
VERTEX
  8
0
 10
227.480674
 20
505.000000
 42
-0.069216
  0
VERTEX
  8
0
 10
224.163339
 20
505.461435
 42
-0.117216
  0
VERTEX
  8
0
 10
221.727406
 20
506.823321
 42
-0.121345
  0
VERTEX
  8
0
 10
220.218342
 20
509.096112
 42
-0.077445
  0
VERTEX
  8
0
 10
219.616132
 20
512.226663
 42
-0.036843
  0
VERTEX
  8
0
 10
219.721034
 20
514.972160
 42
-0.293554
  0
VERTEX
  8
0
 10
220.484599
 20
515.910796
 42
-0.396801
  0
VERTEX
  8
0
 10
221.400133
 20
515.481268
 42
-0.043752
  0
VERTEX
  8
0
 10
222.123844
 20
513.048855
 42
0.066100
  0
VERTEX
  8
0
 10
223.076414
 20
510.301469
 42
0.107515
  0
VERTEX
  8
0
 10
224.622631
 20
508.389258
 42
0.124113
  0
VERTEX
  8
0
 10
226.648175
 20
507.461132
 42
0.107460
  0
VERTEX
  8
0
 10
228.989983
 20
507.534692
 42
0.053732
  0
VERTEX
  8
0
 10
230.777349
 20
508.192934
 42
0.098886
  0
VERTEX
  8
0
 10
231.999679
 20
509.136419
 42
0.083890
  0
VERTEX
  8
0
 10
232.888757
 20
510.590053
 42
0.030500
  0
VERTEX
  8
0
 10
233.652493
 20
512.890432
 42
0.090449
  0
VERTEX
  8
0
 10
233.883207
 20
515.798610
 42
0.109485
  0
VERTEX
  8
0
 10
233.025776
 20
518.391722
 42
0.093035
  0
VERTEX
  8
0
 10
231.005886
 20
520.680947
 42
0.049980
  0
VERTEX
  8
0
 10
227.808717
 20
522.696152
 42
-0.023421
  0
VERTEX
  8
0
 10
225.861663
 20
523.783631
 42
-0.019292
  0
VERTEX
  8
0
 10
223.890750
 20
525.116952
 42
-0.019717
  0
VERTEX
  8
0
 10
222.174670
 20
526.484328
 42
-0.048052
  0
VERTEX
  8
0
 10
221.058717
 20
527.652483
 42
-0.143661
  0
VERTEX
  8
0
 10
219.094538
 20
532.553829
 42
-0.110797
  0
VERTEX
  8
0
 10
219.815572
 20
538.295829
 42
-0.116754
  0
VERTEX
  8
0
 10
222.856804
 20
542.957361
 42
-0.171504
  0
VERTEX
  8
0
 10
227.282119
 20
544.936614
 42
-0.088811
  0
VERTEX
  8
0
 10
227.758167
 20
544.890633
 42
-0.009744
  0
VERTEX
  8
0
 10
228.813429
 20
544.572354
 42
-0.011663
  0
VERTEX
  8
0
 10
230.063433
 20
544.136153
 42
-0.009177
  0
SEQEND
  0
POLYLINE
  8
0
 66
1
 70
1
  0
VERTEX
  8
0
 10
259.255085
 20
543.500000
 42
-0.338658
  0
VERTEX
  8
0
 10
259.077103
 20
543.093707
 42
-0.047358
  0
VERTEX
  8
0
 10
258.179619
 20
542.703423
 42
-0.038324
  0
VERTEX
  8
0
 10
256.861774
 20
542.382402
 42
-0.022530
  0
VERTEX
  8
0
 10
255.250000
 20
542.192502
 42
0.000000
  0
VERTEX
  8
0
 10
251.000000
 20
541.885004
 42
0.000000
  0
VERTEX
  8
0
 10
251.000000
 20
523.442502
 42
-0.002403
  0
VERTEX
  8
0
 10
250.950731
 20
513.191407
 42
-0.017888
  0
VERTEX
  8
0
 10
250.729667
 20
508.323750
 42
-0.035147
  0
VERTEX
  8
0
 10
250.322916
 20
505.658082
 42
-0.350677
  0
VERTEX
  8
0
 10
249.500000
 20
505.000000
 42
-0.350929
  0
VERTEX
  8
0
 10
248.676779
 20
505.658933
 42
-0.034985
  0
VERTEX
  8
0
 10
248.270270
 20
508.333333
 42
-0.017834
  0
VERTEX
  8
0
 10
248.049248
 20
513.215502
 42
-0.002394
  0
VERTEX
  8
0
 10
248.000000
 20
523.500000
 42
0.000000
  0
VERTEX
  8
0
 10
248.000000
 20
542.000000
 42
0.000000
  0
VERTEX
  8
0
 10
243.500000
 20
542.000000
 42
-0.021389
  0
VERTEX
  8
0
 10
240.783275
 20
542.116268
 42
-0.118455
  0
VERTEX
  8
0
 10
239.405718
 20
542.574844
 42
-0.330205
  0
VERTEX
  8
0
 10
239.105229
 20
543.336511
 42
-0.131577
  0
VERTEX
  8
0
 10
239.700461
 20
544.367127
 42
-0.204959
  0
VERTEX
  8
0
 10
241.395694
 20
545.046349
 42
-0.005269
  0
VERTEX
  8
0
 10
249.776959
 20
544.763153
 42
-0.004185
  0
VERTEX
  8
0
 10
258.279520
 20
544.314781
 42
-0.328494
  0
SEQEND
  0
POLYLINE
  8
0
 66
1
 70
1
  0
VERTEX
  8
0
 10
288.250000
 20
541.802320
 42
-0.130900
  0
VERTEX
  8
0
 10
289.785278
 20
538.645288
 42
-0.064150
  0
VERTEX
  8
0
 10
290.074233
 20
534.149740
 42
-0.059280
  0
VERTEX
  8
0
 10
289.174851
 20
529.272533
 42
-0.066589
  0
VERTEX
  8
0
 10
287.170792
 20
524.945781
 42
-0.011809
  0
VERTEX
  8
0
 10
285.960171
 20
523.139088
 42
-0.011716
  0
VERTEX
  8
0
 10
284.662500
 20
521.386718
 42
-0.011640
  0
VERTEX
  8
0
 10
283.457075
 20
519.908569
 42
-0.043911
  0
VERTEX
  8
0
 10
282.604855
 20
519.072833
 42
0.066533
  0
VERTEX
  8
0
 10
280.890944
 20
517.233295
 42
0.041723
  0
VERTEX
  8
0
 10
279.392316
 20
514.697643
 42
0.041892
  0
VERTEX
  8
0
 10
278.344608
 20
511.969420
 42
0.070850
  0
VERTEX
  8
0
 10
278.000000
 20
509.549660
 42
0.069948
  0
VERTEX
  8
0
 10
278.207501
 20
508.073661
 42
0.227449
  0
VERTEX
  8
0
 10
278.846485
 20
507.354781
 42
0.092396
  0
VERTEX
  8
0
 10
280.237441
 20
507.054507
 42
0.007086
  0
VERTEX
  8
0
 10
284.083333
 20
507.000000
 42
-0.010460
  0
VERTEX
  8
0
 10
286.969205
 20
506.939622
 42
-0.043846
  0
VERTEX
  8
0
 10
288.688584
 20
506.715753
 42
-0.102246
  0
VERTEX
  8
0
 10
289.564923
 20
506.323462
 42
-0.328026
  0
VERTEX
  8
0
 10
289.750000
 20
505.750000
 42
-0.232954
  0
VERTEX
  8
0
 10
289.195423
 20
505.188836
 42
-0.041205
  0
VERTEX
  8
0
 10
287.720080
 20
504.810241
 42
-0.030611
  0
VERTEX
  8
0
 10
285.514406
 20
504.571924
 42
-0.011607
  0
VERTEX
  8
0
 10
282.416667
 20
504.500000
 42
-0.006988
  0
VERTEX
  8
0
 10
278.279830
 20
504.557821
 42
-0.066122
  0
VERTEX
  8
0
 10
276.533142
 20
504.839709
 42
-0.172086
  0
VERTEX
  8
0
 10
275.648911
 20
505.488338
 42
-0.114397
  0
VERTEX
  8
0
 10
275.190599
 20
506.672544
 42
-0.084232
  0
VERTEX
  8
0
 10
275.282114
 20
510.111701
 42
-0.048974
  0
VERTEX
  8
0
 10
276.476255
 20
514.076568
 42
-0.044503
  0
VERTEX
  8
0
 10
278.602939
 20
518.167982
 42
-0.039501
  0
VERTEX
  8
0
 10
281.496931
 20
521.996545
 42
0.037288
  0
VERTEX
  8
0
 10
284.596938
 20
526.060188
 42
0.049637
  0
VERTEX
  8
0
 10
286.732129
 20
530.182120
 42
0.057410
  0
VERTEX
  8
0
 10
287.779873
 20
534.057253
 42
0.099141
  0
VERTEX
  8
0
 10
287.619338
 20
537.380543
 42
0.143850
  0
VERTEX
  8
0
 10
285.886489
 20
540.326922
 42
0.168152
  0
VERTEX
  8
0
 10
282.937410
 20
541.644692
 42
0.189462
  0
VERTEX
  8
0
 10
280.063079
 20
540.794932
 42
0.175238
  0
VERTEX
  8
0
 10
278.418801
 20
538.183350
 42
-0.006011
  0
VERTEX
  8
0
 10
277.640988
 20
534.815536
 42
-0.075072
  0
VERTEX
  8
0
 10
277.145905
 20
533.607198
 42
-0.328603
  0
VERTEX
  8
0
 10
276.572307
 20
533.366643
 42
-0.137742
  0
VERTEX
  8
0
 10
275.799314
 20
533.800686
 42
-0.116994
  0
VERTEX
  8
0
 10
275.330610
 20
534.560944
 42
-0.082509
  0
VERTEX
  8
0
 10
275.175125
 20
535.556724
 42
-0.052984
  0
VERTEX
  8
0
 10
275.334097
 20
536.925513
 42
-0.017403
  0
VERTEX
  8
0
 10
275.848954
 20
538.890190
 42
-0.115787
  0
VERTEX
  8
0
 10
277.916546
 20
542.487580
 42
-0.148056
  0
VERTEX
  8
0
 10
281.208238
 20
544.392554
 42
-0.151388
  0
VERTEX
  8
0
 10
284.947033
 20
544.130999
 42
-0.122484
  0
SEQEND
  0
POLYLINE
  8
0
 66
1
 70
1
  0
VERTEX
  8
0
 10
307.596486
 20
544.000000
 42
-0.152534
  0
VERTEX
  8
0
 10
308.279626
 20
543.786631
 42
-0.038833
  0
VERTEX
  8
0
 10
309.190564
 20
543.045313
 42
-0.035933
  0
VERTEX
  8
0
 10
310.147102
 20
541.994013
 42
-0.029727
  0
VERTEX
  8
0
 10
311.010960
 20
540.750000
 42
-0.059929
  0
VERTEX
  8
0
 10
312.057416
 20
538.455043
 42
-0.046724
  0
VERTEX
  8
0
 10
312.641917
 20
535.774888
 42
-0.025527
  0
VERTEX
  8
0
 10
312.922297
 20
531.793143
 42
-0.004814
  0
VERTEX
  8
0
 10
312.992524
 20
524.500000
 42
-0.004915
  0
VERTEX
  8
0
 10
312.921997
 20
517.324885
 42
-0.024422
  0
VERTEX
  8
0
 10
312.646095
 20
513.302921
 42
-0.043920
  0
VERTEX
  8
0
 10
312.084608
 20
510.603912
 42
-0.063758
  0
VERTEX
  8
0
 10
311.093115
 20
508.385092
 42
-0.148573
  0
VERTEX
  8
0
 10
307.722464
 20
505.379376
 42
-0.136727
  0
VERTEX
  8
0
 10
303.130728
 20
504.631437
 42
-0.136171
  0
VERTEX
  8
0
 10
298.799975
 20
506.366101
 42
-0.146973
  0
VERTEX
  8
0
 10
296.135324
 20
510.041655
 42
-0.073405
  0
VERTEX
  8
0
 10
295.239326
 20
514.728827
 42
-0.010575
  0
VERTEX
  8
0
 10
295.032331
 20
524.498904
 42
-0.010574
  0
VERTEX
  8
0
 10
295.238645
 20
534.269010
 42
-0.073423
  0
VERTEX
  8
0
 10
296.134345
 20
538.955539
 42
-0.101227
  0
VERTEX
  8
0
 10
297.525581
 20
541.291300
 42
-0.066924
  0
VERTEX
  8
0
 10
299.926011
 20
543.305722
 42
-0.070163
  0
VERTEX
  8
0
 10
302.612337
 20
544.519700
 42
-0.156071
  0
VERTEX
  8
0
 10
304.831787
 20
544.463537
 42
0.026524
  0
VERTEX
  8
0
 10
305.445472
 20
544.285802
 42
0.015689
  0
VERTEX
  8
0
 10
306.193280
 20
544.136164
 42
0.015676
  0
VERTEX
  8
0
 10
306.951190
 20
544.033398
 42
0.025861
  0
SEQEND
  0
POLYLINE
  8
0
 66
1
 70
1
  0
VERTEX
  8
0
 10
346.423359
 20
542.084688
 42
-0.084796
  0
VERTEX
  8
0
 10
347.800941
 20
539.918230
 42
-0.051693
  0
VERTEX
  8
0
 10
348.681564
 20
537.008618
 42
-0.073426
  0
VERTEX
  8
0
 10
348.782233
 20
534.722798
 42
-0.479966
  0
VERTEX
  8
0
 10
347.947728
 20
534.184091
 42
-0.133593
  0
VERTEX
  8
0
 10
347.371481
 20
534.567725
 42
-0.042489
  0
VERTEX
  8
0
 10
346.756072
 20
535.406666
 42
-0.038945
  0
VERTEX
  8
0
 10
346.199941
 20
536.501175
 42
-0.034693
  0
VERTEX
  8
0
 10
345.794978
 20
537.711401
 42
0.123339
  0
VERTEX
  8
0
 10
344.174673
 20
540.684498
 42
0.206633
  0
VERTEX
  8
0
 10
341.616790
 20
541.823219
 42
0.198862
  0
VERTEX
  8
0
 10
338.956441
 20
540.756651
 42
0.115883
  0
VERTEX
  8
0
 10
337.083581
 20
537.809917
 42
0.022519
  0
VERTEX
  8
0
 10
336.668442
 20
536.420776
 42
0.015450
  0
VERTEX
  8
0
 10
336.318302
 20
534.813303
 42
0.015602
  0
VERTEX
  8
0
 10
336.076890
 20
533.241203
 42
0.030301
  0
VERTEX
  8
0
 10
336.000000
 20
531.973614
 42
0.038543
  0
VERTEX
  8
0
 10
336.124906
 20
530.355664
 42
0.236863
  0
VERTEX
  8
0
 10
336.595795
 20
529.695021
 42
0.139284
  0
VERTEX
  8
0
 10
337.583470
 20
529.484910
 42
0.011266
  0
VERTEX
  8
0
 10
340.252557
 20
529.724999
 42
-0.022893
  0
VERTEX
  8
0
 10
342.533099
 20
529.876793
 42
-0.071361
  0
VERTEX
  8
0
 10
344.057133
 20
529.690247
 42
-0.090351
  0
VERTEX
  8
0
 10
345.262250
 20
529.116277
 42
-0.052681
  0
VERTEX
  8
0
 10
346.458768
 20
528.045561
 42
-0.127888
  0
VERTEX
  8
0
 10
348.086504
 20
524.927881
 42
-0.040482
  0
VERTEX
  8
0
 10
348.855550
 20
519.692676
 42
-0.040833
  0
VERTEX
  8
0
 10
348.762466
 20
514.113987
 42
-0.074506
  0
VERTEX
  8
0
 10
347.651233
 20
509.707710
 42
-0.118618
  0
VERTEX
  8
0
 10
344.847465
 20
505.877671
 42
-0.177979
  0
VERTEX
  8
0
 10
340.996669
 20
504.469914
 42
-0.177589
  0
VERTEX
  8
0
 10
337.144571
 20
505.890461
 42
-0.118096
  0
VERTEX
  8
0
 10
334.338830
 20
509.731492
 42
-0.089077
  0
VERTEX
  8
0
 10
333.086899
 20
515.380521
 42
-0.018333
  0
VERTEX
  8
0
 10
333.048508
 20
525.625217
 42
-0.016664
  0
VERTEX
  8
0
 10
333.724405
 20
535.814406
 42
-0.120701
  0
VERTEX
  8
0
 10
335.348927
 20
540.409778
 42
-0.086252
  0
VERTEX
  8
0
 10
337.832881
 20
543.064819
 42
-0.124765
  0
VERTEX
  8
0
 10
340.780495
 20
544.305326
 42
-0.135858
  0
VERTEX
  8
0
 10
343.777880
 20
543.944027
 42
-0.111765
  0
SEQEND
  0
POLYLINE
  8
0
 66
1
 70
1
  0
VERTEX
  8
0
 10
612.871886
 20
543.894816
 42
-0.037007
  0
VERTEX
  8
0
 10
614.157330
 20
543.337024
 42
-0.033047
  0
VERTEX
  8
0
 10
615.398482
 20
542.576990
 42
-0.034579
  0
VERTEX
  8
0
 10
616.422864
 20
541.740685
 42
-0.081582
  0
VERTEX
  8
0
 10
617.021109
 20
540.960558
 42
-0.081070
  0
VERTEX
  8
0
 10
617.742425
 20
538.852006
 42
-0.042645
  0
VERTEX
  8
0
 10
617.971487
 20
536.084738
 42
-0.041223
  0
VERTEX
  8
0
 10
617.763509
 20
533.645282
 42
-0.365977
  0
VERTEX
  8
0
 10
617.000000
 20
533.000000
 42
-0.226478
  0
VERTEX
  8
0
 10
616.617064
 20
533.182831
 42
-0.074992
  0
VERTEX
  8
0
 10
616.293750
 20
533.734375
 42
-0.057076
  0
VERTEX
  8
0
 10
616.073116
 20
534.542644
 42
-0.038131
  0
VERTEX
  8
0
 10
616.000000
 20
535.500000
 42
0.110729
  0
VERTEX
  8
0
 10
615.523745
 20
537.624182
 42
0.066850
  0
VERTEX
  8
0
 10
614.115459
 20
539.799122
 42
0.068874
  0
VERTEX
  8
0
 10
612.252890
 20
541.449750
 42
0.147969
  0
VERTEX
  8
0
 10
610.434259
 20
542.000000
 42
0.087639
  0
VERTEX
  8
0
 10
608.375406
 20
541.636333
 42
0.087439
  0
VERTEX
  8
0
 10
606.563887
 20
540.589246
 42
0.079881
  0
VERTEX
  8
0
 10
605.096407
 20
538.891716
 42
0.058728
  0
VERTEX
  8
0
 10
604.044116
 20
536.633674
 42
0.078492
  0
VERTEX
  8
0
 10
603.518231
 20
533.418156
 42
0.117482
  0
VERTEX
  8
0
 10
604.159979
 20
530.657980
 42
0.102553
  0
VERTEX
  8
0
 10
606.073271
 20
528.226672
 42
0.049682
  0
VERTEX
  8
0
 10
609.352988
 20
525.980986
 42
-0.021112
  0
VERTEX
  8
0
 10
613.932418
 20
523.215147
 42
-0.080157
  0
VERTEX
  8
0
 10
616.380668
 20
520.954751
 42
-0.108876
  0
VERTEX
  8
0
 10
617.597014
 20
518.426425
 42
-0.057941
  0
VERTEX
  8
0
 10
618.000000
 20
514.960545
 42
-0.058432
  0
VERTEX
  8
0
 10
617.480279
 20
510.528506
 42
-0.120080
  0
VERTEX
  8
0
 10
615.899780
 20
507.436084
 42
-0.134026
  0
VERTEX
  8
0
 10
613.212330
 20
505.625614
 42
-0.081776
  0
VERTEX
  8
0
 10
609.412721
 20
505.000000
 42
-0.023085
  0
VERTEX
  8
0
 10
606.864811
 20
505.117697
 42
-0.094295
  0
VERTEX
  8
0
 10
605.382787
 20
505.544430
 42
-0.105961
  0
VERTEX
  8
0
 10
604.251493
 20
506.458372
 42
-0.033164
  0
VERTEX
  8
0
 10
602.989040
 20
508.250000
 42
-0.046651
  0
VERTEX
  8
0
 10
601.741799
 20
510.803918
 42
-0.056072
  0
VERTEX
  8
0
 10
601.083357
 20
513.393024
 42
-0.078753
  0
VERTEX
  8
0
 10
601.122486
 20
515.332266
 42
-0.363171
  0
VERTEX
  8
0
 10
601.920545
 20
516.000000
 42
-0.231643
  0
VERTEX
  8
0
 10
602.319196
 20
515.804838
 42
-0.044619
  0
VERTEX
  8
0
 10
602.766421
 20
515.108796
 42
-0.039242
  0
VERTEX
  8
0
 10
603.185071
 20
514.128125
 42
-0.027215
  0
VERTEX
  8
0
 10
603.507442
 20
512.966116
 42
0.134129
  0
VERTEX
  8
0
 10
605.395252
 20
509.365238
 42
0.153367
  0
VERTEX
  8
0
 10
608.764286
 20
507.450109
 42
0.172469
  0
VERTEX
  8
0
 10
612.328190
 20
507.912570
 42
0.169766
  0
VERTEX
  8
0
 10
614.828561
 20
510.523076
 42
0.065059
  0
VERTEX
  8
0
 10
616.016354
 20
514.395910
 42
0.138977
  0
VERTEX
  8
0
 10
615.680281
 20
517.480340
 42
0.128359
  0
VERTEX
  8
0
 10
613.738193
 20
520.088566
 42
0.051649
  0
VERTEX
  8
0
 10
609.973861
 20
522.513245
 42
-0.023049
  0
VERTEX
  8
0
 10
607.991232
 20
523.635593
 42
-0.018989
  0
VERTEX
  8
0
 10
605.983939
 20
525.006425
 42
-0.019401
  0
VERTEX
  8
0
 10
604.235704
 20
526.408463
 42
-0.047420
  0
VERTEX
  8
0
 10
603.098652
 20
527.601714
 42
-0.118125
  0
VERTEX
  8
0
 10
601.261935
 20
531.592278
 42
-0.095843
  0
VERTEX
  8
0
 10
601.237864
 20
536.315598
 42
-0.096839
  0
VERTEX
  8
0
 10
602.970879
 20
540.666094
 42
-0.123759
  0
VERTEX
  8
0
 10
606.110071
 20
543.604493
 42
-0.016616
  0
VERTEX
  8
0
 10
608.053441
 20
544.598701
 42
-0.099511
  0
VERTEX
  8
0
 10
609.151769
 20
544.868968
 42
-0.084559
  0
VERTEX
  8
0
 10
610.345411
 20
544.718002
 42
-0.010226
  0
SEQEND
  0
POLYLINE
  8
0
 66
1
 70
1
  0
VERTEX
  8
0
 10
636.753964
 20
543.250000
 42
-0.327810
  0
VERTEX
  8
0
 10
636.567340
 20
542.676586
 42
-0.101759
  0
VERTEX
  8
0
 10
635.688639
 20
542.284409
 42
-0.043793
  0
VERTEX
  8
0
 10
633.968033
 20
542.060451
 42
-0.010477
  0
VERTEX
  8
0
 10
631.083333
 20
542.000000
 42
0.000000
  0
VERTEX
  8
0
 10
625.000000
 20
542.000000
 42
0.000000
  0
VERTEX
  8
0
 10
625.000000
 20
534.000000
 42
0.000000
  0
VERTEX
  8
0
 10
625.000000
 20
526.000000
 42
0.000000
  0
VERTEX
  8
0
 10
631.000000
 20
526.000000
 42
-0.010614
  0
VERTEX
  8
0
 10
634.035942
 20
525.935548
 42
-0.050675
  0
VERTEX
  8
0
 10
635.750000
 20
525.687500
 42
-0.113455
  0
VERTEX
  8
0
 10
636.662288
 20
525.223030
 42
-0.222027
  0
VERTEX
  8
0
 10
637.000000
 20
524.500000
 42
-0.222027
  0
VERTEX
  8
0
 10
636.662288
 20
523.776970
 42
-0.113455
  0
VERTEX
  8
0
 10
635.750000
 20
523.312500
 42
-0.050675
  0
VERTEX
  8
0
 10
634.035942
 20
523.064452
 42
-0.010614
  0
VERTEX
  8
0
 10
631.000000
 20
523.000000
 42
0.000000
  0
VERTEX
  8
0
 10
625.000000
 20
523.000000
 42
0.000000
  0
VERTEX
  8
0
 10
625.000000
 20
515.000000
 42
0.000000
  0
VERTEX
  8
0
 10
625.000000
 20
507.000000
 42
0.000000
  0
VERTEX
  8
0
 10
631.083333
 20
507.000000
 42
-0.010478
  0
VERTEX
  8
0
 10
633.967925
 20
506.939542
 42
-0.043788
  0
VERTEX
  8
0
 10
635.688644
 20
506.715576
 42
-0.101715
  0
VERTEX
  8
0
 10
636.567563
 20
506.323409
 42
-0.327790
  0
VERTEX
  8
0
 10
636.754329
 20
505.750000
 42
-0.286441
  0
VERTEX
  8
0
 10
635.438455
 20
504.654584
 42
-0.021340
  0
VERTEX
  8
0
 10
630.579506
 20
504.198416
 42
-0.024798
  0
VERTEX
  8
0
 10
625.676627
 20
504.191811
 42
-0.162530
  0
VERTEX
  8
0
 10
623.415627
 20
505.070023
 42
-0.217774
  0
VERTEX
  8
0
 10
622.095874
 20
507.807567
 42
-0.003969
  0
VERTEX
  8
0
 10
621.890370
 20
524.338846
 42
-0.004248
  0
VERTEX
  8
0
 10
621.956232
 20
540.792685
 42
-0.195666
  0
VERTEX
  8
0
 10
623.241450
 20
543.841450
 42
-0.185226
  0
VERTEX
  8
0
 10
625.361203
 20
544.785781
 42
-0.024140
  0
VERTEX
  8
0
 10
630.396564
 20
544.808579
 42
-0.021554
  0
VERTEX
  8
0
 10
635.395434
 20
544.373358
 42
-0.288084
  0
SEQEND
  0
POLYLINE
  8
0
 66
1
 70
1
  0
VERTEX
  8
0
 10
681.255085
 20
543.500000
 42
-0.337845
  0
VERTEX
  8
0
 10
681.077847
 20
543.093793
 42
-0.047737
  0
VERTEX
  8
0
 10
680.186181
 20
542.703743
 42
-0.038523
  0
VERTEX
  8
0
 10
678.875542
 20
542.383078
 42
-0.022652
  0
VERTEX
  8
0
 10
677.272341
 20
542.193594
 42
0.000000
  0
VERTEX
  8
0
 10
673.044681
 20
541.887188
 42
0.000000
  0
VERTEX
  8
0
 10
672.772341
 20
523.776058
 42
-0.003381
  0
VERTEX
  8
0
 10
672.580943
 20
514.997151
 42
-0.013357
  0
VERTEX
  8
0
 10
672.282455
 20
509.602418
 42
-0.013119
  0
VERTEX
  8
0
 10
671.893898
 20
506.026023
 42
-0.286260
  0
VERTEX
  8
0
 10
671.250000
 20
505.249131
 42
-0.467231
  0
VERTEX
  8
0
 10
670.596940
 20
505.652277
 42
-0.018718
  0
VERTEX
  8
0
 10
670.261222
 20
508.803733
 42
-0.014369
  0
VERTEX
  8
0
 10
670.052751
 20
514.017904
 42
-0.002806
  0
VERTEX
  8
0
 10
670.000000
 20
523.416667
 42
0.000000
  0
VERTEX
  8
0
 10
670.000000
 20
542.000000
 42
0.000000
  0
VERTEX
  8
0
 10
665.500000
 20
542.000000
 42
-0.021389
  0
VERTEX
  8
0
 10
662.783275
 20
542.116268
 42
-0.118455
  0
VERTEX
  8
0
 10
661.405718
 20
542.574844
 42
-0.330205
  0
VERTEX
  8
0
 10
661.105229
 20
543.336511
 42
-0.131577
  0
VERTEX
  8
0
 10
661.700461
 20
544.367127
 42
-0.204959
  0
VERTEX
  8
0
 10
663.395694
 20
545.046349
 42
-0.005269
  0
VERTEX
  8
0
 10
671.776959
 20
544.763153
 42
-0.004185
  0
VERTEX
  8
0
 10
680.279520
 20
544.314781
 42
-0.328494
  0
SEQEND
  0
POLYLINE
  8
0
 66
1
 70
1
  0
VERTEX
  8
0
 10
705.752272
 20
543.250000
 42
-0.275376
  0
VERTEX
  8
0
 10
705.629521
 20
542.694074
 42
-0.131943
  0
VERTEX
  8
0
 10
704.984890
 20
542.295578
 42
-0.057579
  0
VERTEX
  8
0
 10
703.687305
 20
542.064448
 42
-0.015312
  0
VERTEX
  8
0
 10
701.583333
 20
542.000000
 42
0.000000
  0
VERTEX
  8
0
 10
697.000000
 20
542.000000
 42
0.000000
  0
VERTEX
  8
0
 10
697.000000
 20
523.500000
 42
-0.003937
  0
VERTEX
  8
0
 10
696.938251
 20
515.658034
 42
-0.009564
  0
VERTEX
  8
0
 10
696.736486
 20
509.875000
 42
-0.004594
  0
VERTEX
  8
0
 10
696.454798
 20
505.423018
 42
-0.393171
  0
VERTEX
  8
0
 10
696.000000
 20
505.000000
 42
-0.393171
  0
VERTEX
  8
0
 10
695.545202
 20
505.423018
 42
-0.004594
  0
VERTEX
  8
0
 10
695.263514
 20
509.875000
 42
-0.009564
  0
VERTEX
  8
0
 10
695.061749
 20
515.658034
 42
-0.003937
  0
VERTEX
  8
0
 10
695.000000
 20
523.500000
 42
0.000000
  0
VERTEX
  8
0
 10
695.000000
 20
542.000000
 42
0.000000
  0
VERTEX
  8
0
 10
690.000000
 20
542.000000
 42
-0.018482
  0
VERTEX
  8
0
 10
686.986435
 20
542.111432
 42
-0.107751
  0
VERTEX
  8
0
 10
685.473155
 20
542.560698
 42
-0.333286
  0
VERTEX
  8
0
 10
685.128015
 20
543.325102
 42
-0.142476
  0
VERTEX
  8
0
 10
685.700461
 20
544.367127
 42
-0.206003
  0
VERTEX
  8
0
 10
687.652816
 20
545.144831
 42
-0.007102
  0
VERTEX
  8
0
 10
696.032866
 20
544.797272
 42
-0.005905
  0
VERTEX
  8
0
 10
704.509413
 20
544.224542
 42
-0.301522
  0
SEQEND
  0
POLYLINE
  8
0
 66
1
 70
1
  0
VERTEX
  8
0
 10
743.261501
 20
543.500000
 42
-0.261599
  0
VERTEX
  8
0
 10
742.885343
 20
543.092853
 42
-0.022723
  0
VERTEX
  8
0
 10
741.474058
 20
542.705653
 42
-0.025273
  0
VERTEX
  8
0
 10
739.640685
 20
542.387547
 42
-0.016727
  0
VERTEX
  8
0
 10
737.511501
 20
542.200096
 42
0.000000
  0
VERTEX
  8
0
 10
732.000000
 20
541.900192
 42
0.000000
  0
VERTEX
  8
0
 10
732.000000
 20
534.000000
 42
0.000000
  0
VERTEX
  8
0
 10
732.000000
 20
526.099808
 42
0.000000
  0
VERTEX
  8
0
 10
737.511501
 20
525.799904
 42
-0.017007
  0
VERTEX
  8
0
 10
739.624077
 20
525.612726
 42
-0.027316
  0
VERTEX
  8
0
 10
741.403999
 20
525.294347
 42
-0.025909
  0
VERTEX
  8
0
 10
742.733784
 20
524.907024
 42
-0.319105
  0
VERTEX
  8
0
 10
743.023002
 20
524.500000
 42
-0.319105
  0
VERTEX
  8
0
 10
742.733784
 20
524.092976
 42
-0.025909
  0
VERTEX
  8
0
 10
741.403999
 20
523.705653
 42
-0.027316
  0
VERTEX
  8
0
 10
739.624077
 20
523.387274
 42
-0.017007
  0
VERTEX
  8
0
 10
737.511501
 20
523.200096
 42
0.000000
  0
VERTEX
  8
0
 10
732.000000
 20
522.900192
 42
0.000000
  0
VERTEX
  8
0
 10
732.000000
 20
514.950096
 42
0.000000
  0
VERTEX
  8
0
 10
732.000000
 20
507.000000
 42
0.000000
  0
VERTEX
  8
0
 10
738.083333
 20
507.000000
 42
-0.010460
  0
VERTEX
  8
0
 10
740.969205
 20
506.939622
 42
-0.043846
  0
VERTEX
  8
0
 10
742.688584
 20
506.715753
 42
-0.102246
  0
VERTEX
  8
0
 10
743.564923
 20
506.323462
 42
-0.328026
  0
VERTEX
  8
0
 10
743.750000
 20
505.750000
 42
-0.232954
  0
VERTEX
  8
0
 10
743.195423
 20
505.188836
 42
-0.041205
  0
VERTEX
  8
0
 10
741.720080
 20
504.810241
 42
-0.030611
  0
VERTEX
  8
0
 10
739.514406
 20
504.571924
 42
-0.011607
  0
VERTEX
  8
0
 10
736.416667
 20
504.500000
 42
0.000000
  0
VERTEX
  8
0
 10
729.500000
 20
504.500000
 42
0.000000
  0
VERTEX
  8
0
 10
729.227129
 20
523.469207
 42
-0.002597
  0
VERTEX
  8
0
 10
729.159433
 20
530.834711
 42
-0.003909
  0
VERTEX
  8
0
 10
729.183973
 20
537.255955
 42
-0.001606
  0
VERTEX
  8
0
 10
729.265560
 20
542.748780
 42
-0.087307
  0
VERTEX
  8
0
 10
729.463397
 20
543.765210
 42
-0.299096
  0
VERTEX
  8
0
 10
730.864595
 20
544.772181
 42
-0.015275
  0
VERTEX
  8
0
 10
736.737573
 20
544.838726
 42
-0.015533
  0
VERTEX
  8
0
 10
742.500625
 20
544.548703
 42
-0.459703
  0
SEQEND
  0
POLYLINE
  8
0
 66
1
 70
1
  0
VERTEX
  8
0
 10
325.000000
 20
524.500000
 42
-0.003712
  0
VERTEX
  8
0
 10
324.938494
 20
516.215350
 42
-0.009098
  0
VERTEX
  8
0
 10
324.737179
 20
510.125000
 42
-0.004190
  0
VERTEX
  8
0
 10
324.456747
 20
505.426699
 42
-0.394435
  0
VERTEX
  8
0
 10
324.000000
 20
505.000000
 42
-0.390135
  0
VERTEX
  8
0
 10
323.549680
 20
505.414453
 42
-0.005593
  0
VERTEX
  8
0
 10
323.265152
 20
509.375000
 42
-0.010654
  0
VERTEX
  8
0
 10
323.062324
 20
514.543291
 42
-0.004479
  0
VERTEX
  8
0
 10
323.000000
 20
521.500000
 42
0.003813
  0
VERTEX
  8
0
 10
322.951755
 20
527.826841
 42
0.006352
  0
VERTEX
  8
0
 10
322.802818
 20
533.153125
 42
0.001617
  0
VERTEX
  8
0
 10
322.601358
 20
537.739937
 42
0.400477
  0
VERTEX
  8
0
 10
322.328741
 20
538.000000
 42
0.124233
  0
VERTEX
  8
0
 10
321.966739
 20
537.908645
 42
0.020839
  0
VERTEX
  8
0
 10
321.346634
 20
537.540239
 42
0.021706
  0
VERTEX
  8
0
 10
320.639378
 20
537.034097
 42
0.017755
  0
VERTEX
  8
0
 10
319.928018
 20
536.434857
 42
-0.096421
  0
VERTEX
  8
0
 10
318.368031
 20
535.492710
 42
-0.508594
  0
VERTEX
  8
0
 10
317.668323
 20
535.961133
 42
-0.138022
  0
VERTEX
  8
0
 10
318.101364
 20
537.774263
 42
-0.035062
  0
VERTEX
  8
0
 10
319.772591
 20
540.331511
 42
-0.062956
  0
VERTEX
  8
0
 10
322.702611
 20
543.324956
 42
-0.521321
  0
VERTEX
  8
0
 10
324.231205
 20
542.867539
 42
-0.076572
  0
VERTEX
  8
0
 10
324.905115
 20
538.847000
 42
-0.003307
  0
SEQEND
  0
POLYLINE
  8
0
 66
1
 70
1
  0
VERTEX
  8
0
 10
654.485503
 20
536.250000
 42
0.003184
  0
VERTEX
  8
0
 10
655.331805
 20
532.476279
 42
0.001330
  0
VERTEX
  8
0
 10
656.518622
 20
527.399298
 42
0.001316
  0
VERTEX
  8
0
 10
657.817653
 20
521.972020
 42
0.001706
  0
VERTEX
  8
0
 10
659.038813
 20
517.002929
 42
-0.008031
  0
VERTEX
  8
0
 10
660.087857
 20
512.488560
 42
-0.012820
  0
VERTEX
  8
0
 10
660.822695
 20
508.596909
 42
-0.007427
  0
VERTEX
  8
0
 10
661.295731
 20
505.382981
 42
-0.233267
  0
VERTEX
  8
0
 10
661.045570
 20
504.645570
 42
-0.384881
  0
VERTEX
  8
0
 10
660.142985
 20
504.599871
 42
-0.107122
  0
VERTEX
  8
0
 10
659.179789
 20
505.807817
 42
-0.051977
  0
VERTEX
  8
0
 10
658.260764
 20
508.280476
 42
-0.021961
  0
VERTEX
  8
0
 10
657.528232
 20
511.750000
 42
0.000000
  0
VERTEX
  8
0
 10
656.824204
 20
516.000000
 42
0.000000
  0
VERTEX
  8
0
 10
651.880717
 20
516.000000
 42
0.019320
  0
VERTEX
  8
0
 10
649.790946
 20
515.919222
 42
0.037951
  0
VERTEX
  8
0
 10
648.147615
 20
515.665584
 42
0.048570
  0
VERTEX
  8
0
 10
646.993471
 20
515.275328
 42
0.208981
  0
VERTEX
  8
0
 10
646.517987
 20
514.750000
 42
0.011991
  0
VERTEX
  8
0
 10
646.292463
 20
514.019968
 42
0.002045
  0
VERTEX
  8
0
 10
645.902321
 20
512.618750
 42
0.002230
  0
VERTEX
  8
0
 10
645.458086
 20
510.968788
 42
0.001986
  0
VERTEX
  8
0
 10
645.010828
 20
509.250000
 42
-0.032196
  0
VERTEX
  8
0
 10
643.999589
 20
506.146278
 42
-0.210837
  0
VERTEX
  8
0
 10
642.857705
 20
505.025947
 42
-0.523371
  0
VERTEX
  8
0
 10
642.109240
 20
505.542468
 42
-0.046749
  0
VERTEX
  8
0
 10
642.356382
 20
508.250000
 42
-0.009274
  0
VERTEX
  8
0
 10
644.694514
 20
519.608944
 42
-0.007636
  0
VERTEX
  8
0
 10
647.597745
 20
531.637918
 42
-0.001802
  0
VERTEX
  8
0
 10
650.644382
 20
543.291978
 42
-0.340150
  0
VERTEX
  8
0
 10
651.564714
 20
544.000000
 42
-0.287601
  0
VERTEX
  8
0
 10
652.156908
 20
543.628654
 42
-0.022557
  0
VERTEX
  8
0
 10
652.925196
 20
541.839088
 42
-0.023871
  0
VERTEX
  8
0
 10
653.723006
 20
539.371282
 42
-0.012677
  0
SEQEND
  0
POLYLINE
  8
0
 66
1
 70
1
  0
VERTEX
  8
0
 10
712.000000
 20
525.500000
 42
0.000000
  0
VERTEX
  8
0
 10
712.000000
 20
507.000000
 42
0.000000
  0
VERTEX
  8
0
 10
718.583333
 20
507.000000
 42
-0.009451
  0
VERTEX
  8
0
 10
721.729676
 20
506.940525
 42
-0.040570
  0
VERTEX
  8
0
 10
723.589451
 20
506.718354
 42
-0.093621
  0
VERTEX
  8
0
 10
724.546759
 20
506.328546
 42
-0.342290
  0
VERTEX
  8
0
 10
724.750000
 20
505.750000
 42
-0.232954
  0
VERTEX
  8
0
 10
724.195423
 20
505.188836
 42
-0.041205
  0
VERTEX
  8
0
 10
722.720080
 20
504.810241
 42
-0.030611
  0
VERTEX
  8
0
 10
720.514406
 20
504.571924
 42
-0.011607
  0
VERTEX
  8
0
 10
717.416667
 20
504.500000
 42
0.000000
  0
VERTEX
  8
0
 10
710.500000
 20
504.500000
 42
0.000000
  0
VERTEX
  8
0
 10
710.228860
 20
524.250000
 42
-0.003458
  0
VERTEX
  8
0
 10
710.170049
 20
532.882442
 42
-0.009464
  0
VERTEX
  8
0
 10
710.286116
 20
538.981099
 42
-0.004892
  0
VERTEX
  8
0
 10
710.504507
 20
543.552178
 42
-0.397464
  0
VERTEX
  8
0
 10
710.978860
 20
544.000000
 42
-0.392154
  0
VERTEX
  8
0
 10
711.451350
 20
543.562076
 42
-0.005190
  0
VERTEX
  8
0
 10
711.736201
 20
539.220748
 42
-0.009948
  0
VERTEX
  8
0
 10
711.938780
 20
533.475567
 42
-0.003838
  0
SEQEND
  0
POLYLINE
  8
0
 66
1
 70
1
  0
VERTEX
  8
0
 10
261.770833
 20
506.187500
 42
-0.134046
  0
VERTEX
  8
0
 10
261.795817
 20
505.735738
 42
-0.144529
  0
VERTEX
  8
0
 10
261.585286
 20
505.348828
 42
-0.119977
  0
VERTEX
  8
0
 10
261.158616
 20
505.089234
 42
-0.077096
  0
VERTEX
  8
0
 10
260.583333
 20
505.000000
 42
-0.099038
  0
VERTEX
  8
0
 10
259.979073
 20
505.120875
 42
-0.097945
  0
VERTEX
  8
0
 10
259.465104
 20
505.465104
 42
-0.097945
  0
VERTEX
  8
0
 10
259.120875
 20
505.979073
 42
-0.099038
  0
VERTEX
  8
0
 10
259.000000
 20
506.583333
 42
-0.190724
  0
VERTEX
  8
0
 10
259.346973
 20
507.459866
 42
-0.244413
  0
VERTEX
  8
0
 10
260.153639
 20
507.742973
 42
-0.165501
  0
VERTEX
  8
0
 10
261.122932
 20
507.250696
 42
-0.113253
  0
SEQEND
  0
POLYLINE
  8
0
 66
1
 70
1
  0
VERTEX
  8
0
 10
532.500000
 20
484.422802
 42
-0.039675
  0
VERTEX
  8
0
 10
534.219125
 20
483.349120
 42
-0.030326
  0
VERTEX
  8
0
 10
535.918187
 20
481.923185
 42
-0.030764
  0
VERTEX
  8
0
 10
537.397643
 20
480.336483
 42
-0.047127
  0
VERTEX
  8
0
 10
538.450337
 20
478.780272
 42
-0.018688
  0
VERTEX
  8
0
 10
539.606576
 20
476.465131
 42
-0.105836
  0
VERTEX
  8
0
 10
539.899014
 20
475.125521
 42
-0.094026
  0
VERTEX
  8
0
 10
539.636753
 20
473.712062
 42
-0.013169
  0
VERTEX
  8
0
 10
538.481944
 20
470.959959
 42
-0.063120
  0
VERTEX
  8
0
 10
536.428083
 20
467.607816
 42
-0.074913
  0
VERTEX
  8
0
 10
533.702455
 20
465.091597
 42
-0.077019
  0
VERTEX
  8
0
 10
530.423404
 20
463.539113
 42
-0.071988
  0
VERTEX
  8
0
 10
526.750000
 20
463.003738
 42
-0.015181
  0
VERTEX
  8
0
 10
525.312403
 20
463.045963
 42
-0.024862
  0
VERTEX
  8
0
 10
524.101562
 20
463.179006
 42
-0.022139
  0
VERTEX
  8
0
 10
523.184968
 20
463.368077
 42
-0.343392
  0
VERTEX
  8
0
 10
523.000000
 20
463.605644
 42
-0.144099
  0
VERTEX
  8
0
 10
523.108277
 20
463.973549
 42
-0.009394
  0
VERTEX
  8
0
 10
523.734375
 20
464.906135
 42
-0.013041
  0
VERTEX
  8
0
 10
524.542316
 20
466.000141
 42
-0.009329
  0
VERTEX
  8
0
 10
525.500000
 20
467.182369
 42
0.075065
  0
VERTEX
  8
0
 10
527.535627
 20
470.505115
 42
0.116301
  0
VERTEX
  8
0
 10
528.096446
 20
473.806935
 42
0.131070
  0
VERTEX
  8
0
 10
527.113571
 20
476.733884
 42
0.110055
  0
VERTEX
  8
0
 10
524.750000
 20
479.011789
 42
0.024789
  0
VERTEX
  8
0
 10
523.272978
 20
479.815141
 42
0.016722
  0
VERTEX
  8
0
 10
521.517044
 20
480.589078
 42
0.016869
  0
VERTEX
  8
0
 10
519.764216
 20
481.224868
 42
0.031866
  0
VERTEX
  8
0
 10
518.308021
 20
481.597497
 42
0.083251
  0
VERTEX
  8
0
 10
514.721343
 20
481.671703
 42
0.008609
  0
VERTEX
  8
0
 10
506.352641
 20
480.298401
 42
0.011625
  0
VERTEX
  8
0
 10
497.453211
 20
478.465515
 42
0.018862
  0
VERTEX
  8
0
 10
490.000000
 20
476.450187
 42
-0.005349
  0
VERTEX
  8
0
 10
487.493853
 20
475.699309
 42
-0.001160
  0
VERTEX
  8
0
 10
483.150000
 20
474.459220
 42
-0.001210
  0
VERTEX
  8
0
 10
478.115631
 20
473.047779
 42
-0.001158
  0
VERTEX
  8
0
 10
473.000000
 20
471.639647
 42
0.007347
  0
VERTEX
  8
0
 10
464.702046
 20
469.244658
 42
0.007788
  0
VERTEX
  8
0
 10
456.638621
 20
466.650524
 42
0.006565
  0
VERTEX
  8
0
 10
447.567275
 20
463.442001
 42
0.003180
  0
VERTEX
  8
0
 10
436.046063
 20
459.112528
 42
-0.040279
  0
VERTEX
  8
0
 10
426.205480
 20
456.226242
 42
-0.031777
  0
VERTEX
  8
0
 10
415.212050
 20
454.662943
 42
-0.032596
  0
VERTEX
  8
0
 10
404.578095
 20
454.529437
 42
-0.056655
  0
VERTEX
  8
0
 10
395.882369
 20
455.984585
 42
-0.072399
  0
VERTEX
  8
0
 10
390.431742
 20
458.441865
 42
-0.062139
  0
VERTEX
  8
0
 10
385.584415
 20
462.460545
 42
-0.066322
  0
VERTEX
  8
0
 10
382.181007
 20
467.207514
 42
-0.121192
  0
VERTEX
  8
0
 10
381.016450
 20
471.799660
 42
-0.079403
  0
VERTEX
  8
0
 10
381.419622
 20
474.443654
 42
-0.059898
  0
VERTEX
  8
0
 10
382.645140
 20
477.119743
 42
-0.060687
  0
VERTEX
  8
0
 10
384.446195
 20
479.391558
 42
-0.088158
  0
VERTEX
  8
0
 10
386.547837
 20
480.839842
 42
-0.147441
  0
VERTEX
  8
0
 10
390.011837
 20
481.309474
 42
-0.181027
  0
VERTEX
  8
0
 10
392.832022
 20
479.708960
 42
-0.235678
  0
VERTEX
  8
0
 10
393.470572
 20
477.024340
 42
-0.197352
  0
VERTEX
  8
0
 10
391.753456
 20
474.614478
 42
-0.056954
  0
VERTEX
  8
0
 10
390.818673
 20
474.164972
 42
-0.093431
  0
VERTEX
  8
0
 10
389.952773
 20
474.035770
 42
-0.086778
  0
VERTEX
  8
0
 10
389.054691
 20
474.228435
 42
-0.043477
  0
VERTEX
  8
0
 10
388.017025
 20
474.757295
 42
0.019555
  0
VERTEX
  8
0
 10
386.167853
 20
475.813954
 42
0.283017
  0
VERTEX
  8
0
 10
385.446806
 20
475.762259
 42
0.227354
  0
VERTEX
  8
0
 10
385.066161
 20
475.066332
 42
0.013350
  0
VERTEX
  8
0
 10
385.000000
 20
472.588894
 42
0.238614
  0
VERTEX
  8
0
 10
388.063183
 20
466.535641
 42
0.088099
  0
VERTEX
  8
0
 10
396.891446
 20
462.182363
 42
0.066242
  0
VERTEX
  8
0
 10
409.493950
 20
460.276597
 42
0.049631
  0
VERTEX
  8
0
 10
423.500000
 20
461.419022
 42
0.021426
  0
VERTEX
  8
0
 10
435.039830
 20
464.040937
 42
0.003971
  0
VERTEX
  8
0
 10
456.002195
 20
469.937351
 42
0.004513
  0
VERTEX
  8
0
 10
477.481192
 20
476.374295
 42
0.011303
  0
VERTEX
  8
0
 10
493.000000
 20
481.565319
 42
-0.029601
  0
VERTEX
  8
0
 10
504.773930
 20
485.030375
 42
-0.038724
  0
VERTEX
  8
0
 10
515.864053
 20
486.702222
 42
-0.044262
  0
VERTEX
  8
0
 10
525.430045
 20
486.546758
 42
-0.093837
  0
SEQEND
  0
POLYLINE
  8
0
 66
1
 70
1
  0
VERTEX
  8
0
 10
237.068499
 20
427.411743
 42
-0.036782
  0
VERTEX
  8
0
 10
242.077123
 20
425.537823
 42
-0.031091
  0
VERTEX
  8
0
 10
247.058946
 20
422.856798
 42
-0.032279
  0
VERTEX
  8
0
 10
251.336070
 20
419.800693
 42
-0.066869
  0
VERTEX
  8
0
 10
254.135750
 20
416.809357
 42
-0.025225
  0
VERTEX
  8
0
 10
255.191874
 20
415.155611
 42
-0.083339
  0
VERTEX
  8
0
 10
255.635628
 20
413.945971
 42
-0.102830
  0
VERTEX
  8
0
 10
255.613188
 20
412.802915
 42
-0.050783
  0
VERTEX
  8
0
 10
255.145891
 20
411.420852
 42
-0.138027
  0
VERTEX
  8
0
 10
253.624376
 20
409.621200
 42
-0.189387
  0
VERTEX
  8
0
 10
251.576342
 20
409.162601
 42
-0.109524
  0
VERTEX
  8
0
 10
248.861575
 20
410.222532
 42
-0.032857
  0
VERTEX
  8
0
 10
245.323971
 20
412.946032
 42
0.047626
  0
VERTEX
  8
0
 10
240.694612
 20
416.297372
 42
0.054665
  0
VERTEX
  8
0
 10
235.717656
 20
418.533130
 42
0.052721
  0
VERTEX
  8
0
 10
230.221696
 20
419.691005
 42
0.039706
  0
VERTEX
  8
0
 10
224.044176
 20
419.832654
 42
0.050133
  0
VERTEX
  8
0
 10
218.041845
 20
418.884761
 42
0.080197
  0
VERTEX
  8
0
 10
213.307297
 20
416.788240
 42
0.081498
  0
VERTEX
  8
0
 10
209.524332
 20
413.337172
 42
0.053450
  0
VERTEX
  8
0
 10
206.375085
 20
408.334209
 42
0.019095
  0
VERTEX
  8
0
 10
204.989075
 20
405.203920
 42
0.048932
  0
VERTEX
  8
0
 10
204.303027
 20
402.825788
 42
0.049092
  0
VERTEX
  8
0
 10
204.093373
 20
400.364199
 42
0.019325
  0
VERTEX
  8
0
 10
204.269687
 20
396.962469
 42
0.075624
  0
VERTEX
  8
0
 10
206.126114
 20
389.421853
 42
0.071878
  0
VERTEX
  8
0
 10
210.160140
 20
382.628461
 42
0.046543
  0
VERTEX
  8
0
 10
217.468976
 20
375.126943
 42
0.013026
  0
VERTEX
  8
0
 10
230.222331
 20
364.827748
 42
-0.011576
  0
VERTEX
  8
0
 10
238.978677
 20
357.798251
 42
-0.025033
  0
VERTEX
  8
0
 10
245.298339
 20
351.915057
 42
-0.032146
  0
VERTEX
  8
0
 10
249.858332
 20
346.575631
 42
-0.046255
  0
VERTEX
  8
0
 10
253.105890
 20
341.280039
 42
-0.030385
  0
VERTEX
  8
0
 10
254.310491
 20
338.406203
 42
-0.041473
  0
VERTEX
  8
0
 10
255.013791
 20
335.688903
 42
-0.031741
  0
VERTEX
  8
0
 10
255.368086
 20
332.387459
 42
-0.010311
  0
VERTEX
  8
0
 10
255.480136
 20
327.478973
 42
-0.010565
  0
VERTEX
  8
0
 10
255.378672
 20
322.118694
 42
-0.041267
  0
VERTEX
  8
0
 10
254.973994
 20
318.832888
 42
-0.046797
  0
VERTEX
  8
0
 10
254.060670
 20
315.865192
 42
-0.016348
  0
VERTEX
  8
0
 10
252.217734
 20
311.790716
 42
-0.032420
  0
VERTEX
  8
0
 10
249.325151
 20
306.765383
 42
-0.054081
  0
VERTEX
  8
0
 10
246.201954
 20
303.020764
 42
-0.052913
  0
VERTEX
  8
0
 10
242.298053
 20
299.979324
 42
-0.029593
  0
VERTEX
  8
0
 10
237.000000
 20
297.105889
 42
-0.024427
  0
VERTEX
  8
0
 10
233.726310
 20
295.764265
 42
-0.040939
  0
VERTEX
  8
0
 10
230.853137
 20
295.005268
 42
-0.033105
  0
VERTEX
  8
0
 10
227.497521
 20
294.633810
 42
-0.010718
  0
VERTEX
  8
0
 10
222.500000
 20
294.520706
 42
-0.010890
  0
VERTEX
  8
0
 10
217.227282
 20
294.629262
 42
-0.038975
  0
VERTEX
  8
0
 10
213.883136
 20
295.033429
 42
-0.044084
  0
VERTEX
  8
0
 10
210.855752
 20
295.924639
 42
-0.016856
  0
VERTEX
  8
0
 10
206.820391
 20
297.669501
 42
-0.034657
  0
VERTEX
  8
0
 10
201.360771
 20
300.731359
 42
-0.030474
  0
VERTEX
  8
0
 10
196.124281
 20
304.640960
 42
-0.027487
  0
VERTEX
  8
0
 10
192.005217
 20
308.534152
 42
-0.191963
  0
VERTEX
  8
0
 10
191.000000
 20
311.055931
 42
-0.116528
  0
VERTEX
  8
0
 10
191.350364
 20
312.538861
 42
-0.053394
  0
VERTEX
  8
0
 10
192.430560
 20
314.221495
 42
-0.053670
  0
VERTEX
  8
0
 10
193.786716
 20
315.579735
 42
-0.171381
  0
VERTEX
  8
0
 10
194.976815
 20
316.000000
 42
-0.144785
  0
VERTEX
  8
0
 10
195.487327
 20
315.849006
 42
-0.008784
  0
VERTEX
  8
0
 10
196.824172
 20
314.948658
 42
-0.012530
  0
VERTEX
  8
0
 10
198.392846
 20
313.792043
 42
-0.008902
  0
VERTEX
  8
0
 10
200.094600
 20
312.420964
 42
0.069447
  0
VERTEX
  8
0
 10
210.611926
 20
305.866192
 42
0.088415
  0
VERTEX
  8
0
 10
221.691588
 20
303.127953
 42
0.099938
  0
VERTEX
  8
0
 10
231.973647
 20
304.506717
 42
0.116989
  0
VERTEX
  8
0
 10
240.266953
 20
309.769178
 42
0.043042
  0
VERTEX
  8
0
 10
243.361216
 20
313.545786
 42
0.057035
  0
VERTEX
  8
0
 10
245.437000
 20
317.471109
 42
0.055438
  0
VERTEX
  8
0
 10
246.610619
 20
321.852373
 42
0.037759
  0
VERTEX
  8
0
 10
247.000000
 20
327.001125
 42
0.083657
  0
VERTEX
  8
0
 10
245.681259
 20
334.827773
 42
0.078778
  0
VERTEX
  8
0
 10
241.860879
 20
341.971626
 42
0.051945
  0
VERTEX
  8
0
 10
234.581792
 20
349.752211
 42
0.015629
  0
VERTEX
  8
0
 10
222.000000
 20
360.002478
 42
-0.014248
  0
VERTEX
  8
0
 10
210.975900
 20
368.933198
 42
-0.040753
  0
VERTEX
  8
0
 10
204.044079
 20
375.940739
 42
-0.054873
  0
VERTEX
  8
0
 10
199.555154
 20
382.661502
 42
-0.049875
  0
VERTEX
  8
0
 10
196.462836
 20
390.413441
 42
-0.091710
  0
VERTEX
  8
0
 10
195.380459
 20
401.538196
 42
-0.093033
  0
VERTEX
  8
0
 10
198.362734
 20
412.253427
 42
-0.093489
  0
VERTEX
  8
0
 10
205.009663
 20
421.117525
 42
-0.093690
  0
VERTEX
  8
0
 10
214.424322
 20
426.943036
 42
-0.050381
  0
VERTEX
  8
0
 10
219.507303
 20
428.331176
 42
-0.036322
  0
VERTEX
  8
0
 10
225.364540
 20
428.879290
 42
-0.035485
  0
VERTEX
  8
0
 10
231.411372
 20
428.575209
 42
-0.040847
  0
SEQEND
  0
POLYLINE
  8
0
 66
1
 70
1
  0
VERTEX
  8
0
 10
666.978417
 20
426.013796
 42
-0.014459
  0
VERTEX
  8
0
 10
672.424719
 20
423.976895
 42
-0.016680
  0
VERTEX
  8
0
 10
677.486423
 20
421.715483
 42
-0.018100
  0
VERTEX
  8
0
 10
681.802391
 20
419.414973
 42
-0.038706
  0
VERTEX
  8
0
 10
684.910296
 20
417.273721
 42
-0.038910
  0
VERTEX
  8
0
 10
686.046218
 20
416.197452
 42
-0.091117
  0
VERTEX
  8
0
 10
686.658273
 20
415.205510
 42
-0.100346
  0
VERTEX
  8
0
 10
686.845273
 20
414.123217
 42
-0.054297
  0
VERTEX
  8
0
 10
686.659385
 20
412.779019
 42
-0.121334
  0
VERTEX
  8
0
 10
685.496836
 20
410.585711
 42
-0.218493
  0
VERTEX
  8
0
 10
683.667956
 20
409.787141
 42
-0.097627
  0
VERTEX
  8
0
 10
680.661731
 20
410.437865
 42
-0.015884
  0
VERTEX
  8
0
 10
675.232950
 20
412.990804
 42
0.024359
  0
VERTEX
  8
0
 10
667.626673
 20
416.411597
 42
0.034036
  0
VERTEX
  8
0
 10
660.518350
 20
418.656320
 42
0.034272
  0
VERTEX
  8
0
 10
653.209564
 20
419.905764
 42
0.025205
  0
VERTEX
  8
0
 10
645.000000
 20
420.319864
 42
0.040617
  0
VERTEX
  8
0
 10
632.888687
 20
419.334389
 42
0.053415
  0
VERTEX
  8
0
 10
622.206739
 20
416.388328
 42
0.055175
  0
VERTEX
  8
0
 10
612.660518
 20
411.344500
 42
0.047789
  0
VERTEX
  8
0
 10
603.934057
 20
404.115478
 42
0.047548
  0
VERTEX
  8
0
 10
596.126144
 20
394.625144
 42
0.051772
  0
VERTEX
  8
0
 10
590.505882
 20
384.087398
 42
0.051332
  0
VERTEX
  8
0
 10
587.135622
 20
372.538587
 42
0.045373
  0
VERTEX
  8
0
 10
586.000000
 20
360.050136
 42
0.025257
  0
VERTEX
  8
0
 10
586.374695
 20
352.637338
 42
0.032664
  0
VERTEX
  8
0
 10
587.501989
 20
345.921812
 42
0.032192
  0
VERTEX
  8
0
 10
589.511045
 20
339.333367
 42
0.023456
  0
VERTEX
  8
0
 10
592.544863
 20
332.300169
 42
0.121828
  0
VERTEX
  8
0
 10
607.477143
 20
314.449363
 42
0.099770
  0
VERTEX
  8
0
 10
630.123877
 20
303.984974
 42
0.100004
  0
VERTEX
  8
0
 10
655.009190
 20
303.123096
 42
0.123054
  0
VERTEX
  8
0
 10
676.258653
 20
312.348709
 42
-0.025655
  0
VERTEX
  8
0
 10
679.730521
 20
314.740188
 42
-0.083449
  0
VERTEX
  8
0
 10
682.310855
 20
315.786909
 42
-0.139393
  0
VERTEX
  8
0
 10
684.322007
 20
315.669840
 42
-0.136571
  0
VERTEX
  8
0
 10
685.989223
 20
314.512986
 42
-0.264733
  0
VERTEX
  8
0
 10
686.545811
 20
311.367424
 42
-0.108486
  0
VERTEX
  8
0
 10
684.165587
 20
307.558980
 42
-0.062211
  0
VERTEX
  8
0
 10
678.828910
 20
303.315153
 42
-0.026457
  0
VERTEX
  8
0
 10
670.776646
 20
298.971893
 42
-0.030662
  0
VERTEX
  8
0
 10
664.203730
 20
296.343166
 42
-0.040329
  0
VERTEX
  8
0
 10
657.929550
 20
294.817550
 42
-0.034006
  0
VERTEX
  8
0
 10
650.710074
 20
294.166550
 42
-0.014697
  0
VERTEX
  8
0
 10
641.051700
 20
294.238484
 42
-0.007542
  0
VERTEX
  8
0
 10
634.122093
 20
294.598620
 42
-0.023033
  0
VERTEX
  8
0
 10
629.444508
 20
295.129763
 42
-0.029069
  0
VERTEX
  8
0
 10
625.461694
 20
296.008895
 42
-0.019177
  0
VERTEX
  8
0
 10
621.000000
 20
297.456422
 42
-0.032563
  0
VERTEX
  8
0
 10
610.241048
 20
302.224653
 42
-0.044192
  0
VERTEX
  8
0
 10
601.303251
 20
307.961129
 42
-0.046505
  0
VERTEX
  8
0
 10
593.862851
 20
314.918677
 42
-0.042524
  0
VERTEX
  8
0
 10
587.585685
 20
323.332294
 42
-0.104237
  0
VERTEX
  8
0
 10
577.882793
 20
350.057536
 42
-0.098914
  0
VERTEX
  8
0
 10
579.521907
 20
378.962288
 42
-0.101092
  0
VERTEX
  8
0
 10
592.035761
 20
404.519114
 42
-0.114195
  0
VERTEX
  8
0
 10
613.133718
 20
421.810365
 42
-0.021536
  0
VERTEX
  8
0
 10
621.674903
 20
425.584636
 42
-0.043883
  0
VERTEX
  8
0
 10
628.706919
 20
427.647240
 42
-0.040443
  0
VERTEX
  8
0
 10
636.350674
 20
428.543808
 42
-0.015748
  0
VERTEX
  8
0
 10
647.000000
 20
428.590926
 42
-0.006796
  0
VERTEX
  8
0
 10
654.071443
 20
428.303237
 42
-0.018511
  0
VERTEX
  8
0
 10
659.059621
 20
427.846700
 42
-0.024651
  0
VERTEX
  8
0
 10
663.088298
 20
427.123674
 42
-0.025531
  0
SEQEND
  0
POLYLINE
  8
0
 66
1
 70
1
  0
VERTEX
  8
0
 10
311.744071
 20
425.619167
 42
-0.036446
  0
VERTEX
  8
0
 10
320.260934
 20
422.606769
 42
-0.057983
  0
VERTEX
  8
0
 10
326.927351
 20
418.712778
 42
-0.063194
  0
VERTEX
  8
0
 10
332.118806
 20
413.671537
 42
-0.054150
  0
VERTEX
  8
0
 10
336.204862
 20
407.235430
 42
-0.017182
  0
VERTEX
  8
0
 10
338.121861
 20
402.978307
 42
-0.051253
  0
VERTEX
  8
0
 10
339.023421
 20
399.916143
 42
-0.039076
  0
VERTEX
  8
0
 10
339.405958
 20
396.313974
 42
-0.006922
  0
VERTEX
  8
0
 10
339.500000
 20
389.521027
 42
-0.006425
  0
VERTEX
  8
0
 10
339.411137
 20
382.606272
 42
-0.042055
  0
VERTEX
  8
0
 10
339.031270
 20
379.159308
 42
-0.057680
  0
VERTEX
  8
0
 10
338.115068
 20
376.289740
 42
-0.018157
  0
VERTEX
  8
0
 10
336.109558
 20
372.247905
 42
-0.055401
  0
VERTEX
  8
0
 10
330.871208
 20
364.714407
 42
-0.060154
  0
VERTEX
  8
0
 10
324.234868
 20
358.747267
 42
-0.059090
  0
VERTEX
  8
0
 10
316.260050
 20
354.451037
 42
-0.050479
  0
VERTEX
  8
0
 10
307.067351
 20
351.855044
 42
-0.027238
  0
VERTEX
  8
0
 10
302.646891
 20
351.322498
 42
-0.110513
  0
VERTEX
  8
0
 10
299.984425
 20
351.737700
 42
-0.189199
  0
VERTEX
  8
0
 10
298.531944
 20
353.087601
 42
-0.112473
  0
VERTEX
  8
0
 10
298.000000
 20
355.422445
 42
-0.085458
  0
VERTEX
  8
0
 10
298.319951
 20
357.280759
 42
-0.109915
  0
VERTEX
  8
0
 10
299.238230
 20
358.745586
 42
-0.110775
  0
VERTEX
  8
0
 10
300.684592
 20
359.675192
 42
-0.087873
  0
VERTEX
  8
0
 10
302.518499
 20
360.000000
 42
0.062463
  0
VERTEX
  8
0
 10
305.955315
 20
360.431028
 42
0.023940
  0
VERTEX
  8
0
 10
310.569209
 20
361.845124
 42
0.023954
  0
VERTEX
  8
0
 10
315.288522
 20
363.802506
 42
0.036006
  0
VERTEX
  8
0
 10
319.169679
 20
365.989001
 42
0.121626
  0
VERTEX
  8
0
 10
327.620124
 20
375.175116
 42
0.106032
  0
VERTEX
  8
0
 10
331.368781
 20
387.720063
 42
0.107643
  0
VERTEX
  8
0
 10
329.622414
 20
400.542515
 42
0.128965
  0
VERTEX
  8
0
 10
322.699738
 20
410.525018
 42
0.050899
  0
VERTEX
  8
0
 10
317.583636
 20
414.072164
 42
0.052072
  0
VERTEX
  8
0
 10
311.894499
 20
416.480677
 42
0.042726
  0
VERTEX
  8
0
 10
304.909647
 20
417.976923
 42
0.020385
  0
VERTEX
  8
0
 10
295.750000
 20
418.756077
 42
0.000000
  0
VERTEX
  8
0
 10
284.000000
 20
419.274537
 42
0.000000
  0
VERTEX
  8
0
 10
284.000000
 20
358.837269
 42
-0.000916
  0
VERTEX
  8
0
 10
283.945326
 20
328.979258
 42
-0.003951
  0
VERTEX
  8
0
 10
283.740072
 20
311.231170
 42
-0.001761
  0
VERTEX
  8
0
 10
283.452367
 20
298.717736
 42
-0.192032
  0
VERTEX
  8
0
 10
282.800000
 20
297.200000
 42
-0.070395
  0
VERTEX
  8
0
 10
282.188407
 20
296.740024
 42
-0.038897
  0
VERTEX
  8
0
 10
281.335625
 20
296.352500
 42
-0.037889
  0
VERTEX
  8
0
 10
280.392078
 20
296.088285
 42
-0.049362
  0
VERTEX
  8
0
 10
279.500000
 20
296.000000
 42
-0.049362
  0
VERTEX
  8
0
 10
278.607922
 20
296.088285
 42
-0.037889
  0
VERTEX
  8
0
 10
277.664375
 20
296.352500
 42
-0.038897
  0
VERTEX
  8
0
 10
276.811593
 20
296.740024
 42
-0.070395
  0
VERTEX
  8
0
 10
276.200000
 20
297.200000
 42
-0.192391
  0
VERTEX
  8
0
 10
275.545822
 20
298.724859
 42
-0.001625
  0
VERTEX
  8
0
 10
275.259489
 20
311.813130
 42
-0.003784
  0
VERTEX
  8
0
 10
275.054503
 20
330.355843
 42
-0.000871
  0
VERTEX
  8
0
 10
275.000000
 20
361.628571
 42
-0.000555
  0
VERTEX
  8
0
 10
275.042554
 20
399.968051
 42
-0.006047
  0
VERTEX
  8
0
 10
275.263566
 20
415.406584
 42
-0.008768
  0
VERTEX
  8
0
 10
275.650688
 20
424.210052
 42
-0.182981
  0
VERTEX
  8
0
 10
276.715534
 20
426.572677
 42
-0.123101
  0
VERTEX
  8
0
 10
278.224547
 20
427.478105
 42
-0.056517
  0
VERTEX
  8
0
 10
280.495469
 20
427.897323
 42
-0.025027
  0
VERTEX
  8
0
 10
284.355873
 20
427.972964
 42
-0.003371
  0
VERTEX
  8
0
 10
292.465534
 20
427.671196
 42
-0.007662
  0
VERTEX
  8
0
 10
298.223209
 20
427.329596
 42
-0.007865
  0
VERTEX
  8
0
 10
303.917821
 20
426.813894
 42
-0.007665
  0
VERTEX
  8
0
 10
308.841024
 20
426.213402
 42
-0.032612
  0
SEQEND
  0
POLYLINE
  8
0
 66
1
 70
1
  0
VERTEX
  8
0
 10
397.064480
 20
424.378323
 42
-0.014526
  0
VERTEX
  8
0
 10
401.920411
 20
422.627481
 42
-0.042722
  0
VERTEX
  8
0
 10
405.099849
 20
421.050288
 42
-0.043598
  0
VERTEX
  8
0
 10
407.929845
 20
418.973753
 42
-0.015624
  0
VERTEX
  8
0
 10
411.588737
 20
415.555471
 42
-0.033298
  0
VERTEX
  8
0
 10
415.832397
 20
410.732257
 42
-0.055430
  0
VERTEX
  8
0
 10
418.631549
 20
406.107218
 42
-0.053063
  0
VERTEX
  8
0
 10
420.421851
 20
400.837046
 42
-0.027827
  0
VERTEX
  8
0
 10
421.565992
 20
394.000000
 42
-0.049400
  0
VERTEX
  8
0
 10
421.632290
 20
388.209697
 42
-0.029329
  0
VERTEX
  8
0
 10
420.627961
 20
381.375471
 42
-0.029387
  0
VERTEX
  8
0
 10
418.840899
 20
374.746113
 42
-0.052053
  0
VERTEX
  8
0
 10
416.503214
 20
369.595696
 42
-0.037835
  0
VERTEX
  8
0
 10
414.159625
 20
366.211822
 42
-0.022938
  0
VERTEX
  8
0
 10
410.919891
 20
362.571427
 42
-0.023021
  0
VERTEX
  8
0
 10
407.442811
 20
359.321368
 42
-0.046980
  0
VERTEX
  8
0
 10
404.386957
 20
357.177653
 42
0.424330
  0
VERTEX
  8
0
 10
403.968563
 20
355.541417
 42
0.044263
  0
VERTEX
  8
0
 10
406.603040
 20
352.008449
 42
0.011394
  0
VERTEX
  8
0
 10
413.180927
 20
344.975660
 42
0.000492
  0
VERTEX
  8
0
 10
436.835129
 20
320.861033
 42
-0.002245
  0
VERTEX
  8
0
 10
447.342628
 20
310.073608
 42
-0.017742
  0
VERTEX
  8
0
 10
452.007846
 20
304.884479
 42
-0.038098
  0
VERTEX
  8
0
 10
454.329347
 20
301.637079
 42
-0.166085
  0
VERTEX
  8
0
 10
454.827137
 20
299.361033
 42
-0.042857
  0
VERTEX
  8
0
 10
454.524255
 20
297.863098
 42
-0.132807
  0
VERTEX
  8
0
 10
453.990475
 20
296.990993
 42
-0.127904
  0
VERTEX
  8
0
 10
453.076534
 20
296.488063
 42
-0.038468
  0
VERTEX
  8
0
 10
451.500000
 20
296.214615
 42
-0.184418
  0
VERTEX
  8
0
 10
448.896464
 20
296.934869
 42
-0.027182
  0
VERTEX
  8
0
 10
444.602574
 20
300.471437
 42
-0.012788
  0
VERTEX
  8
0
 10
437.396407
 20
307.443772
 42
-0.001303
  0
VERTEX
  8
0
 10
420.781515
 20
324.451699
 42
-0.001263
  0
VERTEX
  8
0
 10
410.046619
 20
335.553930
 42
-0.001901
  0
VERTEX
  8
0
 10
400.748789
 20
345.292472
 42
-0.000745
  0
VERTEX
  8
0
 10
392.810350
 20
353.695773
 42
-0.043886
  0
VERTEX
  8
0
 10
391.508830
 20
355.346180
 42
-0.088168
  0
VERTEX
  8
0
 10
390.543062
 20
357.604208
 42
-0.193745
  0
VERTEX
  8
0
 10
390.827103
 20
359.428363
 42
-0.122268
  0
VERTEX
  8
0
 10
392.495798
 20
361.113326
 42
-0.027230
  0
VERTEX
  8
0
 10
396.094131
 20
363.044089
 42
0.060418
  0
VERTEX
  8
0
 10
402.727339
 20
367.190942
 42
0.071273
  0
VERTEX
  8
0
 10
407.764612
 20
372.608027
 42
0.070785
  0
VERTEX
  8
0
 10
411.102693
 20
379.254293
 42
0.058487
  0
VERTEX
  8
0
 10
412.735363
 20
387.018162
 42
0.040360
  0
VERTEX
  8
0
 10
412.788176
 20
392.433283
 42
0.040440
  0
VERTEX
  8
0
 10
411.970031
 20
397.782903
 42
0.042277
  0
VERTEX
  8
0
 10
410.361556
 20
402.684212
 42
0.056387
  0
VERTEX
  8
0
 10
408.058874
 20
406.760029
 42
0.096466
  0
VERTEX
  8
0
 10
402.448832
 20
412.002562
 42
0.057139
  0
VERTEX
  8
0
 10
394.154265
 20
415.958841
 42
0.050769
  0
VERTEX
  8
0
 10
384.043004
 20
418.320470
 42
0.042150
  0
VERTEX
  8
0
 10
373.000000
 20
418.803912
 42
0.000000
  0
VERTEX
  8
0
 10
365.500000
 20
418.500000
 42
0.000000
  0
VERTEX
  8
0
 10
365.000000
 20
357.500000
 42
0.000000
  0
VERTEX
  8
0
 10
364.500000
 20
296.500000
 42
0.000000
  0
VERTEX
  8
0
 10
361.000000
 20
296.500000
 42
0.000000
  0
VERTEX
  8
0
 10
357.500000
 20
296.500000
 42
0.000000
  0
VERTEX
  8
0
 10
357.239746
 20
361.000000
 42
-0.000509
  0
VERTEX
  8
0
 10
357.119434
 20
400.877773
 42
-0.006193
  0
VERTEX
  8
0
 10
357.278222
 20
416.163820
 42
-0.009160
  0
VERTEX
  8
0
 10
357.631797
 20
424.762993
 42
-0.217310
  0
VERTEX
  8
0
 10
358.739746
 20
426.853350
 42
-0.123631
  0
VERTEX
  8
0
 10
360.253223
 20
427.510138
 42
-0.027875
  0
VERTEX
  8
0
 10
363.064551
 20
427.814053
 42
-0.018019
  0
VERTEX
  8
0
 10
367.406845
 20
427.883177
 42
-0.004396
  0
VERTEX
  8
0
 10
374.564480
 20
427.676202
 42
-0.006664
  0
VERTEX
  8
0
 10
382.325967
 20
427.279796
 42
-0.020298
  0
VERTEX
  8
0
 10
387.575049
 20
426.726891
 42
-0.025673
  0
VERTEX
  8
0
 10
392.050708
 20
425.834198
 42
-0.017200
  0
SEQEND
  0
POLYLINE
  8
0
 66
1
 70
1
  0
VERTEX
  8
0
 10
460.253806
 20
426.750000
 42
-0.207502
  0
VERTEX
  8
0
 10
461.231737
 20
424.998323
 42
-0.013094
  0
VERTEX
  8
0
 10
461.676730
 20
418.979251
 42
-0.008732
  0
VERTEX
  8
0
 10
461.990815
 20
408.563743
 42
-0.000991
  0
VERTEX
  8
0
 10
462.242987
 20
385.000000
 42
0.000000
  0
VERTEX
  8
0
 10
462.596104
 20
344.500000
 42
0.000000
  0
VERTEX
  8
0
 10
465.287353
 20
336.421589
 42
0.038046
  0
VERTEX
  8
0
 10
469.561112
 20
326.246109
 42
0.054404
  0
VERTEX
  8
0
 10
474.941707
 20
318.076207
 42
0.057885
  0
VERTEX
  8
0
 10
481.668904
 20
311.630047
 42
0.051520
  0
VERTEX
  8
0
 10
489.952633
 20
306.602637
 42
0.019694
  0
VERTEX
  8
0
 10
494.204151
 20
304.789325
 42
0.051635
  0
VERTEX
  8
0
 10
497.405881
 20
303.935577
 42
0.034346
  0
VERTEX
  8
0
 10
501.385595
 20
303.581467
 42
0.005020
  0
VERTEX
  8
0
 10
509.500000
 20
303.500000
 42
0.005020
  0
VERTEX
  8
0
 10
517.675670
 20
303.582084
 42
0.035216
  0
VERTEX
  8
0
 10
521.642675
 20
303.942011
 42
0.052038
  0
VERTEX
  8
0
 10
524.868805
 20
304.817064
 42
0.018382
  0
VERTEX
  8
0
 10
529.275265
 20
306.709284
 42
0.043938
  0
VERTEX
  8
0
 10
535.257047
 20
310.215624
 42
0.041071
  0
VERTEX
  8
0
 10
540.681165
 20
314.785263
 42
0.040832
  0
VERTEX
  8
0
 10
545.314664
 20
320.209082
 42
0.042248
  0
VERTEX
  8
0
 10
548.946091
 20
326.254695
 42
0.043953
  0
VERTEX
  8
0
 10
552.274589
 20
334.871658
 42
0.044682
  0
VERTEX
  8
0
 10
554.022762
 20
343.890440
 42
0.022309
  0
VERTEX
  8
0
 10
554.796463
 20
357.320366
 42
0.003121
  0
VERTEX
  8
0
 10
554.982636
 20
385.139216
 42
-0.000962
  0
VERTEX
  8
0
 10
555.038345
 20
408.619424
 42
-0.010108
  0
VERTEX
  8
0
 10
555.273820
 20
418.224654
 42
-0.021930
  0
VERTEX
  8
0
 10
555.745852
 20
423.539710
 42
-0.137922
  0
VERTEX
  8
0
 10
556.812074
 20
426.016249
 42
-0.120328
  0
VERTEX
  8
0
 10
558.632433
 20
427.401915
 42
-0.156271
  0
VERTEX
  8
0
 10
560.706030
 20
427.612264
 42
-0.157789
  0
VERTEX
  8
0
 10
562.501472
 20
426.579639
 42
-0.123105
  0
VERTEX
  8
0
 10
563.568350
 20
424.583693
 42
-0.059887
  0
VERTEX
  8
0
 10
563.791710
 20
422.824252
 42
-0.000683
  0
VERTEX
  8
0
 10
563.854344
 20
410.956843
 42
-0.002088
  0
VERTEX
  8
0
 10
563.850722
 20
397.241061
 42
-0.001359
  0
VERTEX
  8
0
 10
563.737309
 20
381.400343
 42
-0.001261
  0
VERTEX
  8
0
 10
563.453427
 20
358.509110
 42
-0.007724
  0
VERTEX
  8
0
 10
563.094718
 20
346.702010
 42
-0.014611
  0
VERTEX
  8
0
 10
562.544180
 20
339.379086
 42
-0.044777
  0
VERTEX
  8
0
 10
561.586837
 20
334.500000
 42
-0.054281
  0
VERTEX
  8
0
 10
555.838055
 20
320.581947
 42
-0.065358
  0
VERTEX
  8
0
 10
547.497912
 20
309.159718
 42
-0.068718
  0
VERTEX
  8
0
 10
536.886992
 20
300.712377
 42
-0.070198
  0
VERTEX
  8
0
 10
524.458446
 20
295.531192
 42
-0.041661
  0
VERTEX
  8
0
 10
518.084839
 20
294.427068
 42
-0.022141
  0
VERTEX
  8
0
 10
510.077184
 20
294.074645
 42
-0.022047
  0
VERTEX
  8
0
 10
501.931226
 20
294.436395
 42
-0.035771
  0
VERTEX
  8
0
 10
495.093068
 20
295.539783
 42
-0.055905
  0
VERTEX
  8
0
 10
484.542198
 20
299.309864
 42
-0.056819
  0
VERTEX
  8
0
 10
475.151086
 20
305.308007
 42
-0.056048
  0
VERTEX
  8
0
 10
467.244527
 20
313.349949
 42
-0.051785
  0
VERTEX
  8
0
 10
461.078004
 20
323.153984
 42
-0.036304
  0
VERTEX
  8
0
 10
457.073070
 20
333.025898
 42
-0.050146
  0
VERTEX
  8
0
 10
455.056645
 20
342.366349
 42
-0.024975
  0
VERTEX
  8
0
 10
454.210585
 20
355.891883
 42
-0.003025
  0
VERTEX
  8
0
 10
454.017364
 20
385.700310
 42
-0.000876
  0
VERTEX
  8
0
 10
454.049641
 20
410.160588
 42
-0.009735
  0
VERTEX
  8
0
 10
454.269696
 20
419.921671
 42
-0.018007
  0
VERTEX
  8
0
 10
454.689957
 20
425.297357
 42
-0.236612
  0
VERTEX
  8
0
 10
455.750000
 20
426.919901
 42
-0.021404
  0
VERTEX
  8
0
 10
457.247400
 20
427.708259
 42
-0.120456
  0
VERTEX
  8
0
 10
458.126562
 20
427.888352
 42
-0.128616
  0
VERTEX
  8
0
 10
458.961047
 20
427.636115
 42
-0.025770
  0
SEQEND
  0
POLYLINE
  8
0
 66
1
 70
1
  0
VERTEX
  8
0
 10
765.428571
 20
426.428571
 42
-0.083766
  0
VERTEX
  8
0
 10
766.497756
 20
424.925388
 42
-0.098202
  0
VERTEX
  8
0
 10
766.938933
 20
423.235293
 42
-0.104542
  0
VERTEX
  8
0
 10
766.692035
 20
421.587895
 42
-0.107488
  0
VERTEX
  8
0
 10
765.800000
 20
420.200000
 42
-0.181348
  0
VERTEX
  8
0
 10
764.456676
 20
419.589440
 42
-0.006431
  0
VERTEX
  8
0
 10
758.684478
 20
419.271978
 42
-0.008249
  0
VERTEX
  8
0
 10
750.376367
 20
419.059392
 42
-0.002271
  0
VERTEX
  8
0
 10
737.300000
 20
419.000000
 42
0.000000
  0
VERTEX
  8
0
 10
710.000000
 20
419.000000
 42
0.000000
  0
VERTEX
  8
0
 10
710.000000
 20
392.500000
 42
0.000000
  0
VERTEX
  8
0
 10
710.000000
 20
366.000000
 42
0.000000
  0
VERTEX
  8
0
 10
731.171259
 20
366.000000
 42
-0.002277
  0
VERTEX
  8
0
 10
743.090061
 20
365.945730
 42
-0.015683
  0
VERTEX
  8
0
 10
748.939876
 20
365.708863
 42
-0.030707
  0
VERTEX
  8
0
 10
752.369287
 20
365.249254
 42
-0.136067
  0
VERTEX
  8
0
 10
754.171259
 20
364.345012
 42
-0.048480
  0
VERTEX
  8
0
 10
755.477063
 20
362.910164
 42
-0.153687
  0
VERTEX
  8
0
 10
755.900685
 20
361.699041
 42
-0.148557
  0
VERTEX
  8
0
 10
755.560405
 20
360.437524
 42
-0.044314
  0
VERTEX
  8
0
 10
754.345012
 20
358.828741
 42
-0.147664
  0
VERTEX
  8
0
 10
752.637520
 20
357.800515
 42
-0.042394
  0
VERTEX
  8
0
 10
749.558957
 20
357.290803
 42
-0.017875
  0
VERTEX
  8
0
 10
744.034710
 20
357.049810
 42
-0.001963
  0
VERTEX
  8
0
 10
731.345012
 20
357.000000
 42
0.000000
  0
VERTEX
  8
0
 10
710.000000
 20
357.000000
 42
0.000000
  0
VERTEX
  8
0
 10
710.000000
 20
330.500000
 42
0.000000
  0
VERTEX
  8
0
 10
710.000000
 20
304.000000
 42
0.000000
  0
VERTEX
  8
0
 10
737.377555
 20
304.000000
 42
-0.002589
  0
VERTEX
  8
0
 10
757.177744
 20
303.897481
 42
-0.043974
  0
VERTEX
  8
0
 10
763.660277
 20
303.258539
 42
-0.213206
  0
VERTEX
  8
0
 10
766.130985
 20
301.545440
 42
-0.200192
  0
VERTEX
  8
0
 10
766.589097
 20
298.498970
 42
0.000000
  0
VERTEX
  8
0
 10
765.954860
 20
295.971967
 42
0.000000
  0
VERTEX
  8
0
 10
734.227430
 20
296.235984
 42
0.000000
  0
VERTEX
  8
0
 10
702.500000
 20
296.500000
 42
0.000000
  0
VERTEX
  8
0
 10
702.239746
 20
361.000000
 42
-0.000530
  0
VERTEX
  8
0
 10
702.122959
 20
400.255940
 42
-0.005958
  0
VERTEX
  8
0
 10
702.278872
 20
415.846942
 42
-0.007846
  0
VERTEX
  8
0
 10
702.614826
 20
424.776289
 42
-0.224634
  0
VERTEX
  8
0
 10
703.680875
 20
426.750000
 42
-0.141807
  0
VERTEX
  8
0
 10
705.429041
 20
427.391893
 42
-0.007446
  0
VERTEX
  8
0
 10
711.445398
 20
427.724764
 42
-0.008022
  0
VERTEX
  8
0
 10
720.315784
 20
427.940684
 42
-0.002073
  0
VERTEX
  8
0
 10
734.619701
 20
428.000000
 42
-0.001545
  0
VERTEX
  8
0
 10
751.073819
 20
427.949151
 42
-0.011196
  0
VERTEX
  8
0
 10
758.982605
 20
427.723126
 42
-0.018556
  0
VERTEX
  8
0
 10
763.620944
 20
427.313573
 42
-0.166571
  0
SEQEND
  0
POLYLINE
  8
0
 66
1
 70
1
  0
VERTEX
  8
0
 10
265.554669
 20
252.407034
 42
-0.100706
  0
VERTEX
  8
0
 10
268.566364
 20
250.146850
 42
-0.066340
  0
VERTEX
  8
0
 10
270.997614
 20
246.545180
 42
-0.063036
  0
VERTEX
  8
0
 10
272.506883
 20
242.215036
 42
-0.070462
  0
VERTEX
  8
0
 10
272.810405
 20
237.809496
 42
-0.055785
  0
VERTEX
  8
0
 10
272.263196
 20
234.858651
 42
-0.204587
  0
VERTEX
  8
0
 10
271.067529
 20
233.434535
 42
-0.410344
  0
VERTEX
  8
0
 10
269.899209
 20
233.808790
 42
-0.094612
  0
VERTEX
  8
0
 10
269.237338
 20
236.000000
 42
0.048307
  0
VERTEX
  8
0
 10
267.995502
 20
242.088008
 42
0.093972
  0
VERTEX
  8
0
 10
265.690839
 20
246.459707
 42
0.117738
  0
VERTEX
  8
0
 10
262.354990
 20
249.069334
 42
0.107778
  0
VERTEX
  8
0
 10
258.087648
 20
250.000000
 42
0.067120
  0
VERTEX
  8
0
 10
254.918712
 20
249.572678
 42
0.082588
  0
VERTEX
  8
0
 10
252.213742
 20
248.322685
 42
0.081435
  0
VERTEX
  8
0
 10
250.031272
 20
246.247553
 42
0.063162
  0
VERTEX
  8
0
 10
248.394367
 20
243.401426
 42
0.092728
  0
VERTEX
  8
0
 10
247.277012
 20
238.180942
 42
0.004464
  0
VERTEX
  8
0
 10
246.973161
 20
220.303873
 42
0.005617
  0
VERTEX
  8
0
 10
247.028782
 20
202.738774
 42
0.064226
  0
VERTEX
  8
0
 10
248.011189
 20
195.899909
 42
0.059513
  0
VERTEX
  8
0
 10
249.308560
 20
192.742235
 42
0.093601
  0
VERTEX
  8
0
 10
251.181650
 20
190.497459
 42
0.090955
  0
VERTEX
  8
0
 10
253.786768
 20
189.049327
 42
0.053475
  0
VERTEX
  8
0
 10
257.276439
 20
188.272309
 42
0.084583
  0
VERTEX
  8
0
 10
261.450896
 20
188.508515
 42
0.130338
  0
VERTEX
  8
0
 10
264.633110
 20
190.183466
 42
0.109409
  0
VERTEX
  8
0
 10
266.930659
 20
193.476878
 42
0.048572
  0
VERTEX
  8
0
 10
268.474440
 20
198.573686
 42
-0.015568
  0
VERTEX
  8
0
 10
269.106904
 20
201.297253
 42
-0.042304
  0
VERTEX
  8
0
 10
269.774202
 20
203.160720
 42
-0.064442
  0
VERTEX
  8
0
 10
270.502939
 20
204.330513
 42
-0.175225
  0
VERTEX
  8
0
 10
271.328758
 20
204.823324
 42
-0.156738
  0
VERTEX
  8
0
 10
272.159252
 20
204.723316
 42
-0.198734
  0
VERTEX
  8
0
 10
272.679899
 20
204.161801
 42
-0.077176
  0
VERTEX
  8
0
 10
272.938128
 20
202.896040
 42
-0.011882
  0
VERTEX
  8
0
 10
272.998446
 20
200.323324
 42
-0.082117
  0
VERTEX
  8
0
 10
271.917565
 20
193.799376
 42
-0.104142
  0
VERTEX
  8
0
 10
268.807467
 20
188.558660
 42
-0.109311
  0
VERTEX
  8
0
 10
263.985071
 20
185.188814
 42
-0.098354
  0
VERTEX
  8
0
 10
258.000000
 20
184.000000
 42
-0.065909
  0
VERTEX
  8
0
 10
253.891075
 20
184.543992
 42
-0.070388
  0
VERTEX
  8
0
 10
250.163562
 20
186.136677
 42
-0.071091
  0
VERTEX
  8
0
 10
247.053913
 20
188.683827
 42
-0.069358
  0
VERTEX
  8
0
 10
244.751554
 20
192.019933
 42
-0.072195
  0
VERTEX
  8
0
 10
243.810425
 20
194.846256
 42
-0.027948
  0
VERTEX
  8
0
 10
243.309272
 20
198.953508
 42
-0.014129
  0
VERTEX
  8
0
 10
243.060972
 20
205.611025
 42
-0.002239
  0
VERTEX
  8
0
 10
243.001554
 20
218.684900
 42
-0.003664
  0
VERTEX
  8
0
 10
243.071820
 20
228.361626
 42
-0.006588
  0
VERTEX
  8
0
 10
243.292213
 20
236.297339
 42
-0.004968
  0
VERTEX
  8
0
 10
243.611339
 20
242.564443
 42
-0.075484
  0
VERTEX
  8
0
 10
244.066612
 20
244.684900
 42
-0.052474
  0
VERTEX
  8
0
 10
245.341876
 20
247.214012
 42
-0.038732
  0
VERTEX
  8
0
 10
247.238869
 20
249.712981
 42
-0.039634
  0
VERTEX
  8
0
 10
249.409008
 20
251.795676
 42
-0.073486
  0
VERTEX
  8
0
 10
251.500000
 20
253.045972
 42
-0.074792
  0
VERTEX
  8
0
 10
254.465995
 20
253.780898
 42
-0.034768
  0
VERTEX
  8
0
 10
258.440004
 20
253.876601
 42
-0.034719
  0
VERTEX
  8
0
 10
262.450116
 20
253.414044
 42
-0.064794
  0
SEQEND
  0
POLYLINE
  8
0
 66
1
 70
1
  0
VERTEX
  8
0
 10
303.102117
 20
251.712670
 42
-0.061163
  0
VERTEX
  8
0
 10
305.915679
 20
249.271445
 42
-0.071799
  0
VERTEX
  8
0
 10
307.880408
 20
246.340946
 42
-0.061561
  0
VERTEX
  8
0
 10
309.134569
 20
242.610110
 42
-0.031712
  0
VERTEX
  8
0
 10
309.813028
 20
237.722269
 42
-0.038088
  0
VERTEX
  8
0
 10
309.804716
 20
232.586017
 42
-0.044572
  0
VERTEX
  8
0
 10
308.995561
 20
227.781299
 42
-0.049690
  0
VERTEX
  8
0
 10
307.497062
 20
223.741795
 42
-0.090769
  0
VERTEX
  8
0
 10
305.416981
 20
220.922008
 42
0.000000
  0
VERTEX
  8
0
 10
303.054205
 20
218.702294
 42
0.000000
  0
VERTEX
  8
0
 10
305.977778
 20
215.372528
 42
-0.061873
  0
VERTEX
  8
0
 10
308.187361
 20
212.121521
 42
-0.072089
  0
VERTEX
  8
0
 10
309.394854
 20
208.589667
 42
-0.043960
  0
VERTEX
  8
0
 10
309.882124
 20
203.614870
 42
-0.009604
  0
VERTEX
  8
0
 10
309.800837
 20
195.000000
 42
-0.005141
  0
VERTEX
  8
0
 10
309.584649
 20
189.448938
 42
-0.030171
  0
VERTEX
  8
0
 10
309.265862
 20
186.550140
 42
-0.067068
  0
VERTEX
  8
0
 10
308.778369
 20
184.995114
 42
-0.291095
  0
VERTEX
  8
0
 10
308.000000
 20
184.500000
 42
-0.312042
  0
VERTEX
  8
0
 10
307.198274
 20
185.054319
 42
-0.051629
  0
VERTEX
  8
0
 10
306.692639
 20
186.972335
 42
-0.024856
  0
VERTEX
  8
0
 10
306.322386
 20
190.489250
 42
-0.004063
  0
VERTEX
  8
0
 10
306.000000
 20
197.334008
 42
0.000000
  0
VERTEX
  8
0
 10
305.500000
 20
210.168017
 42
0.000000
  0
VERTEX
  8
0
 10
302.234223
 20
213.084008
 42
0.034206
  0
VERTEX
  8
0
 10
300.156449
 20
214.698209
 42
0.078898
  0
VERTEX
  8
0
 10
298.367480
 20
215.528724
 42
0.057531
  0
VERTEX
  8
0
 10
296.079862
 20
215.903133
 42
0.011824
  0
VERTEX
  8
0
 10
291.984223
 20
216.000000
 42
0.000000
  0
VERTEX
  8
0
 10
285.000000
 20
216.000000
 42
0.000000
  0
VERTEX
  8
0
 10
285.000000
 20
200.468615
 42
-0.003039
  0
VERTEX
  8
0
 10
284.947267
 20
191.791967
 42
-0.021673
  0
VERTEX
  8
0
 10
284.714342
 20
187.598924
 42
-0.045753
  0
VERTEX
  8
0
 10
284.264882
 20
185.265322
 42
-0.234848
  0
VERTEX
  8
0
 10
283.399075
 20
184.322898
 42
-0.089203
  0
VERTEX
  8
0
 10
282.720843
 20
184.193534
 42
-0.078970
  0
VERTEX
  8
0
 10
282.008817
 20
184.299018
 42
-0.080028
  0
VERTEX
  8
0
 10
281.372891
 20
184.617582
 42
-0.095843
  0
VERTEX
  8
0
 10
280.914388
 20
185.104283
 42
-0.140405
  0
VERTEX
  8
0
 10
280.202498
 20
187.529792
 42
-0.000483
  0
VERTEX
  8
0
 10
280.031718
 20
218.401586
 42
-0.000700
  0
VERTEX
  8
0
 10
279.935522
 20
248.776209
 42
-0.092305
  0
VERTEX
  8
0
 10
280.606989
 20
252.418213
 42
-0.195587
  0
VERTEX
  8
0
 10
281.358874
 20
253.220940
 42
-0.068255
  0
VERTEX
  8
0
 10
282.902449
 20
253.690813
 42
-0.033460
  0
VERTEX
  8
0
 10
285.572114
 20
253.937923
 42
-0.006351
  0
VERTEX
  8
0
 10
290.459106
 20
254.000000
 42
-0.008090
  0
VERTEX
  8
0
 10
295.659009
 20
253.915855
 42
-0.036671
  0
VERTEX
  8
0
 10
298.672139
 20
253.596265
 42
-0.057834
  0
VERTEX
  8
0
 10
300.895389
 20
252.921861
 42
-0.045639
  0
SEQEND
  0
POLYLINE
  8
0
 66
1
 70
1
  0
VERTEX
  8
0
 10
337.923419
 20
250.250000
 42
-0.007102
  0
VERTEX
  8
0
 10
338.485676
 20
248.015663
 42
-0.001053
  0
VERTEX
  8
0
 10
339.546580
 20
243.489062
 42
-0.001186
  0
VERTEX
  8
0
 10
340.776152
 20
238.135029
 42
-0.001020
  0
VERTEX
  8
0
 10
342.044107
 20
232.500000
 42
0.001125
  0
VERTEX
  8
0
 10
343.517315
 20
225.959155
 42
0.000578
  0
VERTEX
  8
0
 10
345.390578
 20
217.772286
 42
0.000575
  0
VERTEX
  8
0
 10
347.337933
 20
209.350957
 42
0.000868
  0
VERTEX
  8
0
 10
349.054820
 20
202.022676
 42
-0.005232
  0
VERTEX
  8
0
 10
350.575793
 20
195.265641
 42
-0.010219
  0
VERTEX
  8
0
 10
351.621165
 20
189.844793
 42
-0.005389
  0
VERTEX
  8
0
 10
352.320562
 20
185.491276
 42
-0.237815
  0
VERTEX
  8
0
 10
352.039894
 20
184.639894
 42
-0.271111
  0
VERTEX
  8
0
 10
350.505380
 20
184.238402
 42
-0.195901
  0
VERTEX
  8
0
 10
349.076575
 20
185.348428
 42
-0.063125
  0
VERTEX
  8
0
 10
347.677835
 20
188.681614
 42
-0.012893
  0
VERTEX
  8
0
 10
346.121015
 20
194.896299
 42
0.000000
  0
VERTEX
  8
0
 10
343.865127
 20
205.000000
 42
0.000000
  0
VERTEX
  8
0
 10
335.182564
 20
204.989939
 42
0.000000
  0
VERTEX
  8
0
 10
326.500000
 20
204.979878
 42
0.000000
  0
VERTEX
  8
0
 10
324.000000
 20
194.803580
 42
-0.012862
  0
VERTEX
  8
0
 10
322.294205
 20
188.558094
 42
-0.061301
  0
VERTEX
  8
0
 10
320.805952
 20
185.178339
 42
-0.289785
  0
VERTEX
  8
0
 10
319.539358
 20
184.535854
 42
-0.284770
  0
VERTEX
  8
0
 10
318.399368
 20
185.401646
 42
-0.146651
  0
VERTEX
  8
0
 10
318.237705
 20
187.547899
 42
-0.000377
  0
VERTEX
  8
0
 10
324.777206
 20
217.237710
 42
-0.001219
  0
VERTEX
  8
0
 10
331.000769
 20
245.069845
 42
-0.038708
  0
VERTEX
  8
0
 10
333.065778
 20
251.750000
 42
-0.098244
  0
VERTEX
  8
0
 10
334.216976
 20
253.534051
 42
-0.282526
  0
VERTEX
  8
0
 10
335.585224
 20
253.885164
 42
-0.197482
  0
VERTEX
  8
0
 10
336.923786
 20
252.781638
 42
-0.057732
  0
SEQEND
  0
POLYLINE
  8
0
 66
1
 70
1
  0
VERTEX
  8
0
 10
385.500000
 20
252.000000
 42
-0.294241
  0
VERTEX
  8
0
 10
384.997339
 20
251.219785
 42
-0.065614
  0
VERTEX
  8
0
 10
383.406441
 20
250.736196
 42
-0.029487
  0
VERTEX
  8
0
 10
380.439305
 20
250.423200
 42
-0.004947
  0
VERTEX
  8
0
 10
374.722751
 20
250.215892
 42
0.000000
  0
VERTEX
  8
0
 10
363.945503
 20
249.931784
 42
0.000000
  0
VERTEX
  8
0
 10
364.222751
 20
235.715892
 42
0.000000
  0
VERTEX
  8
0
 10
364.500000
 20
221.500000
 42
0.000000
  0
VERTEX
  8
0
 10
375.000000
 20
221.000000
 42
-0.005340
  0
VERTEX
  8
0
 10
380.493163
 20
220.679585
 42
-0.029828
  0
VERTEX
  8
0
 10
383.416667
 20
220.301587
 42
-0.063627
  0
VERTEX
  8
0
 10
385.003978
 20
219.783827
 42
-0.289831
  0
VERTEX
  8
0
 10
385.500000
 20
219.000000
 42
-0.293948
  0
VERTEX
  8
0
 10
384.998083
 20
218.220017
 42
-0.065789
  0
VERTEX
  8
0
 10
383.411028
 20
217.736329
 42
-0.029556
  0
VERTEX
  8
0
 10
380.450850
 20
217.423332
 42
-0.004963
  0
VERTEX
  8
0
 10
374.750000
 20
217.216168
 42
0.000000
  0
VERTEX
  8
0
 10
364.000000
 20
216.932337
 42
0.000000
  0
VERTEX
  8
0
 10
364.000000
 20
200.392844
 42
-0.002154
  0
VERTEX
  8
0
 10
363.956930
 20
190.394942
 42
-0.024748
  0
VERTEX
  8
0
 10
363.728638
 20
186.470247
 42
-0.086051
  0
VERTEX
  8
0
 10
363.213322
 20
184.673228
 42
-0.339719
  0
VERTEX
  8
0
 10
362.250000
 20
184.190084
 42
-0.316254
  0
VERTEX
  8
0
 10
361.193478
 20
185.283807
 42
-0.024009
  0
VERTEX
  8
0
 10
360.727568
 20
189.601600
 42
-0.011853
  0
VERTEX
  8
0
 10
360.439211
 20
197.658101
 42
-0.001048
  0
VERTEX
  8
0
 10
360.236217
 20
218.006299
 42
-0.001408
  0
VERTEX
  8
0
 10
360.170786
 20
230.932538
 42
-0.002219
  0
VERTEX
  8
0
 10
360.195112
 20
242.029547
 42
-0.000539
  0
VERTEX
  8
0
 10
360.269925
 20
251.737209
 42
-0.089645
  0
VERTEX
  8
0
 10
360.466703
 20
252.773826
 42
-0.257665
  0
VERTEX
  8
0
 10
361.219104
 20
253.407603
 42
-0.029241
  0
VERTEX
  8
0
 10
363.503786
 20
253.723056
 42
-0.020524
  0
VERTEX
  8
0
 10
367.152588
 20
253.860674
 42
-0.004887
  0
VERTEX
  8
0
 10
373.230486
 20
253.780935
 42
-0.004159
  0
VERTEX
  8
0
 10
379.812851
 20
253.575428
 42
-0.026160
  0
VERTEX
  8
0
 10
383.158258
 20
253.267331
 42
-0.057084
  0
VERTEX
  8
0
 10
384.959178
 20
252.791738
 42
-0.308943
  0
SEQEND
  0
POLYLINE
  8
0
 66
1
 70
1
  0
VERTEX
  8
0
 10
428.812480
 20
252.250000
 42
-0.182557
  0
VERTEX
  8
0
 10
428.258185
 20
251.345556
 42
-0.103296
  0
VERTEX
  8
0
 10
427.087625
 20
250.774357
 42
-0.044994
  0
VERTEX
  8
0
 10
424.926725
 20
250.429645
 42
-0.007627
  0
VERTEX
  8
0
 10
420.752766
 20
250.208181
 42
0.000000
  0
VERTEX
  8
0
 10
413.027222
 20
249.916362
 42
0.000000
  0
VERTEX
  8
0
 10
412.763611
 20
217.221581
 42
-0.001089
  0
VERTEX
  8
0
 10
412.561066
 20
197.441818
 42
-0.012015
  0
VERTEX
  8
0
 10
412.272467
 20
189.526766
 42
-0.024108
  0
VERTEX
  8
0
 10
411.808277
 20
185.272514
 42
-0.315872
  0
VERTEX
  8
0
 10
410.763755
 20
184.192725
 42
-0.418579
  0
VERTEX
  8
0
 10
409.720371
 20
184.910763
 42
-0.028438
  0
VERTEX
  8
0
 10
409.249950
 20
188.867137
 42
-0.012346
  0
VERTEX
  8
0
 10
408.966195
 20
196.575524
 42
-0.001017
  0
VERTEX
  8
0
 10
408.763755
 20
216.679325
 42
0.000000
  0
VERTEX
  8
0
 10
408.500000
 20
249.500000
 42
0.000000
  0
VERTEX
  8
0
 10
401.001168
 20
249.798832
 42
-0.012848
  0
VERTEX
  8
0
 10
396.101822
 20
250.120321
 42
-0.064558
  0
VERTEX
  8
0
 10
393.426740
 20
250.718962
 42
-0.194451
  0
VERTEX
  8
0
 10
392.383337
 20
251.658754
 42
-0.257223
  0
VERTEX
  8
0
 10
392.446149
 20
252.912868
 42
-0.237185
  0
VERTEX
  8
0
 10
393.272933
 20
253.421435
 42
-0.006896
  0
VERTEX
  8
0
 10
397.495568
 20
253.725589
 42
-0.010532
  0
VERTEX
  8
0
 10
403.185243
 20
253.936482
 42
-0.003996
  0
VERTEX
  8
0
 10
411.132341
 20
254.000000
 42
-0.001949
  0
VERTEX
  8
0
 10
422.057407
 20
253.957421
 42
-0.022720
  0
VERTEX
  8
0
 10
426.319424
 20
253.730351
 42
-0.076626
  0
VERTEX
  8
0
 10
428.295333
 20
253.222421
 42
-0.352306
  0
SEQEND
  0
POLYLINE
  8
0
 66
1
 70
1
  0
VERTEX
  8
0
 10
461.500000
 20
252.000000
 42
-0.293948
  0
VERTEX
  8
0
 10
460.998083
 20
251.220017
 42
-0.065789
  0
VERTEX
  8
0
 10
459.411028
 20
250.736329
 42
-0.029556
  0
VERTEX
  8
0
 10
456.450850
 20
250.423332
 42
-0.004963
  0
VERTEX
  8
0
 10
450.750000
 20
250.216168
 42
0.000000
  0
VERTEX
  8
0
 10
440.000000
 20
249.932337
 42
0.000000
  0
VERTEX
  8
0
 10
440.000000
 20
235.466168
 42
0.000000
  0
VERTEX
  8
0
 10
440.000000
 20
221.000000
 42
0.000000
  0
VERTEX
  8
0
 10
451.073324
 20
221.000000
 42
-0.003525
  0
VERTEX
  8
0
 10
457.631627
 20
220.953769
 42
-0.036880
  0
VERTEX
  8
0
 10
460.308627
 20
220.718058
 42
-0.135392
  0
VERTEX
  8
0
 10
461.481971
 20
220.178946
 42
-0.271434
  0
VERTEX
  8
0
 10
461.811469
 20
219.250000
 42
-0.216015
  0
VERTEX
  8
0
 10
461.150688
 20
218.314031
 42
-0.087454
  0
VERTEX
  8
0
 10
459.653055
 20
217.756962
 42
-0.034227
  0
VERTEX
  8
0
 10
456.794228
 20
217.431903
 42
-0.004591
  0
VERTEX
  8
0
 10
450.738145
 20
217.216168
 42
0.000000
  0
VERTEX
  8
0
 10
440.000000
 20
216.932337
 42
0.000000
  0
VERTEX
  8
0
 10
440.000000
 20
202.500000
 42
0.000000
  0
VERTEX
  8
0
 10
440.000000
 20
188.067663
 42
0.000000
  0
VERTEX
  8
0
 10
450.750000
 20
187.783832
 42
-0.004963
  0
VERTEX
  8
0
 10
456.450850
 20
187.576668
 42
-0.029556
  0
VERTEX
  8
0
 10
459.411028
 20
187.263671
 42
-0.065789
  0
VERTEX
  8
0
 10
460.998083
 20
186.779983
 42
-0.293948
  0
VERTEX
  8
0
 10
461.500000
 20
186.000000
 42
-0.313079
  0
VERTEX
  8
0
 10
460.954554
 20
185.214283
 42
-0.059500
  0
VERTEX
  8
0
 10
459.166667
 20
184.780000
 42
-0.025996
  0
VERTEX
  8
0
 10
455.800233
 20
184.552594
 42
-0.003867
  0
VERTEX
  8
0
 10
449.000000
 20
184.500000
 42
0.000000
  0
VERTEX
  8
0
 10
436.500000
 20
184.500000
 42
0.000000
  0
VERTEX
  8
0
 10
436.236217
 20
217.992891
 42
-0.001408
  0
VERTEX
  8
0
 10
436.170786
 20
230.924271
 42
-0.002218
  0
VERTEX
  8
0
 10
436.195112
 20
242.025608
 42
-0.000538
  0
VERTEX
  8
0
 10
436.269922
 20
251.737184
 42
-0.089646
  0
VERTEX
  8
0
 10
436.466703
 20
252.773826
 42
-0.257665
  0
VERTEX
  8
0
 10
437.219104
 20
253.407603
 42
-0.029241
  0
VERTEX
  8
0
 10
439.503786
 20
253.723056
 42
-0.020524
  0
VERTEX
  8
0
 10
443.152588
 20
253.860674
 42
-0.004887
  0
VERTEX
  8
0
 10
449.230486
 20
253.780935
 42
-0.004159
  0
VERTEX
  8
0
 10
455.812851
 20
253.575428
 42
-0.026160
  0
VERTEX
  8
0
 10
459.158258
 20
253.267331
 42
-0.057084
  0
VERTEX
  8
0
 10
460.959178
 20
252.791738
 42
-0.308943
  0
SEQEND
  0
POLYLINE
  8
0
 66
1
 70
1
  0
VERTEX
  8
0
 10
492.516696
 20
251.000000
 42
-0.062096
  0
VERTEX
  8
0
 10
495.970342
 20
246.856631
 42
-0.096796
  0
VERTEX
  8
0
 10
497.679396
 20
242.550666
 42
-0.042222
  0
VERTEX
  8
0
 10
498.365599
 20
235.742318
 42
-0.004014
  0
VERTEX
  8
0
 10
498.500000
 20
219.000000
 42
-0.001867
  0
VERTEX
  8
0
 10
498.447041
 20
204.815772
 42
-0.016691
  0
VERTEX
  8
0
 10
498.192601
 20
198.590052
 42
-0.039566
  0
VERTEX
  8
0
 10
497.621249
 20
194.892675
 42
-0.075116
  0
VERTEX
  8
0
 10
496.500000
 20
192.104530
 42
-0.051505
  0
VERTEX
  8
0
 10
493.636042
 20
188.219355
 42
-0.099517
  0
VERTEX
  8
0
 10
490.537705
 20
185.939991
 42
-0.077641
  0
VERTEX
  8
0
 10
486.282493
 20
184.712162
 42
-0.022306
  0
VERTEX
  8
0
 10
479.429066
 20
184.153470
 42
0.000000
  0
VERTEX
  8
0
 10
470.000000
 20
183.806941
 42
0.000000
  0
VERTEX
  8
0
 10
470.000000
 20
218.997178
 42
0.000000
  0
VERTEX
  8
0
 10
470.000000
 20
254.187415
 42
0.000000
  0
VERTEX
  8
0
 10
479.921682
 20
253.843707
 42
-0.006377
  0
VERTEX
  8
0
 10
485.742283
 20
253.567710
 42
-0.040503
  0
VERTEX
  8
0
 10
488.672090
 20
253.151561
 42
-0.075013
  0
VERTEX
  8
0
 10
490.650191
 20
252.380222
 42
-0.057653
  0
SEQEND
  0
POLYLINE
  8
0
 66
1
 70
1
  0
VERTEX
  8
0
 10
557.876635
 20
250.618191
 42
-0.072452
  0
VERTEX
  8
0
 10
560.039582
 20
247.843672
 42
-0.045456
  0
VERTEX
  8
0
 10
561.745330
 20
244.091372
 42
-0.045179
  0
VERTEX
  8
0
 10
562.756858
 20
240.054479
 42
-0.067281
  0
VERTEX
  8
0
 10
562.832708
 20
236.418771
 42
-0.081638
  0
VERTEX
  8
0
 10
562.142672
 20
233.986280
 42
-0.417001
  0
VERTEX
  8
0
 10
560.950505
 20
233.562798
 42
-0.188618
  0
VERTEX
  8
0
 10
559.585206
 20
235.030969
 42
-0.038048
  0
VERTEX
  8
0
 10
558.511374
 20
238.500000
 42
0.031556
  0
VERTEX
  8
0
 10
556.802792
 20
244.284096
 42
0.103714
  0
VERTEX
  8
0
 10
554.709056
 20
247.645982
 42
0.133813
  0
VERTEX
  8
0
 10
551.776108
 20
249.408284
 42
0.068861
  0
VERTEX
  8
0
 10
547.500000
 20
250.000000
 42
0.044027
  0
VERTEX
  8
0
 10
544.354347
 20
249.722472
 42
0.082660
  0
VERTEX
  8
0
 10
541.955639
 20
248.871422
 42
0.088985
  0
VERTEX
  8
0
 10
540.076781
 20
247.341509
 42
0.058230
  0
VERTEX
  8
0
 10
538.510350
 20
245.020016
 42
0.084899
  0
VERTEX
  8
0
 10
537.729267
 20
242.563526
 42
0.019725
  0
VERTEX
  8
0
 10
537.299453
 20
238.237130
 42
0.012265
  0
VERTEX
  8
0
 10
537.061868
 20
231.461157
 42
0.002630
  0
VERTEX
  8
0
 10
537.000000
 20
219.698883
 42
0.003791
  0
VERTEX
  8
0
 10
537.072149
 20
210.182214
 42
0.007036
  0
VERTEX
  8
0
 10
537.297856
 20
202.463513
 42
0.006013
  0
VERTEX
  8
0
 10
537.630343
 20
196.460501
 42
0.067119
  0
VERTEX
  8
0
 10
538.108417
 20
194.118839
 42
0.165490
  0
VERTEX
  8
0
 10
541.444178
 20
189.851113
 42
0.136636
  0
VERTEX
  8
0
 10
546.975772
 20
188.092818
 42
0.132185
  0
VERTEX
  8
0
 10
552.761239
 20
189.427144
 42
0.151751
  0
VERTEX
  8
0
 10
556.736244
 20
193.444685
 42
0.053993
  0
VERTEX
  8
0
 10
557.379137
 20
195.097353
 42
0.016389
  0
VERTEX
  8
0
 10
557.993799
 20
197.718558
 42
0.016205
  0
VERTEX
  8
0
 10
558.494312
 20
200.721585
 42
0.016993
  0
VERTEX
  8
0
 10
558.789778
 20
203.703596
 42
0.000000
  0
VERTEX
  8
0
 10
559.257058
 20
210.907192
 42
0.000000
  0
VERTEX
  8
0
 10
551.889134
 20
211.203596
 42
-0.008245
  0
VERTEX
  8
0
 10
547.938753
 20
211.427808
 42
-0.046663
  0
VERTEX
  8
0
 10
545.860987
 20
211.776869
 42
-0.104781
  0
VERTEX
  8
0
 10
544.727805
 20
212.350354
 42
-0.178083
  0
VERTEX
  8
0
 10
544.187281
 20
213.250000
 42
-0.245366
  0
VERTEX
  8
0
 10
544.464416
 20
214.169710
 42
-0.153618
  0
VERTEX
  8
0
 10
545.478026
 20
214.713020
 42
-0.042566
  0
VERTEX
  8
0
 10
547.812337
 20
214.952203
 42
-0.004257
  0
VERTEX
  8
0
 10
553.426676
 20
215.000000
 42
0.000000
  0
VERTEX
  8
0
 10
563.000000
 20
215.000000
 42
0.000000
  0
VERTEX
  8
0
 10
563.000000
 20
205.711890
 42
-0.009556
  0
VERTEX
  8
0
 10
562.903687
 20
200.672794
 42
-0.031004
  0
VERTEX
  8
0
 10
562.569342
 20
197.347536
 42
-0.042300
  0
VERTEX
  8
0
 10
561.898744
 20
194.685169
 42
-0.033954
  0
VERTEX
  8
0
 10
560.750000
 20
191.961890
 42
-0.140213
  0
VERTEX
  8
0
 10
555.401494
 20
186.170561
 42
-0.133888
  0
VERTEX
  8
0
 10
547.700664
 20
183.953441
 42
-0.134681
  0
VERTEX
  8
0
 10
539.974852
 20
185.955970
 42
-0.142519
  0
VERTEX
  8
0
 10
534.550489
 20
191.591626
 42
-0.063171
  0
VERTEX
  8
0
 10
533.401979
 20
194.670977
 42
-0.039056
  0
VERTEX
  8
0
 10
532.813392
 20
198.494340
 42
-0.016759
  0
VERTEX
  8
0
 10
532.554319
 20
204.785391
 42
-0.001911
  0
VERTEX
  8
0
 10
532.500000
 20
219.000000
 42
-0.005440
  0
VERTEX
  8
0
 10
532.686882
 20
236.175630
 42
-0.044544
  0
VERTEX
  8
0
 10
533.552740
 20
243.958908
 42
-0.103310
  0
VERTEX
  8
0
 10
535.525599
 20
248.551863
 42
-0.100084
  0
VERTEX
  8
0
 10
539.189824
 20
252.032394
 42
-0.097741
  0
VERTEX
  8
0
 10
543.506608
 20
253.683543
 42
-0.061577
  0
VERTEX
  8
0
 10
548.915831
 20
253.940475
 42
-0.062323
  0
VERTEX
  8
0
 10
554.135714
 20
252.882244
 42
-0.110314
  0
SEQEND
  0
POLYLINE
  8
0
 66
1
 70
1
  0
VERTEX
  8
0
 10
595.103757
 20
251.438901
 42
-0.043695
  0
VERTEX
  8
0
 10
596.068848
 20
250.415816
 42
-0.018595
  0
VERTEX
  8
0
 10
597.182029
 20
248.894552
 42
-0.018231
  0
VERTEX
  8
0
 10
598.256376
 20
247.173580
 42
-0.022788
  0
VERTEX
  8
0
 10
599.119269
 20
245.500000
 42
-0.060306
  0
VERTEX
  8
0
 10
600.110294
 20
242.406349
 42
-0.029914
  0
VERTEX
  8
0
 10
600.644193
 20
238.314207
 42
-0.014903
  0
VERTEX
  8
0
 10
600.905519
 20
231.804594
 42
-0.002336
  0
VERTEX
  8
0
 10
600.978038
 20
218.961890
 42
-0.001939
  0
VERTEX
  8
0
 10
600.937354
 20
204.946623
 42
-0.018891
  0
VERTEX
  8
0
 10
600.673260
 20
199.023394
 42
-0.044837
  0
VERTEX
  8
0
 10
600.029751
 20
195.317892
 42
-0.051419
  0
VERTEX
  8
0
 10
598.750000
 20
191.961890
 42
-0.135521
  0
VERTEX
  8
0
 10
593.506417
 20
186.178219
 42
-0.135518
  0
VERTEX
  8
0
 10
586.038021
 20
183.904415
 42
-0.135460
  0
VERTEX
  8
0
 10
578.458564
 20
185.784443
 42
-0.135362
  0
VERTEX
  8
0
 10
572.913784
 20
191.286221
 42
-0.055664
  0
VERTEX
  8
0
 10
571.508286
 20
194.528952
 42
-0.052773
  0
VERTEX
  8
0
 10
570.820506
 20
198.060855
 42
-0.020079
  0
VERTEX
  8
0
 10
570.549792
 20
203.850350
 42
-0.001643
  0
VERTEX
  8
0
 10
570.500000
 20
219.000000
 42
-0.001909
  0
VERTEX
  8
0
 10
570.554402
 20
233.248098
 42
-0.016863
  0
VERTEX
  8
0
 10
570.814560
 20
239.534786
 42
-0.039338
  0
VERTEX
  8
0
 10
571.408638
 20
243.369081
 42
-0.061309
  0
VERTEX
  8
0
 10
572.568625
 20
246.500000
 42
-0.069289
  0
VERTEX
  8
0
 10
575.051073
 20
250.009559
 42
-0.089598
  0
VERTEX
  8
0
 10
578.214048
 20
252.355139
 42
-0.082104
  0
VERTEX
  8
0
 10
582.219902
 20
253.574689
 42
-0.048955
  0
VERTEX
  8
0
 10
587.212526
 20
253.743775
 42
-0.020463
  0
VERTEX
  8
0
 10
589.865699
 20
253.464435
 42
-0.034603
  0
VERTEX
  8
0
 10
592.048694
 20
252.987728
 42
-0.041870
  0
VERTEX
  8
0
 10
593.792713
 20
252.315564
 42
-0.069026
  0
SEQEND
  0
POLYLINE
  8
0
 66
1
 70
1
  0
VERTEX
  8
0
 10
631.701451
 20
252.040484
 42
-0.092005
  0
VERTEX
  8
0
 10
635.521589
 20
248.614607
 42
-0.113820
  0
VERTEX
  8
0
 10
637.507123
 20
244.280637
 42
-0.046119
  0
VERTEX
  8
0
 10
638.334145
 20
236.844413
 42
-0.004647
  0
VERTEX
  8
0
 10
638.500000
 20
219.000000
 42
-0.001493
  0
VERTEX
  8
0
 10
638.452463
 20
203.082119
 42
-0.019634
  0
VERTEX
  8
0
 10
638.186049
 20
197.196587
 42
-0.054474
  0
VERTEX
  8
0
 10
637.502550
 20
193.705490
 42
-0.063586
  0
VERTEX
  8
0
 10
636.097532
 20
190.635268
 42
-0.064864
  0
VERTEX
  8
0
 10
633.782261
 20
187.805463
 42
-0.067788
  0
VERTEX
  8
0
 10
630.850900
 20
185.712043
 42
-0.065753
  0
VERTEX
  8
0
 10
627.385305
 20
184.433352
 42
-0.055596
  0
VERTEX
  8
0
 10
623.500000
 20
184.000000
 42
-0.055596
  0
VERTEX
  8
0
 10
619.614695
 20
184.433352
 42
-0.065753
  0
VERTEX
  8
0
 10
616.149100
 20
185.712043
 42
-0.067788
  0
VERTEX
  8
0
 10
613.217739
 20
187.805463
 42
-0.064864
  0
VERTEX
  8
0
 10
610.902468
 20
190.635268
 42
-0.063586
  0
VERTEX
  8
0
 10
609.497450
 20
193.705490
 42
-0.054474
  0
VERTEX
  8
0
 10
608.813951
 20
197.196587
 42
-0.019634
  0
VERTEX
  8
0
 10
608.547537
 20
203.082119
 42
-0.001493
  0
VERTEX
  8
0
 10
608.500000
 20
219.000000
 42
-0.001962
  0
VERTEX
  8
0
 10
608.555491
 20
233.140272
 42
-0.014194
  0
VERTEX
  8
0
 10
608.801967
 20
239.939659
 42
-0.029912
  0
VERTEX
  8
0
 10
609.313010
 20
244.025663
 42
-0.079042
  0
VERTEX
  8
0
 10
610.298549
 20
246.794223
 42
-0.069663
  0
VERTEX
  8
0
 10
612.588183
 20
249.876864
 42
-0.073544
  0
VERTEX
  8
0
 10
615.598442
 20
252.146454
 42
-0.069994
  0
VERTEX
  8
0
 10
619.269718
 20
253.525991
 42
-0.054975
  0
VERTEX
  8
0
 10
623.500000
 20
253.992524
 42
-0.027237
  0
VERTEX
  8
0
 10
625.832566
 20
253.865366
 42
-0.031196
  0
VERTEX
  8
0
 10
628.032244
 20
253.484849
 42
-0.033428
  0
VERTEX
  8
0
 10
630.016225
 20
252.870055
 42
-0.045086
  0
SEQEND
  0
POLYLINE
  8
0
 66
1
 70
1
  0
VERTEX
  8
0
 10
667.000000
 20
252.248446
 42
-0.049397
  0
VERTEX
  8
0
 10
668.648913
 20
251.210049
 42
-0.040810
  0
VERTEX
  8
0
 10
670.180071
 20
249.805513
 42
-0.038125
  0
VERTEX
  8
0
 10
671.558181
 20
248.068587
 42
-0.031872
  0
VERTEX
  8
0
 10
672.750000
 20
246.038110
 42
-0.051497
  0
VERTEX
  8
0
 10
674.029686
 20
242.680719
 42
-0.044587
  0
VERTEX
  8
0
 10
674.675675
 20
238.965142
 42
-0.018817
  0
VERTEX
  8
0
 10
674.945545
 20
233.024321
 42
-0.001941
  0
VERTEX
  8
0
 10
675.000000
 20
219.000000
 42
-0.001927
  0
VERTEX
  8
0
 10
674.945880
 20
204.957998
 42
-0.018888
  0
VERTEX
  8
0
 10
674.676495
 20
199.038900
 42
-0.045086
  0
VERTEX
  8
0
 10
674.030689
 20
195.351118
 42
-0.052634
  0
VERTEX
  8
0
 10
672.750000
 20
192.035882
 42
-0.065795
  0
VERTEX
  8
0
 10
669.970081
 20
188.017620
 42
-0.105312
  0
VERTEX
  8
0
 10
666.598149
 20
185.588263
 42
-0.082958
  0
VERTEX
  8
0
 10
661.940954
 20
184.404336
 42
-0.028901
  0
VERTEX
  8
0
 10
655.000000
 20
184.226482
 42
0.000000
  0
VERTEX
  8
0
 10
646.500000
 20
184.500000
 42
0.000000
  0
VERTEX
  8
0
 10
646.236217
 20
217.992891
 42
-0.001374
  0
VERTEX
  8
0
 10
646.169924
 20
230.922129
 42
-0.002168
  0
VERTEX
  8
0
 10
646.191625
 20
242.016521
 42
-0.000514
  0
VERTEX
  8
0
 10
646.262724
 20
251.729671
 42
-0.089755
  0
VERTEX
  8
0
 10
646.454832
 20
252.742891
 42
-0.299448
  0
VERTEX
  8
0
 10
648.214880
 20
254.006027
 42
-0.016163
  0
VERTEX
  8
0
 10
655.402644
 20
254.065417
 42
-0.023363
  0
VERTEX
  8
0
 10
662.636003
 20
253.552592
 42
-0.086665
  0
SEQEND
  0
POLYLINE
  8
0
 66
1
 70
1
  0
VERTEX
  8
0
 10
708.442528
 20
251.053992
 42
-0.070604
  0
VERTEX
  8
0
 10
710.667601
 20
248.277729
 42
-0.042788
  0
VERTEX
  8
0
 10
712.499054
 20
244.477939
 42
-0.042840
  0
VERTEX
  8
0
 10
713.653792
 20
240.431505
 42
-0.071991
  0
VERTEX
  8
0
 10
713.825204
 20
236.908821
 42
-0.066647
  0
VERTEX
  8
0
 10
713.131609
 20
233.922475
 42
-0.460113
  0
VERTEX
  8
0
 10
711.890186
 20
233.473498
 42
-0.182959
  0
VERTEX
  8
0
 10
710.448537
 20
235.208034
 42
-0.029762
  0
VERTEX
  8
0
 10
709.251343
 20
239.500000
 42
0.044375
  0
VERTEX
  8
0
 10
707.768947
 20
244.271720
 42
0.094106
  0
VERTEX
  8
0
 10
705.664211
 20
247.501381
 42
0.114357
  0
VERTEX
  8
0
 10
702.824767
 20
249.352989
 42
0.087756
  0
VERTEX
  8
0
 10
699.166743
 20
250.000000
 42
0.107757
  0
VERTEX
  8
0
 10
694.576261
 20
248.999062
 42
0.113842
  0
VERTEX
  8
0
 10
690.923734
 20
246.187190
 42
0.100477
  0
VERTEX
  8
0
 10
688.561674
 20
241.734440
 42
0.068196
  0
VERTEX
  8
0
 10
687.694116
 20
236.042914
 42
0.064800
  0
VERTEX
  8
0
 10
688.234354
 20
231.338429
 42
0.100754
  0
VERTEX
  8
0
 10
689.984607
 20
227.664453
 42
0.081195
  0
VERTEX
  8
0
 10
693.346006
 20
224.448125
 42
0.030271
  0
VERTEX
  8
0
 10
698.966237
 20
221.073166
 42
-0.020807
  0
VERTEX
  8
0
 10
704.380110
 20
217.959900
 42
-0.040515
  0
VERTEX
  8
0
 10
708.361477
 20
214.967847
 42
-0.050854
  0
VERTEX
  8
0
 10
711.157144
 20
211.928863
 42
-0.070329
  0
VERTEX
  8
0
 10
712.936382
 20
208.684900
 42
-0.092978
  0
VERTEX
  8
0
 10
713.989001
 20
202.759931
 42
-0.071672
  0
VERTEX
  8
0
 10
712.988521
 20
196.258889
 42
-0.072486
  0
VERTEX
  8
0
 10
710.215785
 20
190.377101
 42
-0.100088
  0
VERTEX
  8
0
 10
706.102117
 20
186.258071
 42
-0.106898
  0
VERTEX
  8
0
 10
700.953976
 20
184.240246
 42
-0.092529
  0
VERTEX
  8
0
 10
695.143899
 20
184.379551
 42
-0.093068
  0
VERTEX
  8
0
 10
689.803636
 20
186.600378
 42
-0.109816
  0
VERTEX
  8
0
 10
685.991977
 20
190.512981
 42
-0.077960
  0
VERTEX
  8
0
 10
684.436405
 20
194.213180
 42
-0.042917
  0
VERTEX
  8
0
 10
683.668900
 20
199.074610
 42
-0.042517
  0
VERTEX
  8
0
 10
683.729526
 20
203.349653
 42
-0.385459
  0
VERTEX
  8
0
 10
685.000000
 20
204.500000
 42
-0.186893
  0
VERTEX
  8
0
 10
685.685063
 20
204.234665
 42
-0.075822
  0
VERTEX
  8
0
 10
686.325300
 20
203.443580
 42
-0.053770
  0
VERTEX
  8
0
 10
686.889218
 20
202.186233
 42
-0.026889
  0
VERTEX
  8
0
 10
687.338519
 20
200.500000
 42
0.041202
  0
VERTEX
  8
0
 10
689.057199
 20
194.719416
 42
0.095461
  0
VERTEX
  8
0
 10
691.458042
 20
190.904424
 42
0.118810
  0
VERTEX
  8
0
 10
694.728357
 20
188.751324
 42
0.086649
  0
VERTEX
  8
0
 10
699.031276
 20
188.000000
 42
0.162268
  0
VERTEX
  8
0
 10
703.668729
 20
189.545718
 42
0.104743
  0
VERTEX
  8
0
 10
707.429643
 20
193.845830
 42
0.093601
  0
VERTEX
  8
0
 10
709.417859
 20
199.781301
 42
0.100234
  0
VERTEX
  8
0
 10
709.031515
 20
205.882963
 42
0.067330
  0
VERTEX
  8
0
 10
707.683290
 20
209.094267
 42
0.075977
  0
VERTEX
  8
0
 10
705.571903
 20
211.686049
 42
0.050462
  0
VERTEX
  8
0
 10
702.097087
 20
214.244621
 42
0.013859
  0
VERTEX
  8
0
 10
696.146077
 20
217.543221
 42
-0.035557
  0
VERTEX
  8
0
 10
689.892888
 20
221.372782
 42
-0.087351
  0
VERTEX
  8
0
 10
686.131757
 20
225.205645
 42
-0.098192
  0
VERTEX
  8
0
 10
684.157686
 20
229.798562
 42
-0.053377
  0
VERTEX
  8
0
 10
683.520527
 20
235.931080
 42
-0.045392
  0
VERTEX
  8
0
 10
684.015803
 20
241.193067
 42
-0.058663
  0
VERTEX
  8
0
 10
685.456468
 20
245.821464
 42
-0.065063
  0
VERTEX
  8
0
 10
687.766352
 20
249.598327
 42
-0.080457
  0
VERTEX
  8
0
 10
690.831892
 20
252.349408
 42
-0.111879
  0
VERTEX
  8
0
 10
694.593948
 20
253.714098
 42
-0.049687
  0
VERTEX
  8
0
 10
699.900077
 20
253.851375
 42
-0.049737
  0
VERTEX
  8
0
 10
705.084728
 20
252.946340
 42
-0.121081
  0
SEQEND
  0
POLYLINE
  8
0
 66
1
 70
1
  0
VERTEX
  8
0
 10
446.341178
 20
746.972711
 42
0.061541
  0
VERTEX
  8
0
 10
433.929505
 20
743.115797
 42
0.059881
  0
VERTEX
  8
0
 10
422.704302
 20
736.328433
 42
0.058662
  0
VERTEX
  8
0
 10
413.213254
 20
726.927231
 42
0.054806
  0
VERTEX
  8
0
 10
405.912646
 20
715.371646
 42
0.052119
  0
VERTEX
  8
0
 10
400.870515
 20
701.550725
 42
0.062140
  0
VERTEX
  8
0
 10
399.189418
 20
687.788550
 42
0.062086
  0
VERTEX
  8
0
 10
400.940945
 20
674.025338
 42
0.051894
  0
VERTEX
  8
0
 10
406.054379
 20
660.201329
 42
0.070898
  0
VERTEX
  8
0
 10
415.276664
 20
646.707869
 42
0.080912
  0
VERTEX
  8
0
 10
427.541792
 20
637.026177
 42
0.078274
  0
VERTEX
  8
0
 10
442.596927
 20
631.521731
 42
0.061134
  0
VERTEX
  8
0
 10
459.984577
 20
630.264590
 42
0.041825
  0
VERTEX
  8
0
 10
471.970631
 20
631.874800
 42
0.050535
  0
VERTEX
  8
0
 10
482.749756
 20
635.424487
 42
0.052419
  0
VERTEX
  8
0
 10
492.273603
 20
640.926319
 42
0.051103
  0
VERTEX
  8
0
 10
500.534737
 20
648.329974
 42
0.046401
  0
VERTEX
  8
0
 10
507.399522
 20
657.450114
 42
0.048923
  0
VERTEX
  8
0
 10
512.324814
 20
667.524369
 42
0.047934
  0
VERTEX
  8
0
 10
515.271906
 20
678.551099
 42
0.041397
  0
VERTEX
  8
0
 10
516.261395
 20
690.500000
 42
0.071747
  0
VERTEX
  8
0
 10
513.509412
 20
709.562777
 42
0.086551
  0
VERTEX
  8
0
 10
505.499812
 20
725.757869
 42
0.088770
  0
VERTEX
  8
0
 10
492.677801
 20
737.987455
 42
0.080059
  0
VERTEX
  8
0
 10
475.954657
 20
745.554072
 42
0.038705
  0
VERTEX
  8
0
 10
469.726361
 20
746.737386
 42
0.015629
  0
VERTEX
  8
0
 10
461.096134
 20
747.421680
 42
0.015557
  0
VERTEX
  8
0
 10
452.480136
 20
747.566079
 42
0.041025
  0
SEQEND
  0
POLYLINE
  8
0
 66
1
 70
1
  0
VERTEX
  8
0
 10
535.227957
 20
573.269792
 42
0.032581
  0
VERTEX
  8
0
 10
533.616409
 20
568.926283
 42
0.006753
  0
VERTEX
  8
0
 10
531.390237
 20
561.085341
 42
0.004522
  0
VERTEX
  8
0
 10
529.304919
 20
553.055642
 42
0.075536
  0
VERTEX
  8
0
 10
529.046561
 20
550.322815
 42
0.770973
  0
VERTEX
  8
0
 10
529.654643
 20
550.199113
 42
0.013166
  0
VERTEX
  8
0
 10
531.927924
 20
555.135306
 42
0.013719
  0
VERTEX
  8
0
 10
534.444021
 20
561.475019
 42
0.017052
  0
VERTEX
  8
0
 10
536.416733
 20
567.502958
 42
0.012744
  0
VERTEX
  8
0
 10
538.100672
 20
573.918509
 42
0.109053
  0
VERTEX
  8
0
 10
538.141861
 20
576.870062
 42
0.677845
  0
VERTEX
  8
0
 10
537.225411
 20
577.033138
 42
0.033781
  0
SEQEND
  0
POLYLINE
  8
0
 66
1
 70
1
  0
VERTEX
  8
0
 10
300.000000
 20
540.000000
 42
0.100049
  0
VERTEX
  8
0
 10
298.908074
 20
538.354853
 42
0.064641
  0
VERTEX
  8
0
 10
298.324074
 20
536.136574
 42
0.028399
  0
VERTEX
  8
0
 10
298.058516
 20
532.430864
 42
0.003689
  0
VERTEX
  8
0
 10
298.000000
 20
524.500000
 42
0.003689
  0
VERTEX
  8
0
 10
298.058516
 20
516.569136
 42
0.028399
  0
VERTEX
  8
0
 10
298.324074
 20
512.863426
 42
0.064641
  0
VERTEX
  8
0
 10
298.908074
 20
510.645147
 42
0.100049
  0
VERTEX
  8
0
 10
300.000000
 20
509.000000
 42
0.043841
  0
VERTEX
  8
0
 10
300.912834
 20
508.234602
 42
0.036641
  0
VERTEX
  8
0
 10
302.000000
 20
507.587500
 42
0.038133
  0
VERTEX
  8
0
 10
303.089956
 20
507.142753
 42
0.077955
  0
VERTEX
  8
0
 10
304.000000
 20
507.000000
 42
0.077955
  0
VERTEX
  8
0
 10
304.910044
 20
507.142753
 42
0.038133
  0
VERTEX
  8
0
 10
306.000000
 20
507.587500
 42
0.036641
  0
VERTEX
  8
0
 10
307.087166
 20
508.234602
 42
0.043841
  0
VERTEX
  8
0
 10
308.000000
 20
509.000000
 42
0.100049
  0
VERTEX
  8
0
 10
309.091926
 20
510.645147
 42
0.064641
  0
VERTEX
  8
0
 10
309.675926
 20
512.863426
 42
0.028399
  0
VERTEX
  8
0
 10
309.941484
 20
516.569136
 42
0.003689
  0
VERTEX
  8
0
 10
310.000000
 20
524.500000
 42
0.003689
  0
VERTEX
  8
0
 10
309.941484
 20
532.430864
 42
0.028399
  0
VERTEX
  8
0
 10
309.675926
 20
536.136574
 42
0.064641
  0
VERTEX
  8
0
 10
309.091926
 20
538.354853
 42
0.100049
  0
VERTEX
  8
0
 10
308.000000
 20
540.000000
 42
0.043841
  0
VERTEX
  8
0
 10
307.087166
 20
540.765398
 42
0.036641
  0
VERTEX
  8
0
 10
306.000000
 20
541.412500
 42
0.038133
  0
VERTEX
  8
0
 10
304.910044
 20
541.857247
 42
0.077955
  0
VERTEX
  8
0
 10
304.000000
 20
542.000000
 42
0.077955
  0
VERTEX
  8
0
 10
303.089956
 20
541.857247
 42
0.038133
  0
VERTEX
  8
0
 10
302.000000
 20
541.412500
 42
0.036641
  0
VERTEX
  8
0
 10
300.912834
 20
540.765398
 42
0.043841
  0
SEQEND
  0
POLYLINE
  8
0
 66
1
 70
1
  0
VERTEX
  8
0
 10
339.399704
 20
527.234687
 42
0.169293
  0
VERTEX
  8
0
 10
337.205492
 20
524.328247
 42
0.052370
  0
VERTEX
  8
0
 10
336.064545
 20
518.884820
 42
0.052355
  0
VERTEX
  8
0
 10
336.079723
 20
513.156720
 42
0.126607
  0
VERTEX
  8
0
 10
337.556704
 20
509.222506
 42
0.166728
  0
VERTEX
  8
0
 10
340.429727
 20
507.130530
 42
0.278830
  0
VERTEX
  8
0
 10
343.238685
 20
507.832529
 42
0.141626
  0
VERTEX
  8
0
 10
345.332507
 20
511.659143
 42
0.054877
  0
VERTEX
  8
0
 10
346.000000
 20
517.722506
 42
0.014120
  0
VERTEX
  8
0
 10
345.908041
 20
520.978101
 42
0.045180
  0
VERTEX
  8
0
 10
345.590701
 20
523.124613
 42
0.066428
  0
VERTEX
  8
0
 10
344.984771
 20
524.688059
 42
0.070868
  0
VERTEX
  8
0
 10
344.000000
 20
526.000000
 42
0.023742
  0
VERTEX
  8
0
 10
342.539673
 20
527.327860
 42
0.107470
  0
VERTEX
  8
0
 10
341.522521
 20
527.852667
 42
0.150936
  0
VERTEX
  8
0
 10
340.566390
 20
527.816894
 42
0.063014
  0
SEQEND
  0
POLYLINE
  8
0
 66
1
 70
1
  0
VERTEX
  8
0
 10
649.678149
 20
528.784454
 42
0.005246
  0
VERTEX
  8
0
 10
648.203142
 20
522.165723
 42
0.113507
  0
VERTEX
  8
0
 10
648.237369
 20
520.183955
 42
0.296156
  0
VERTEX
  8
0
 10
649.233184
 20
519.253224
 42
0.043972
  0
VERTEX
  8
0
 10
652.106989
 20
519.000000
 42
0.016872
  0
VERTEX
  8
0
 10
654.006669
 20
519.064121
 42
0.067990
  0
VERTEX
  8
0
 10
655.140744
 20
519.297854
 42
0.164146
  0
VERTEX
  8
0
 10
655.663215
 20
519.707056
 42
0.241380
  0
VERTEX
  8
0
 10
655.724458
 20
520.275669
 42
-0.030101
  0
VERTEX
  8
0
 10
655.470162
 20
521.079969
 42
-0.003428
  0
VERTEX
  8
0
 10
655.018643
 20
522.931569
 42
-0.004134
  0
VERTEX
  8
0
 10
654.514313
 20
525.144638
 42
-0.003354
  0
VERTEX
  8
0
 10
654.009094
 20
527.525669
 42
0.005655
  0
VERTEX
  8
0
 10
652.678090
 20
533.659342
 42
0.272173
  0
VERTEX
  8
0
 10
651.846200
 20
534.540813
 42
0.420119
  0
VERTEX
  8
0
 10
651.006184
 20
534.068069
 42
0.008243
  0
SEQEND
  0
POLYLINE
  8
0
 66
1
 70
1
  0
VERTEX
  8
0
 10
285.000000
 20
235.500000
 42
0.000000
  0
VERTEX
  8
0
 10
285.000000
 20
221.000000
 42
0.000000
  0
VERTEX
  8
0
 10
291.865141
 20
221.000000
 42
0.013327
  0
VERTEX
  8
0
 10
295.441588
 20
221.095342
 42
0.040050
  0
VERTEX
  8
0
 10
297.860484
 20
221.419857
 42
0.056285
  0
VERTEX
  8
0
 10
299.698009
 20
222.040791
 42
0.057110
  0
VERTEX
  8
0
 10
301.341035
 20
223.053618
 42
0.147956
  0
VERTEX
  8
0
 10
304.558630
 20
227.652397
 42
0.072647
  0
VERTEX
  8
0
 10
305.790814
 20
234.758916
 42
0.071706
  0
VERTEX
  8
0
 10
304.938565
 20
242.039694
 42
0.132189
  0
VERTEX
  8
0
 10
301.983710
 20
247.170137
 42
0.039696
  0
VERTEX
  8
0
 10
300.139406
 20
248.742734
 42
0.087335
  0
VERTEX
  8
0
 10
298.478582
 20
249.550064
 42
0.058890
  0
VERTEX
  8
0
 10
296.254981
 20
249.910264
 42
0.010738
  0
VERTEX
  8
0
 10
292.076923
 20
250.000000
 42
0.000000
  0
VERTEX
  8
0
 10
285.000000
 20
250.000000
 42
0.000000
  0
SEQEND
  0
POLYLINE
  8
0
 66
1
 70
1
  0
VERTEX
  8
0
 10
331.148018
 20
225.250000
 42
0.001143
  0
VERTEX
  8
0
 10
329.923253
 20
219.542328
 42
0.001774
  0
VERTEX
  8
0
 10
328.895449
 20
214.612500
 42
0.000510
  0
VERTEX
  8
0
 10
328.020993
 20
210.320162
 42
0.058777
  0
VERTEX
  8
0
 10
327.973827
 20
209.750000
 42
0.397755
  0
VERTEX
  8
0
 10
328.650468
 20
209.082264
 42
0.005507
  0
VERTEX
  8
0
 10
334.946363
 20
209.015394
 42
0.006282
  0
VERTEX
  8
0
 10
341.201310
 20
209.096446
 42
0.253133
  0
VERTEX
  8
0
 10
342.348985
 20
209.755653
 42
0.199347
  0
VERTEX
  8
0
 10
342.591198
 20
211.256166
 42
0.001168
  0
VERTEX
  8
0
 10
339.228395
 20
225.250206
 42
0.000863
  0
VERTEX
  8
0
 10
335.766155
 20
239.404761
 42
0.345091
  0
VERTEX
  8
0
 10
335.006423
 20
240.000000
 42
0.339150
  0
VERTEX
  8
0
 10
334.686146
 20
239.754520
 42
0.001759
  0
VERTEX
  8
0
 10
333.601575
 20
235.667188
 42
0.006557
  0
VERTEX
  8
0
 10
332.422423
 20
230.905306
 42
0.003991
  0
SEQEND
  0
POLYLINE
  8
0
 66
1
 70
1
  0
VERTEX
  8
0
 10
474.000000
 20
219.000000
 42
0.000000
  0
VERTEX
  8
0
 10
474.000000
 20
188.000000
 42
0.000000
  0
VERTEX
  8
0
 10
479.434900
 20
188.000000
 42
0.027825
  0
VERTEX
  8
0
 10
484.163706
 20
188.263366
 42
0.070851
  0
VERTEX
  8
0
 10
487.482720
 20
189.120541
 42
0.089740
  0
VERTEX
  8
0
 10
489.953791
 20
190.715620
 42
0.067871
  0
VERTEX
  8
0
 10
491.995802
 20
193.225074
 42
0.076498
  0
VERTEX
  8
0
 10
493.111731
 20
195.903066
 42
0.041039
  0
VERTEX
  8
0
 10
493.683876
 20
199.446310
 42
0.017474
  0
VERTEX
  8
0
 10
493.940357
 20
205.391210
 42
0.002001
  0
VERTEX
  8
0
 10
493.996262
 20
218.799660
 42
0.002669
  0
VERTEX
  8
0
 10
493.936061
 20
230.443002
 42
0.012150
  0
VERTEX
  8
0
 10
493.700243
 20
237.215350
 42
0.019200
  0
VERTEX
  8
0
 10
493.275603
 20
241.556837
 42
0.085547
  0
VERTEX
  8
0
 10
492.505711
 20
243.988956
 42
0.061799
  0
VERTEX
  8
0
 10
490.513880
 20
246.896095
 42
0.097755
  0
VERTEX
  8
0
 10
488.119917
 20
248.722703
 42
0.081749
  0
VERTEX
  8
0
 10
484.895912
 20
249.697959
 42
0.032665
  0
VERTEX
  8
0
 10
480.277494
 20
250.000000
 42
0.000000
  0
VERTEX
  8
0
 10
474.000000
 20
250.000000
 42
0.000000
  0
SEQEND
  0
POLYLINE
  8
0
 66
1
 70
1
  0
VERTEX
  8
0
 10
580.302554
 20
248.802956
 42
0.146078
  0
VERTEX
  8
0
 10
577.485842
 20
246.230134
 42
0.091362
  0
VERTEX
  8
0
 10
575.907803
 20
242.015959
 42
0.038651
  0
VERTEX
  8
0
 10
575.167554
 20
234.549053
 42
0.005388
  0
VERTEX
  8
0
 10
575.000000
 20
219.000000
 42
0.002680
  0
VERTEX
  8
0
 10
575.062836
 20
207.275135
 42
0.012504
  0
VERTEX
  8
0
 10
575.304181
 20
200.522544
 42
0.020713
  0
VERTEX
  8
0
 10
575.748620
 20
196.186996
 42
0.075013
  0
VERTEX
  8
0
 10
576.548192
 20
193.539687
 42
0.109955
  0
VERTEX
  8
0
 10
579.153719
 20
190.196988
 42
0.113627
  0
VERTEX
  8
0
 10
582.901918
 20
188.324112
 42
0.107372
  0
VERTEX
  8
0
 10
587.267841
 20
188.222900
 42
0.089447
  0
VERTEX
  8
0
 10
591.605449
 20
189.901133
 42
0.134694
  0
VERTEX
  8
0
 10
594.362084
 20
192.828109
 42
0.076236
  0
VERTEX
  8
0
 10
595.977194
 20
197.460407
 42
0.038423
  0
VERTEX
  8
0
 10
596.793607
 20
205.097427
 42
0.007422
  0
VERTEX
  8
0
 10
597.000000
 20
219.000000
 42
0.007742
  0
VERTEX
  8
0
 10
596.796763
 20
232.124314
 42
0.032907
  0
VERTEX
  8
0
 10
596.038853
 20
239.932881
 42
0.058313
  0
VERTEX
  8
0
 10
594.615614
 20
244.900240
 42
0.127876
  0
VERTEX
  8
0
 10
592.239895
 20
248.025939
 42
0.093497
  0
VERTEX
  8
0
 10
589.799477
 20
249.296648
 42
0.057216
  0
VERTEX
  8
0
 10
586.596246
 20
249.877242
 42
0.055706
  0
VERTEX
  8
0
 10
583.231678
 20
249.721359
 42
0.073250
  0
SEQEND
  0
POLYLINE
  8
0
 66
1
 70
1
  0
VERTEX
  8
0
 10
617.749978
 20
248.919889
 42
0.138003
  0
VERTEX
  8
0
 10
615.186348
 20
246.271356
 42
0.084549
  0
VERTEX
  8
0
 10
613.784385
 20
242.126200
 42
0.034914
  0
VERTEX
  8
0
 10
613.141017
 20
234.804283
 42
0.004461
  0
VERTEX
  8
0
 10
613.000000
 20
219.000000
 42
0.004418
  0
VERTEX
  8
0
 10
613.144966
 20
202.593078
 42
0.040998
  0
VERTEX
  8
0
 10
613.849738
 20
195.541961
 42
0.108524
  0
VERTEX
  8
0
 10
615.471533
 20
191.682112
 42
0.133102
  0
VERTEX
  8
0
 10
618.472058
 20
189.194685
 42
0.091596
  0
VERTEX
  8
0
 10
622.828432
 20
188.106218
 42
0.098122
  0
VERTEX
  8
0
 10
627.174789
 20
188.689741
 42
0.105343
  0
VERTEX
  8
0
 10
630.736460
 20
190.819810
 42
0.122220
  0
VERTEX
  8
0
 10
632.891583
 20
194.118839
 42
0.067119
  0
VERTEX
  8
0
 10
633.369657
 20
196.460501
 42
0.006013
  0
VERTEX
  8
0
 10
633.702144
 20
202.463513
 42
0.007036
  0
VERTEX
  8
0
 10
633.927851
 20
210.182214
 42
0.003791
  0
VERTEX
  8
0
 10
634.000000
 20
219.698883
 42
0.005097
  0
VERTEX
  8
0
 10
633.837671
 20
235.621018
 42
0.042177
  0
VERTEX
  8
0
 10
633.082339
 20
242.809270
 42
0.108472
  0
VERTEX
  8
0
 10
631.406978
 20
246.716225
 42
0.147628
  0
VERTEX
  8
0
 10
628.387004
 20
249.042961
 42
0.054832
  0
VERTEX
  8
0
 10
625.743670
 20
249.728534
 42
0.038966
  0
VERTEX
  8
0
 10
622.686254
 20
249.931606
 42
0.039827
  0
VERTEX
  8
0
 10
619.805789
 20
249.668230
 42
0.089392
  0
SEQEND
  0
POLYLINE
  8
0
 66
1
 70
1
  0
VERTEX
  8
0
 10
651.000000
 20
219.000000
 42
0.000000
  0
VERTEX
  8
0
 10
651.000000
 20
188.000000
 42
0.000000
  0
VERTEX
  8
0
 10
656.549660
 20
188.000000
 42
0.022887
  0
VERTEX
  8
0
 10
658.880481
 20
188.106746
 42
0.020141
  0
VERTEX
  8
0
 10
661.294394
 20
188.426772
 42
0.020627
  0
VERTEX
  8
0
 10
663.449181
 20
188.893558
 42
0.055725
  0
VERTEX
  8
0
 10
664.908806
 20
189.452842
 42
0.130245
  0
VERTEX
  8
0
 10
667.902146
 20
192.165690
 42
0.097422
  0
VERTEX
  8
0
 10
669.565646
 20
196.315489
 42
0.041242
  0
VERTEX
  8
0
 10
670.329403
 20
203.591895
 42
0.005536
  0
VERTEX
  8
0
 10
670.500000
 20
219.000000
 42
0.003351
  0
VERTEX
  8
0
 10
670.443452
 20
227.438510
 42
0.004645
  0
VERTEX
  8
0
 10
670.271804
 20
235.001299
 42
0.002937
  0
VERTEX
  8
0
 10
670.031476
 20
241.346695
 42
0.057228
  0
VERTEX
  8
0
 10
669.723163
 20
243.281019
 42
0.118716
  0
VERTEX
  8
0
 10
668.178621
 20
246.050616
 42
0.087246
  0
VERTEX
  8
0
 10
665.373412
 20
248.190684
 42
0.071914
  0
VERTEX
  8
0
 10
661.476657
 20
249.543158
 42
0.047495
  0
VERTEX
  8
0
 10
656.750000
 20
249.996262
 42
0.000000
  0
VERTEX
  8
0
 10
651.000000
 20
250.000000
 42
0.000000
  0
SEQEND
  0
ENDSEC
  0
EOF
