<?xml version="1.0" standalone="no"?>
<!DOCTYPE svg PUBLIC "-//W3C//DTD SVG 20010904//EN"
 "http://www.w3.org/TR/2001/REC-SVG-20010904/DTD/svg10.dtd">
<svg version="1.0" xmlns="http://www.w3.org/2000/svg"
 width="960.000000pt" height="960.000000pt" viewBox="0 0 960.000000 960.000000"
 preserveAspectRatio="xMidYMid meet">

<g transform="translate(0.000000,960.000000) scale(0.100000,-0.100000)"
fill="#000000" stroke="none">
<path d="M4500 9594 c-641 -52 -1180 -188 -1702 -429 -524 -242 -989 -566
-1393 -970 -404 -404 -728 -869 -970 -1393 -215 -465 -349 -957 -412 -1507
-22 -196 -25 -765 -5 -940 23 -204 53 -399 83 -540 423 -2017 2097 -3544 4144
-3779 146 -17 441 -35 555 -35 335 3 751 50 1060 120 1291 296 2391 1099 3072
2244 595 1002 803 2222 573 3370 -284 1419 -1178 2623 -2451 3303 -546 292
-1091 459 -1755 538 -126 15 -680 27 -799 18z m883 -178 c238 -32 385 -61 617
-122 573 -152 1168 -454 1637 -831 1013 -814 1634 -2009 1722 -3313 10 -157 6
-568 -9 -720 -56 -602 -217 -1161 -491 -1700 -451 -891 -1206 -1626 -2105
-2050 -271 -128 -516 -217 -799 -290 -1333 -343 -2756 -63 -3859 758 -211 158
-358 287 -556 488 -190 193 -319 347 -471 559 -682 952 -976 2149 -814 3310
50 352 148 726 281 1062 58 147 200 443 283 588 320 558 803 1088 1331 1459
642 452 1350 721 2130 810 206 24 203 24 565 21 302 -2 362 -5 538 -29z"/>
<path d="M4510 9349 c-775 -58 -1482 -287 -2120 -687 -852 -535 -1510 -1352
-1854 -2298 -139 -384 -222 -772 -256 -1189 -11 -140 -14 -538 -5 -663 51
-669 222 -1261 527 -1827 548 -1015 1469 -1784 2563 -2138 646 -210 1335 -274
2000 -186 913 120 1750 497 2435 1095 131 115 412 400 510 519 845 1019 1195
2314 979 3620 -80 483 -254 980 -494 1410 -592 1062 -1577 1844 -2740 2176
-271 77 -548 130 -845 159 -151 15 -554 20 -700 9z m780 -113 c1124 -135 2108
-651 2841 -1491 46 -53 117 -144 97 -125 -8 8 -63 69 -120 135 -670 766 -1621
1285 -2628 1434 -275 40 -353 45 -655 45 -320 0 -462 -12 -745 -60 -1113 -189
-2133 -824 -2798 -1740 -441 -608 -714 -1315 -808 -2089 -21 -176 -29 -593
-15 -781 68 -922 404 -1765 990 -2484 188 -231 517 -544 766 -728 1249 -924
2890 -1117 4315 -507 1169 499 2061 1477 2453 2690 139 430 207 869 207 1343
0 398 -37 699 -130 1065 -62 244 -64 250 -45 202 9 -22 36 -116 60 -210 207
-807 170 -1695 -104 -2497 -504 -1477 -1753 -2567 -3296 -2877 -312 -62 -454
-75 -840 -76 -278 0 -380 4 -495 18 -1033 128 -1935 564 -2640 1277 -601 607
-996 1341 -1184 2200 -102 467 -115 1082 -35 1585 240 1499 1237 2765 2645
3358 411 173 832 277 1309 322 186 18 670 13 855 -9z m2975 -1656 c10 -11 16
-20 13 -20 -3 0 -13 9 -23 20 -10 11 -16 20 -13 20 3 0 13 -9 23 -20z m-4687
-36 c64 -14 192 -72 225 -101 20 -19 22 -44 5 -61 -19 -19 -39 -15 -108 22
-104 55 -169 70 -300 70 -137 1 -222 -22 -316 -82 -104 -67 -170 -146 -224
-265 -37 -82 -50 -150 -50 -255 0 -332 245 -573 585 -575 115 -1 210 27 300
88 67 46 92 54 113 33 22 -22 13 -46 -30 -81 -187 -151 -466 -169 -716 -46
-117 57 -205 147 -267 271 -60 122 -78 212 -72 348 22 452 405 736 855 634z
m1200 -5 c176 -45 324 -163 401 -319 96 -197 96 -439 -1 -640 -56 -115 -177
-238 -288 -292 -117 -56 -187 -72 -325 -72 -205 0 -329 48 -461 179 -65 64
-89 97 -122 165 -60 124 -75 199 -70 350 4 113 8 134 39 215 41 107 88 181
163 255 168 166 410 224 664 159z m-2316 -6 c60 -27 138 -99 138 -127 0 -49
-43 -60 -81 -20 -36 39 -98 72 -158 85 -192 41 -330 -138 -247 -318 30 -63 85
-117 238 -235 135 -103 191 -161 225 -235 60 -130 26 -300 -77 -387 -139 -117
-353 -106 -494 24 -48 45 -58 77 -31 100 19 16 39 6 102 -44 51 -41 139 -76
192 -76 138 0 238 89 248 224 10 117 -38 184 -247 346 -216 168 -265 240 -265
390 0 101 21 156 81 214 72 70 119 86 239 83 65 -2 103 -9 137 -24z m2972 1
c14 -13 16 -63 16 -395 0 -312 3 -393 16 -452 37 -164 122 -280 252 -344 76
-38 77 -38 201 -38 120 0 129 1 191 31 97 47 153 101 200 197 64 130 70 181
70 617 0 322 2 379 15 390 22 18 64 4 71 -24 3 -14 4 -199 1 -413 -5 -403 -9
-452 -53 -564 -99 -252 -362 -380 -638 -309 -104 26 -169 63 -241 135 -69 69
-114 148 -146 255 -21 71 -23 96 -27 482 -2 286 0 413 8 427 13 25 42 27 64 5z
m2190 0 c20 -19 20 -24 0 -52 -15 -22 -19 -22 -250 -22 l-234 0 0 -604 c0
-657 2 -636 -55 -622 l-25 6 0 610 0 610 -234 0 c-200 0 -237 2 -250 16 -19
18 -21 45 -4 62 9 9 139 12 524 12 453 0 514 -2 528 -16z m697 -26 c19 -24 26
-37 16 -29 -20 16 -61 71 -54 71 3 0 20 -19 38 -42z m89 -123 c17 -25 29 -45
26 -45 -3 0 -19 20 -36 45 -17 25 -29 45 -26 45 3 0 19 -20 36 -45z m181 -280
l10 -20 -16 20 c-9 11 -21 29 -26 40 l-10 20 16 -20 c9 -11 21 -29 26 -40z
m99 -175 c11 -22 18 -40 15 -40 -2 0 -14 18 -25 40 -11 22 -18 40 -15 40 2 0
14 -18 25 -40z m50 -94 c0 -12 -5 -7 -19 24 -11 24 -11 24 3 6 9 -11 16 -24
16 -30z m129 -281 c0 -5 -22 37 -50 94 -27 57 -49 107 -48 110 1 9 98 -192 98
-204z m70 -181 c34 -91 61 -170 59 -175 -2 -5 -30 66 -63 157 -33 91 -61 170
-63 175 -2 5 -2 9 1 9 3 0 33 -75 66 -166z m-3787 -415 c82 -97 9 -253 -156
-334 -122 -61 -203 -75 -441 -81 -115 -2 -246 -9 -290 -14 -210 -26 -374 -136
-400 -269 -14 -66 -30 -75 -44 -25 -21 77 21 178 106 251 119 104 172 114 559
112 349 -1 442 10 532 64 65 38 89 70 98 126 12 75 -38 164 -83 147 -14 -6
-13 -10 7 -31 20 -21 22 -28 12 -50 -27 -59 -102 5 -86 72 15 57 146 80 186
32z m289 -100 c19 -37 2 -130 -48 -246 -25 -59 -55 -137 -68 -173 -13 -36 -32
-86 -44 -111 -18 -39 -19 -54 -11 -102 18 -113 72 -196 155 -240 52 -28 164
-30 212 -4 92 49 79 187 -17 187 -21 0 -42 -5 -45 -11 -12 -18 4 -57 26 -64
28 -9 20 -39 -13 -43 -29 -4 -58 28 -58 64 0 27 34 70 70 89 110 57 244 -75
195 -191 -28 -68 -87 -114 -165 -128 -38 -7 -144 12 -200 36 -72 31 -163 144
-195 242 -5 16 -11 10 -38 -34 -18 -30 -49 -71 -69 -93 -34 -35 -42 -39 -80
-36 -34 3 -59 -5 -115 -34 -50 -26 -88 -38 -122 -39 -97 -4 -112 46 -66 225
38 150 34 169 -31 125 -64 -44 -118 -159 -138 -293 -11 -76 -13 -80 -39 -83
-25 -3 -27 -1 -27 34 l0 38 -30 -47 c-26 -41 -34 -47 -64 -47 -37 0 -96 40
-96 65 0 35 -21 20 -47 -32 -28 -58 -72 -97 -121 -110 -37 -9 -129 15 -162 43
-53 45 -63 129 -29 240 32 103 65 162 128 224 45 45 67 59 106 69 116 27 197
-47 151 -137 -21 -41 -47 -60 -91 -67 -32 -6 -46 -2 -68 15 -35 28 -35 73 1
78 18 3 22 -1 22 -22 0 -19 5 -26 20 -26 23 0 40 28 40 65 0 68 -50 85 -107
37 -62 -53 -133 -231 -133 -332 0 -54 33 -118 73 -140 25 -14 30 -13 65 5 40
22 65 63 123 210 36 91 49 108 71 100 25 -10 27 -27 12 -85 -8 -30 -14 -71
-14 -92 0 -32 4 -40 26 -48 18 -7 33 -7 52 2 27 14 32 21 58 83 9 22 20 49 24
60 5 11 16 81 26 155 17 139 29 170 66 170 30 0 32 -26 8 -90 -12 -32 -19 -64
-15 -70 4 -7 42 26 99 84 94 98 115 109 148 79 25 -23 23 -53 -18 -178 -44
-138 -53 -214 -30 -238 10 -9 29 -17 44 -17 30 0 106 32 116 49 4 5 -3 29 -15
53 -18 35 -21 54 -17 119 5 81 30 140 80 186 23 21 174 103 190 103 4 0 8 -11
8 -25 0 -21 -8 -29 -43 -44 -79 -34 -143 -105 -165 -183 -13 -47 5 -88 50
-112 35 -19 36 -19 69 0 49 29 105 145 113 238 24 248 86 457 148 500 30 22
45 20 59 -5z m-3288 -424 c-2 -5 -28 -11 -58 -13 l-55 -3 0 -79 0 -79 55 -3
c30 -2 55 -7 55 -13 0 -5 -25 -11 -55 -13 l-55 -3 0 -79 0 -80 60 0 c33 0 60
-4 60 -9 0 -13 -27 -21 -75 -21 -79 0 -75 -11 -75 205 0 145 3 195 13 199 21
9 132 1 130 -9z m161 1 c44 -18 78 -106 41 -106 -9 0 -15 9 -15 25 0 30 -32
65 -60 65 -56 0 -82 -96 -37 -137 12 -11 38 -28 57 -37 48 -22 74 -67 67 -113
-9 -54 -42 -83 -92 -83 -50 0 -77 25 -79 72 -1 45 17 51 25 8 9 -42 35 -63 69
-55 27 7 37 18 47 54 10 41 -9 73 -59 98 -26 13 -56 35 -67 50 -47 59 -8 167
62 172 4 1 23 -5 41 -13z m279 -1 c1 -5 -17 -11 -40 -13 l-43 -3 0 -185 c0
-157 -2 -184 -15 -184 -13 0 -15 27 -15 185 l0 185 -45 0 c-42 0 -54 7 -38 24
11 10 193 2 196 -9z m290 -17 c28 -33 23 -115 -11 -169 -16 -24 -36 -50 -46
-58 -24 -20 -46 -65 -46 -96 0 -24 2 -25 61 -25 44 0 60 -3 57 -12 -3 -9 -27
-13 -74 -13 -63 0 -69 2 -72 22 -6 42 19 104 63 153 48 54 71 113 61 154 -13
52 -81 58 -92 8 -11 -52 -14 -56 -26 -44 -8 8 -8 21 0 51 19 61 84 76 125 29z
m193 22 c8 0 23 -15 34 -32 17 -28 20 -51 20 -163 0 -110 -3 -135 -19 -161
-35 -58 -127 -48 -150 16 -14 43 -14 247 0 290 12 33 61 64 87 55 8 -3 20 -5
28 -5z m388 -19 c22 -24 34 -85 15 -79 -7 2 -17 18 -21 35 -14 54 -68 55 -87
1 -6 -17 -11 -43 -11 -58 0 -26 2 -27 43 -23 34 4 46 1 62 -17 26 -29 33 -132
12 -183 -30 -70 -104 -70 -134 0 -22 54 -15 268 10 307 30 46 79 53 111 17z
m2665 18 c17 -6 36 -19 41 -29 13 -24 13 -80 0 -80 -5 0 -10 11 -10 25 0 28
-32 65 -56 65 -29 0 -52 -20 -64 -54 -15 -46 1 -77 54 -106 72 -40 86 -58 86
-110 0 -68 -27 -100 -86 -100 -39 0 -47 4 -64 33 -21 33 -27 77 -11 77 5 0 12
-14 16 -30 14 -62 89 -78 113 -25 26 57 13 89 -48 120 -27 13 -57 36 -69 51
-38 48 -22 131 30 160 30 16 29 16 68 3z m239 -6 c3 -10 -13 -13 -57 -13 l-61
0 0 -80 0 -80 60 0 c47 0 60 -3 60 -15 0 -12 -13 -15 -60 -15 l-60 0 0 -80 0
-80 61 0 c44 0 60 -3 57 -12 -6 -17 -115 -23 -134 -7 -19 16 -21 368 -2 387
17 17 130 12 136 -5z m445 2 c1 -5 -17 -11 -40 -13 l-43 -3 -2 -181 c-2 -134
-6 -182 -15 -186 -10 -3 -13 38 -13 182 l0 186 -45 0 c-42 0 -54 7 -38 24 11
10 193 2 196 -9z m245 -2 c2 -9 -10 -13 -42 -13 l-46 0 0 -185 c0 -117 -4
-185 -10 -185 -6 0 -10 68 -10 185 l0 185 -50 0 c-47 0 -60 7 -43 24 13 12
196 2 201 -11z m375 2 c-2 -5 -28 -11 -58 -13 l-55 -3 0 -79 0 -79 55 -3 c30
-2 55 -7 55 -13 0 -5 -25 -11 -55 -13 l-55 -3 0 -79 0 -80 61 0 c44 0 60 -3
57 -12 -3 -9 -27 -13 -74 -13 l-69 0 -3 190 c-1 104 0 195 3 203 6 16 141 13
138 -3z m-4183 -190 c0 -123 -4 -195 -10 -195 -6 0 -10 62 -10 165 0 91 -3
165 -7 165 -3 0 -14 -7 -24 -16 -29 -26 -30 1 -1 39 49 65 52 56 52 -158z
m3295 118 c9 -43 30 -130 45 -193 16 -64 25 -119 20 -124 -11 -11 -26 19 -35
72 l-7 42 -49 0 c-31 0 -51 -5 -54 -12 -2 -7 -9 -32 -15 -55 -13 -51 -36 -59
-26 -10 27 147 81 357 92 357 7 0 19 -32 29 -77z m575 -108 l0 -185 66 0 c48
0 65 -3 62 -12 -3 -9 -27 -13 -74 -13 l-69 0 -3 198 c-1 129 1 197 8 197 6 0
10 -66 10 -185z m-4502 -193 c2 -7 -3 -12 -12 -12 -9 0 -16 7 -16 16 0 17 22
14 28 -4z m2707 -218 c23 -12 48 -36 60 -56 19 -35 19 -36 0 -78 -23 -51 -66
-80 -117 -80 -21 0 -38 3 -38 6 0 3 11 19 25 36 37 44 34 93 -7 118 -18 11
-47 23 -65 26 -31 6 -193 -23 -283 -51 -25 -8 -101 -30 -170 -49 -112 -30
-201 -60 -370 -125 -123 -47 -298 -61 -401 -31 -77 22 -148 98 -149 158 0 35
25 77 55 90 52 24 99 -32 53 -62 -13 -8 -23 -8 -38 2 -28 17 -30 16 -30 -22 0
-93 189 -148 385 -112 112 21 523 140 695 202 162 58 317 69 395 28z m-2954
-570 c67 -19 142 -66 170 -106 18 -24 20 -34 10 -54 -15 -35 -46 -30 -98 15
-59 53 -126 74 -213 69 -88 -5 -139 -38 -176 -115 -23 -46 -26 -63 -21 -113 9
-106 61 -170 259 -322 132 -100 194 -165 229 -235 19 -40 24 -64 24 -138 0
-82 -3 -97 -33 -157 -37 -75 -72 -110 -152 -147 -46 -22 -69 -26 -145 -26 -80
0 -97 3 -157 32 -74 35 -158 106 -158 134 0 18 25 49 40 49 4 0 27 -16 51 -36
136 -114 306 -125 402 -26 48 49 67 98 67 172 0 109 -54 180 -250 330 -170
130 -224 194 -255 304 -44 151 34 310 179 365 63 25 154 26 227 5z m4299 -14
c75 -26 145 -60 179 -87 18 -15 23 -26 18 -45 -11 -41 -32 -40 -115 2 -104 53
-187 73 -302 73 -171 0 -300 -51 -411 -162 -119 -119 -179 -268 -179 -440 0
-104 18 -181 65 -278 143 -292 581 -396 838 -200 51 40 77 46 97 22 30 -37
-29 -97 -152 -155 -90 -43 -154 -53 -297 -48 -105 4 -138 10 -201 33 -156 57
-258 136 -334 258 -212 341 -89 815 255 985 124 61 180 72 339 68 106 -3 149
-8 200 -26z m-3553 -4 c126 -34 198 -88 245 -184 31 -63 33 -72 33 -177 0
-106 -1 -112 -34 -173 -60 -111 -159 -180 -290 -203 -68 -12 -91 -3 -91 35 0
28 18 46 45 46 39 0 120 29 167 60 147 98 166 333 35 445 -64 55 -134 77 -269
83 l-118 5 0 -605 c0 -456 -3 -607 -12 -616 -7 -7 -21 -12 -33 -12 -12 0 -26
5 -33 12 -9 9 -12 166 -12 644 0 584 1 634 17 650 15 15 33 16 158 11 77 -4
164 -13 192 -21z m854 -12 c74 -25 91 -35 145 -88 66 -66 88 -115 100 -216 7
-70 -16 -185 -51 -244 -25 -44 -83 -102 -121 -124 -21 -12 -28 -5 324 -363
162 -165 183 -190 180 -215 -2 -24 -8 -29 -33 -32 -27 -2 -54 22 -307 283
-153 156 -284 295 -293 308 -22 34 -12 50 46 77 99 47 156 129 166 240 7 73
-11 149 -46 198 -57 78 -197 126 -351 120 l-75 -3 -5 -610 -5 -610 -35 0 -35
0 -3 645 c-2 606 -1 646 15 659 14 10 49 12 159 8 117 -5 154 -10 225 -33z
m632 24 c14 -12 16 -57 19 -418 l4 -405 27 -81 c50 -149 125 -241 247 -298 62
-30 70 -31 195 -31 126 0 132 1 198 32 83 40 155 111 196 196 56 112 61 161
61 588 0 358 1 388 18 409 22 28 59 20 68 -14 3 -13 4 -207 1 -432 -3 -352 -6
-417 -21 -469 -59 -203 -193 -343 -371 -390 -75 -19 -211 -19 -294 0 -149 35
-270 134 -340 277 -67 135 -71 168 -71 625 0 372 1 403 18 412 22 13 25 13 45
-1z m3051 -4 c19 -18 21 -45 4 -62 -9 -9 -86 -12 -285 -12 l-273 0 0 -265 0
-265 212 0 c183 0 214 -2 230 -17 22 -20 23 -31 1 -55 -15 -16 -35 -18 -230
-18 l-213 0 0 -265 0 -265 274 0 c298 0 305 -1 292 -55 l-6 -25 -318 2 -317 3
-3 645 c-2 597 -1 646 15 658 13 9 91 12 309 12 253 0 295 -2 308 -16z m-4998
-1740 c44 -21 76 -87 72 -146 -3 -48 -31 -62 -36 -18 -9 92 -47 140 -111 140
-46 0 -79 -23 -97 -66 -17 -40 -20 -417 -4 -475 14 -48 40 -70 93 -76 62 -7
96 23 112 103 8 41 17 60 28 62 14 3 17 -5 17 -45 0 -96 -62 -163 -150 -163
-57 0 -107 30 -132 80 -16 30 -18 66 -18 267 0 140 4 243 11 260 13 34 47 72
74 83 33 14 105 11 141 -6z m375 -7 c43 -29 62 -67 67 -140 5 -70 -12 -138
-44 -168 l-23 -22 29 -33 c36 -42 42 -72 38 -204 -2 -85 -6 -105 -18 -105 -12
0 -16 23 -20 128 l-5 129 -33 29 c-29 26 -39 29 -102 29 l-70 0 0 -155 c0
-133 -2 -157 -16 -162 -9 -3 -20 0 -25 8 -10 16 -13 648 -3 673 5 13 24 16 99
16 79 0 97 -3 126 -23z m348 -14 c6 -21 24 -101 41 -178 18 -77 49 -214 71
-305 23 -98 35 -168 29 -174 -21 -21 -37 7 -59 103 l-22 101 -87 0 -87 0 -25
-102 c-24 -97 -43 -129 -56 -94 -6 15 127 613 147 664 13 34 37 27 48 -15z
m476 17 c0 -12 -20 -16 -108 -18 l-108 -3 3 -142 3 -142 105 -5 c84 -4 105 -8
105 -20 0 -12 -20 -16 -107 -18 l-108 -3 0 -165 c0 -152 -1 -165 -17 -162 -17
3 -18 28 -21 338 -1 184 0 341 3 348 3 9 34 12 127 10 101 -3 123 -6 123 -18z
m433 3 c-3 -15 -16 -18 -80 -21 l-78 -3 -2 -327 c-3 -301 -4 -327 -20 -330
-17 -3 -18 19 -20 325 l-3 328 -75 3 c-76 3 -98 11 -86 31 5 7 68 11 187 11
166 0 180 -1 177 -17z m327 -3 c0 -12 -20 -16 -107 -18 l-108 -3 0 -144 0
-145 111 0 c100 0 110 -2 107 -17 -3 -16 -18 -18 -111 -21 l-107 -3 0 -144 0
-144 108 -3 c87 -2 107 -6 107 -18 0 -13 -21 -15 -125 -15 l-125 0 -3 335 c-1
184 0 341 3 348 3 9 34 12 127 10 101 -3 123 -6 123 -18z m310 -10 c58 -54 60
-65 60 -320 0 -217 -2 -238 -20 -269 -37 -62 -65 -76 -171 -79 l-94 -4 0 352
0 352 99 -4 c90 -3 102 -5 126 -28z m654 -4 c32 -30 55 -96 49 -142 -5 -47
-30 -35 -43 21 -21 91 -44 115 -110 115 -47 0 -71 -13 -90 -50 -12 -23 -15
-73 -15 -253 0 -138 4 -236 11 -256 27 -77 148 -81 186 -7 9 17 18 63 21 103
l5 72 -74 3 c-61 2 -74 6 -77 21 -3 15 6 17 92 17 l96 0 0 -93 c0 -76 -4 -101
-22 -137 -53 -105 -208 -108 -262 -4 -19 36 -21 56 -21 274 0 263 6 292 67
330 50 32 147 24 187 -14z m372 8 c12 -10 30 -37 40 -59 16 -35 19 -68 19
-265 0 -214 -1 -228 -22 -270 -53 -105 -201 -109 -259 -7 -23 41 -24 47 -24
277 0 218 1 238 21 275 28 55 73 77 146 72 39 -2 64 -10 79 -23z m366 6 c64
-39 68 -57 68 -330 0 -241 0 -246 -24 -284 -27 -42 -71 -66 -126 -66 -55 0
-99 24 -126 66 -24 38 -24 43 -24 284 0 217 2 249 18 278 26 47 72 72 132 72
32 0 62 -7 82 -20z m353 2 c23 -11 43 -33 58 -62 21 -42 22 -56 22 -270 0
-214 -1 -228 -22 -270 -34 -64 -72 -81 -178 -78 l-85 3 -3 335 c-1 184 0 341
3 347 7 21 162 17 205 -5z m414 -11 c33 -31 58 -98 54 -142 -5 -57 -31 -43
-45 26 -16 73 -47 105 -101 105 -68 0 -114 -55 -115 -140 -1 -69 24 -103 113
-149 81 -43 122 -80 139 -124 29 -75 -4 -182 -68 -224 -64 -43 -161 -22 -201
42 -26 42 -33 140 -10 140 9 0 18 -15 23 -40 19 -89 53 -125 117 -125 69 0
123 96 100 179 -12 47 -36 69 -129 116 -98 51 -126 92 -126 184 0 75 27 135
73 164 41 26 143 19 176 -12z"/>
<path d="M4463 7470 c-173 -32 -322 -147 -404 -316 -90 -185 -90 -367 2 -552
101 -206 291 -312 539 -299 168 8 304 69 405 180 105 115 158 256 158 422 0
274 -153 483 -403 551 -69 18 -229 26 -297 14z"/>
<path d="M5352 5733 c-18 -42 -63 -207 -62 -230 2 -22 51 94 74 172 29 98 22
132 -12 58z"/>
<path d="M3000 5400 c-18 -18 -20 -33 -20 -155 0 -122 2 -137 20 -155 11 -11
29 -20 40 -20 11 0 29 9 40 20 18 18 20 33 20 155 0 122 -2 137 -20 155 -11
11 -29 20 -40 20 -11 0 -29 -9 -40 -20z"/>
<path d="M3394 5272 c-36 -23 -47 -139 -18 -180 39 -55 84 -10 84 85 0 50 -4
67 -20 83 -22 22 -29 24 -46 12z"/>
<path d="M6497 5288 c-23 -99 -24 -98 24 -98 29 0 40 4 36 13 -2 7 -10 39 -17
72 -18 91 -25 93 -43 13z"/>
<path d="M2850 2355 l0 -145 69 0 c54 0 74 4 94 21 57 44 61 187 7 241 -26 25
-35 28 -99 28 l-71 0 0 -145z"/>
<path d="M3311 2253 c-17 -82 -31 -151 -31 -155 0 -10 137 -10 143 0 7 9 -64
302 -73 302 -4 0 -21 -66 -39 -147z"/>
<path d="M4740 2190 l0 -310 54 0 c72 0 102 12 126 52 18 30 20 51 20 256 0
178 -3 229 -15 252 -24 46 -52 60 -122 60 l-63 0 0 -310z"/>
<path d="M5803 2488 c-46 -22 -53 -59 -53 -298 0 -180 3 -228 15 -255 27 -55
93 -71 151 -36 45 27 54 77 54 291 0 201 -10 260 -48 290 -27 22 -83 25 -119
8z"/>
<path d="M6177 2489 c-42 -25 -47 -57 -47 -299 0 -251 4 -275 55 -298 58 -27
126 -3 144 49 7 20 11 118 11 256 0 244 -6 274 -56 293 -33 13 -84 12 -107 -1z"/>
<path d="M6510 2190 l0 -310 55 0 c31 0 69 7 84 15 50 25 56 58 56 295 0 118
-3 228 -8 243 -11 41 -61 67 -129 67 l-58 0 0 -310z"/>
</g>
</svg>
